<?xml version="1.0" encoding="utf-8"?>
<!-- Generator: Adobe Illustrator 24.1.1, SVG Export Plug-In . SVG Version: 6.00 Build 0)  -->
<svg version="1.1" id="Layer_1" xmlns="http://www.w3.org/2000/svg" xmlns:xlink="http://www.w3.org/1999/xlink" x="0px" y="0px"
	 viewBox="0 0 82.4 96.8" style="enable-background:new 0 0 82.4 96.8;" xml:space="preserve">
<style type="text/css">
	.st0{fill-rule:evenodd;clip-rule:evenodd;fill:#9765FF;}
	.st1{fill:#9765FF;fill-opacity:0.6;}
	.st2{fill-rule:evenodd;clip-rule:evenodd;fill:none;stroke:#0D153B;stroke-miterlimit:10;}
	.st3{fill:#9765FF;fill-opacity:0.4;}
</style>
<g id="_x31_">
	<path id="Combined-Shape" class="st0" d="M72.1,7.5c0,4.2-3.4,7.5-7.5,7.5c-4.2,0-7.5-3.4-7.5-7.5C57,3.4,60.4,0,64.5,0
		C68.7,0,72.1,3.4,72.1,7.5z M15.6,24.9c0,3-2.4,5.4-5.4,5.4c-3,0-5.4-2.4-5.4-5.4s2.4-5.4,5.4-5.4C13.2,19.6,15.6,22,15.6,24.9z
		 M82.4,34.9c0,3.5-2.8,6.3-6.3,6.3s-6.3-2.8-6.3-6.3s2.8-6.3,6.3-6.3S82.4,31.4,82.4,34.9z"/>
	<path id="Path" class="st1" d="M26.9,69.2c-1.1,0-2-1.1-2-2.4c0-1.3,0.9-2.4,2-2.4c0.7-3.7,4.4-5.1,6.7-4.7
		c0.1-2.1,1.9-3.7,3.7-4.2c0,0,3.8-7.4,12.7-1.2c1.5-2.1,4.9-3.5,7.5-3.1c2.5,0.4,5,2.3,5.7,5.1c2.9-0.9,6.3,1,7.6,4.2
		c1.9-1.9,5.2-1.2,6.4,1.4c0.5-0.4,1.1-0.6,1.8-0.6c1.8,0,3.4,1.8,3.4,4c0,2.2-1.5,4-3.4,4L26.9,69.2L26.9,69.2z"/>
	<path id="Combined-Shape_1_" class="st2" d="M74.3,18.5c-1.4,1.4-2.8,2.8-4.3,4.3c0.1,1.4-0.1,2.7-0.2,4.1
		c-0.9,7.6-3.8,14.8-8.1,21.1c-2.2,3.2-4.6,6-7.4,8.7c-0.3,4.5-1.5,9-3.7,12.9c-3.1,5.6-8,9.9-13.6,13c-1,0.6-2.2,1.4-3.4,1.6
		c-0.9,0.2-1.8-0.1-2.4-0.8c-0.7-0.9-0.4-1.8-0.1-2.7c1.1-3,1.5-6.5-0.4-9.3c-0.4,0.2-0.8,0.3-1.1,0.5c-0.2,0.1-0.7,0.2-0.9,0
		c-1.4-1.4-2.9-2.9-4.3-4.3c0,0,0,0-0.1,0c-1.5-1.5-2.9-2.9-4.4-4.4c-0.2-0.2-0.2-0.3-0.1-0.5c0.2-0.5,0.4-1.1,0.6-1.6
		c-1.2-0.8-2.5-1.3-3.9-1.4c-1.2-0.1-2.4,0.1-3.5,0.4c-0.4,0.1-0.7,0.2-1.1,0.4c-0.8,0.3-1.6,0.6-2.5,0.5c-0.8-0.1-1.6-0.7-1.8-1.6
		c-0.2-0.7,0.1-1.3,0.4-1.9c0,0,0-0.1,0-0.1c0.5-1.1,1.1-2.2,1.8-3.2c1.5-2.6,3.4-5,5.5-7.1c5.3-5.3,12.2-8.5,19.7-9
		c6.1-6.3,13.6-11.2,22-13.8c3.7-1.2,7.9-2.1,11.8-1.9l0.3-0.3l4.4-4.4c0.3-0.3,0.6-0.4,1-0.3c0.3,0.1,0.4,0.5,0.2,0.7
		C74.7,18,74.5,18.2,74.3,18.5z M59.4,24.2c2.2-0.6,4.4-1,6.7-1.2c0.7-0.1,1.4-0.1,2.1-0.1h0.4c0,1,0,1.9-0.1,2.9
		c-0.2,2.2-0.6,4.3-1.1,6.4c-2.4-2.4-4.8-4.8-7.2-7.2C59.9,24.8,59.6,24.5,59.4,24.2z M67,33.7c-0.1,0.2-0.1,0.4-0.2,0.6
		c-2.9,9.4-8.7,17.6-16.1,23.9c-6.2,5.3-13.4,9.3-21,12.3c-1.4-1.4-2.7-2.7-4.1-4.1c0,0,0,0-0.1-0.1c-1.4-1.4-2.7-2.7-4.1-4.1
		c4.9-12.2,12.3-23.7,23.3-31.2c4.1-2.8,8.6-5,13.3-6.4c2.6,2.6,5.2,5.2,7.8,7.8C66.3,33,66.6,33.4,67,33.7z M56.1,43.6
		c1.6-1.6,2-4.1,1-6.2c-1-2.1-3.4-3.3-5.6-3c-2.3,0.3-4.4,2-4.9,4.3c-0.5,2.2,0.4,4.5,2.3,5.7C51.2,45.9,54.1,45.5,56.1,43.6
		C56.1,43.6,56.1,43.6,56.1,43.6C56.1,43.6,56.1,43.6,56.1,43.6z M50.2,43.8c1.5,0.8,3.4,0.5,4.7-0.7l0,0c1.4-1.5,1.8-3.8,0.6-5.5
		c-0.9-1.5-2.7-2.4-4.5-2c-1.8,0.4-3,1.9-3.2,3.7C47.6,41.1,48.6,43,50.2,43.8z M21.1,59.7c3-6.9,6.8-13.4,11.6-19.1
		c0.5-0.6,1-1.1,1.5-1.7c-3.9,0.4-7.6,1.5-11.1,3.4c-5.2,2.9-9.3,7.5-12.2,12.6c-0.6,1-1.1,2-1.5,3c-0.2,0.5-0.3,1,0,1.5
		c0.2,0.4,0.6,0.6,1.1,0.6c0.5-0.1,1.1-0.4,1.7-0.6c0.5-0.2,1-0.3,1.6-0.4C16.2,58.3,18.9,58.4,21.1,59.7z M31.5,71
		c1.2,1.8,2.3,5,0.1,10.2c-0.6,1.4,0.9,2.8,2.3,2.2c6.5-3,18.4-10.6,19.6-26.2C47.2,63.1,39.5,67.6,31.5,71z M9.9,86.4
		c0,3.4,1,6.7,2.7,9.6l0,0c0.4,0.6-1,1.1-1.3,0.6c-1.3-2.2-2.1-4.5-2.5-7c-0.3-2.1-0.5-4.3,0.2-6.3c0.6-1.8,1.9-3.4,3.7-4
		c1.6-0.5,3.3-0.3,4.8,0.4c0.9-1,2-1.8,3-2.3c0.7-0.4,1.5,0.4,0.6,0.8c-0.9,0.5-1.8,1.2-2.6,2.1c2.9,1.7,6.9,5.4,4.5,8.8
		c-1,1.4-2.9,2.2-4.5,1.8c-1.6-0.5-2.9-1.9-3.4-3.5c-0.8-2.3,0.1-4.7,1.6-6.6c-0.5-0.2-1.1-0.4-1.6-0.5C11.2,79.4,9.9,83.3,9.9,86.4
		z M17.7,81.1c-1.3,1.9-1.9,4.2-1,6.2c0.6,1.2,1.9,2.7,3.4,2.4c1.7-0.3,2.4-2.2,2-3.7c-0.4-1.6-1.8-3-3.1-4
		C18.6,81.7,18.1,81.4,17.7,81.1z"/>
	<path id="Path_1_" class="st3" d="M47.9,76.1c1,0,1.8-1.2,1.8-2.6c0-1.4-0.8-2.6-1.8-2.6c-0.6-4.1-3.8-5.5-5.8-5.1
		c-0.1-2.3-1.7-4-3.2-4.5c0,0-3.3-8-11-1.3c-1.3-2.3-4.3-3.8-6.4-3.4c-2.2,0.4-4.3,2.4-4.9,5.6c-2.6-1-5.5,1-6.6,4.6
		c-1.6-2.1-4.5-1.3-5.5,1.5c-0.5-0.4-1-0.7-1.6-0.7c-1.6,0-2.9,1.9-2.9,4.3c0,2.4,1.3,4.3,2.9,4.3H47.9L47.9,76.1z"/>
</g>
</svg>
