<?xml version="1.0" encoding="utf-8"?>
<!-- Generator: Adobe Illustrator 24.1.1, SVG Export Plug-In . SVG Version: 6.00 Build 0)  -->
<svg version="1.1" id="Layer_1" xmlns="http://www.w3.org/2000/svg" xmlns:xlink="http://www.w3.org/1999/xlink" x="0px" y="0px"
	 viewBox="0 0 97.8 76.2" style="enable-background:new 0 0 97.8 76.2;" xml:space="preserve">
<style type="text/css">
	.st0{fill:#9765FF;}
	.st1{fill:#9765FF;fill-opacity:0.2;}
	.st2{fill:#07133B;}
	.st3{fill-rule:evenodd;clip-rule:evenodd;fill:#9765FF;}
	.st4{fill:none;stroke:#0D153B;stroke-miterlimit:10;}
</style>
<g id="_x32_">
	<path id="Path" class="st0" d="M72.6,9.9L77.2,4H59.7v12h17.5L72.6,9.9z"/>
	<path id="Path_1_" class="st1" d="M63.8,25.7c-0.9-1.4-2.4-2.2-3.9-2.2c-1.1,0-2.1,0.4-2.9,1.3c-0.4,0.4-0.7,0.9-1,1.3
		c-0.1,0.2-0.2,0.3-0.3,0.5l-28.5,42L46.2,65l8.9-11.7c0.1-0.1,0.4-0.2,0.7-0.2c0.1,0,0.2,0,0.2,0l12.3,8.3l9.3-14.6
		C77.7,46.8,64.2,26.2,63.8,25.7z"/>
	<path id="Path_2_" class="st2" d="M59.4,4.5h17.5l-0.3-0.6c-1.5,2-3.1,3.9-4.6,5.9c-0.1,0.1-0.2,0.3-0.1,0.5c1.5,2,3.1,4.1,4.6,6.1
		l0.9-0.8H59.9l0.5,0.4v-12c0-0.7-1.4-0.4-1.4,0.1v12c0,0.2,0.2,0.4,0.5,0.4h17.5c0.3,0,1.3-0.3,0.9-0.8c-1.5-2-3.1-4.1-4.6-6.1
		L73.1,10c1.5-2,3.1-3.9,4.6-5.9c0.2-0.3,0.1-0.6-0.3-0.6H59.9c-0.3,0-0.8,0.1-0.9,0.4C58.9,4.2,59.1,4.5,59.4,4.5L59.4,4.5z"/>
	<path id="Combined-Shape" class="st3" d="M55.3,12.6c0,3-2.4,5.4-5.4,5.4c-3,0-5.4-2.4-5.4-5.4c0-3,2.4-5.4,5.4-5.4
		C52.9,7.2,55.3,9.6,55.3,12.6z M15.6,49.4c0,4.3-3.5,7.8-7.8,7.8c-4.3,0-7.8-3.5-7.8-7.8c0-4.3,3.5-7.8,7.8-7.8
		C12.1,41.6,15.6,45.1,15.6,49.4z M26.1,45.7c0,1.9-1.5,3.4-3.4,3.4c-1.9,0-3.4-1.5-3.4-3.4c0-1.9,1.5-3.4,3.4-3.4
		C24.6,42.3,26.1,43.8,26.1,45.7z"/>
	<path id="Path_3_" class="st4" d="M22.8,75.9c1.2-1.8,2.4-3.5,3.6-5.3c2.8-4.2,5.7-8.4,8.5-12.6c3.4-5,6.7-10,10.1-15
		c2.8-4.2,5.6-8.3,8.5-12.5l2.6-3.8c0.4-0.6,0.8-1.3,1.3-1.8c1.9-2.1,4.8-1.3,6.2,0.9c0.5,0.8,1.1,1.6,1.6,2.5
		c2.4,3.7,4.8,7.3,7.2,11c3.3,5,6.5,10,9.8,14.9c3,4.6,6,9.2,9,13.8c1.7,2.6,3.4,5.1,5,7.7l0.2,0.4l0.7-0.9H31.5c-3,0-6.1-0.1-9.1,0
		c0,0-0.1,0-0.1,0c-0.8,0-1.1,1.1-0.1,1.1h65.7c3,0,6.1,0.1,9.1,0c0,0,0.1,0,0.1,0c0.4,0,1-0.4,0.7-0.9c-1.2-1.8-2.4-3.7-3.6-5.5
		c-2.8-4.3-5.7-8.7-8.5-13c-3.4-5.1-6.7-10.2-10.1-15.3c-2.7-4.1-5.4-8.2-8.1-12.3c-0.7-1.1-1.5-2.3-2.2-3.4
		c-0.7-1.1-1.5-2.1-2.8-2.7c-2.5-1-5.3-0.1-6.8,2.1c-0.5,0.8-1.1,1.6-1.6,2.4c-2.5,3.6-4.9,7.3-7.4,10.9c-3.4,5-6.8,10-10.2,15
		c-3.1,4.6-6.3,9.3-9.4,13.9c-1.7,2.6-3.5,5.1-5.2,7.7c-0.1,0.1-0.2,0.2-0.2,0.4C21.1,76.2,22.4,76.4,22.8,75.9L22.8,75.9z"/>
	<path id="Path_4_" class="st2" d="M60.4,23.1c0-6.7,0-13.4,0-20V0.2c0-0.4-1.4-0.1-1.4,0.4c0,6.7,0,13.4,0,20v2.8
		C58.9,23.8,60.4,23.5,60.4,23.1z"/>
	<path id="Path_5_" class="st4" d="M26.8,69c5.1-1,10.1-1.9,15.2-2.9l3.5-0.7c0.5-0.1,1.3-0.1,1.7-0.5c0.5-0.5,0.9-1.2,1.4-1.8
		l2.9-3.7c1.6-2.1,3.2-4.2,4.8-6.3l-1.3,0.3c3.7,2.5,7.5,5,11.2,7.6l1.6,1.1c0.4,0.2,1.1,0,1.4-0.4c2.8-4.4,5.6-8.8,8.4-13.3
		l1.2-1.9c0.2-0.2-0.5-0.2-0.6-0.2c-0.3,0-0.7,0.2-0.8,0.4c-2.8,4.4-5.6,8.8-8.4,13.3l-1.2,1.9l1.4-0.4c-3.7-2.5-7.5-5-11.2-7.6
		l-1.6-1.1c-0.3-0.2-1.1,0-1.3,0.3c-2.6,3.4-5.3,6.9-7.9,10.3c-0.4,0.5-0.8,1-1.1,1.5l0.8-0.3c-5.7,1.1-11.4,2.2-17.2,3.3
		c-0.8,0.2-1.6,0.3-2.4,0.5c-0.2,0-0.8,0.2-0.8,0.4C26.2,69,26.6,69,26.8,69L26.8,69z"/>
	<path id="Path_6_" class="st4" d="M24.3,45.2c3.6-2.6,5.5-6.6,7.1-10.6c1.6-4,3.1-9.1,0.1-13c-1.1-1.4-3.2-2.7-5-1.5
		c-1.6,1.1-1.3,3.4-0.3,4.7c1.3,1.7,3.6,2.1,5.6,2c2.2-0.1,4.4-0.8,6.4-1.8c4.9-2.5,8.3-6.9,11.6-11.2c0.3-0.4-1.1-0.3-1.3,0
		c-2.5,3.3-5,6.6-8.3,9.1c-2.9,2.2-7.6,4.5-11.2,2.6c-1.5-0.8-2.6-2.6-2-4.3c0.8-2.4,3.5,1.2,4,2.2c1.8,3.7,0.4,7.8-1,11.4
		c-1.5,3.8-3.4,7.7-6.8,10.1c-0.3,0.2-0.1,0.4,0.1,0.4C23.7,45.6,24.1,45.4,24.3,45.2L24.3,45.2z"/>
	<path id="Path_7_" class="st4" d="M22.2,75.6l0.4-0.5h-15c4.2-6.2,8.4-12.5,12.7-18.7c0.5-0.8,1-1.6,1.6-2.4
		c1.2-1.6,2.3,0.4,2.9,1.4c1.8,2.8,3.7,5.6,5.5,8.3l0.9-1.3c-1.6-2.4-3.2-4.8-4.8-7.3c-0.6-1-1.2-2.3-2.4-2.7
		c-1.2-0.4-2.5,0.1-3.3,1.1c-0.2,0.3-0.4,0.6-0.6,1c-2.5,3.7-5.1,7.5-7.6,11.2C10.3,68.9,8.1,72,6,75.2c0,0.1-0.1,0.1-0.1,0.2
		c-0.2,0.3-0.1,0.6,0.2,0.7c0,0,0.1,0,0.2,0c0,0,0,0,0.1,0c0,0,0.1,0,0.1,0h32.5c0.3,0,0.7-0.2,0.8-0.5L22.2,75.6L22.2,75.6z"/>
</g>
</svg>
