<?xml version="1.0" encoding="utf-8"?>
<svg width="86.34021px" height="93.683105px" viewBox="0 0 86.34021 93.683105" version="1.1" xmlns:xlink="http://www.w3.org/1999/xlink" xmlns="http://www.w3.org/2000/svg">
  <g id="3">
    <path d="M45.984 88.5036C49.8697 85.054 54.3347 81.8842 59.4766 80.7062C63.9676 79.6778 68.5367 80.5565 72.5786 82.6913C75.3709 84.1688 77.8507 86.1605 80.1287 88.3344C80.4021 88.5947 81.4956 88.3539 81.4435 87.8918C81.0074 84.0842 80.5713 80.2701 80.1352 76.4625C79.8944 74.3602 79.6536 72.2644 79.4128 70.1621C79.3737 69.8431 79.4128 69.4005 79.2566 69.1207C79.0353 68.7041 78.3909 68.2941 78.0394 67.9816C77.6099 67.5911 77.1673 67.2136 76.7182 66.8426C75.8981 66.1722 75.0455 65.5344 74.1603 64.9551C71.0751 62.9244 67.5995 61.5575 63.8895 61.3427C60.1795 61.128 56.2157 62.1889 52.7856 63.9072C50.7289 64.9356 48.7958 66.2113 46.9734 67.6106C46.4787 67.9881 45.9906 68.3787 45.5154 68.7757C45.2421 69.0035 44.8515 69.2183 44.7604 69.5633C44.7344 69.6544 44.7604 69.7845 44.7604 69.8822C44.7604 71.6591 44.7604 73.4359 44.7604 75.2128C44.7604 77.8423 44.7604 80.4784 44.7604 83.1079C44.7604 84.8392 44.6563 86.6031 44.7604 88.3279C44.7604 88.419 44.7604 88.5101 44.7604 88.6012C44.7604 88.9722 46.1207 88.7314 46.1207 88.2367C46.1207 82.6848 46.1207 77.1394 46.1207 71.5875C46.1207 70.7934 46.1207 69.9928 46.1207 69.1988L45.9775 69.4721C50.1561 65.9119 55.0832 62.6835 60.6742 62.1108C65.5101 61.6161 70.1574 63.4386 74.017 66.2568C75.1235 67.0639 76.1715 67.9426 77.1738 68.8733C77.5318 69.2053 77.8637 69.381 77.9679 69.8236C78.1566 70.6632 78.1696 71.581 78.2672 72.4271C78.6187 75.5187 78.9702 78.6039 79.3282 81.6955C79.5755 83.8824 79.8293 86.0759 80.0767 88.2628L81.3914 87.8202C77.4602 84.0647 72.7674 80.8038 67.3131 79.8405C62.4511 78.9814 57.5565 80.1464 53.2282 82.4049C50.1952 83.9866 47.4485 86.0693 44.8971 88.3344C44.3243 88.8421 45.6716 88.7835 45.9775 88.5101L45.984 88.5036Z" id="Path" fill="#07133B" stroke="none" />
    <path d="M71.4005 76.098C70.1183 75.4341 68.5758 75.1412 67.1569 74.946C63.3883 74.4383 59.5417 74.9915 55.9359 76.1305C55.7732 76.1826 55.2329 76.3388 55.3045 76.6057C55.3761 76.8725 55.9424 76.7489 56.0921 76.7033C59.4766 75.6359 63.0499 75.1282 66.5776 75.6619C67.8143 75.8507 69.1355 76.1305 70.255 76.7098C70.6 76.8855 71.9082 76.3583 71.4005 76.0915L71.4005 76.098Z" id="Path" fill="#07133B" fill-opacity="0.3" stroke="none" />
    <path d="M71.3876 72.0692C70.0989 71.3988 68.5628 71.0929 67.1374 70.8976C63.3623 70.3769 59.5222 70.9106 55.9099 72.0562C55.6886 72.1277 55.2199 72.3165 55.3045 72.6289C55.3891 72.9413 55.9033 72.8893 56.1181 72.8242C59.4896 71.7633 63.076 71.2295 66.5972 71.7568C67.8274 71.939 69.1551 72.2059 70.2681 72.7851C70.7041 73.0129 71.9994 72.3881 71.3876 72.0692Z" id="Path" fill="#07133B" fill-opacity="0.3" stroke="none" />
    <path d="M71.2314 68.3722C69.9622 67.7148 68.4326 67.4154 67.0267 67.2202C63.2842 66.6995 59.4571 67.2397 55.8773 68.3722C55.0181 68.6456 55.2785 69.6674 56.1507 69.3941C59.5482 68.3201 63.154 67.7929 66.7078 68.3201C67.9575 68.5024 69.2917 68.7823 70.4243 69.368C71.0296 69.6805 72.0385 68.7953 71.2314 68.3787L71.2314 68.3722Z" id="Path" fill="#07133B" fill-opacity="0.3" stroke="none" />
    <path d="M79.5886 72.3099L81.3394 72.3099C81.1246 72.1993 80.9033 72.0821 80.6885 71.965C81.3524 78.1352 82.0163 84.299 82.6737 90.4692C82.7713 91.3479 82.8624 92.2266 82.96 93.1053L84.0731 92.4218C74.4011 89.2196 64.267 86.8829 54.0223 87.306C51.0934 87.4297 48.184 87.7941 45.3137 88.3864C44.422 88.5752 44.7019 89.5841 45.587 89.4018C58.2335 86.7723 71.1988 89.4148 83.266 93.4112C83.7281 93.5674 84.4375 93.294 84.379 92.7278C83.7151 86.5575 83.0511 80.3937 82.3938 74.2235C82.2961 73.3448 82.205 72.4661 82.1074 71.5875C82.0749 71.3011 81.6713 71.2425 81.4565 71.236L79.7057 71.236C78.8791 71.2295 78.6318 72.3034 79.5886 72.3099Z" id="Path" fill="#07133B" stroke="none" />
    <path d="M81.4175 90.645C80.7991 89.6036 79.7383 88.7836 78.775 88.0806C77.1868 86.9155 75.436 85.9848 73.62 85.2298C68.4521 83.0754 62.6984 82.5547 57.2051 83.5636C53.033 84.3316 49.1017 85.9718 45.4699 88.1327C45.1965 88.2954 45.1379 88.6078 45.3787 88.8096C45.6521 89.0374 46.1338 88.8616 46.3876 88.7119C52.0632 85.3404 58.585 83.4789 65.2043 84.1819C69.474 84.6375 73.7176 86.102 77.2584 88.5622C78.2998 89.2847 79.4583 90.1374 80.1157 91.2503C80.4151 91.7515 81.7754 91.2503 81.4175 90.645Z" id="Path" fill="#07133B" stroke="none" />
    <path d="M45.1639 89.2326C45.6065 89.2326 46.6349 88.5753 45.7237 88.5753C45.2811 88.5753 44.2527 89.2326 45.1639 89.2326Z" id="Path" fill="#07133B" stroke="none" />
    <path d="M45.9775 88.4386C41.8119 84.7351 36.9825 81.4222 31.4371 80.2571C26.6467 79.2483 21.7716 80.1269 17.4693 82.3985C14.5469 83.9475 11.95 86.0108 9.5613 88.2889L10.8174 88.4125C11.3902 83.4269 11.9565 78.4412 12.5292 73.462L12.8807 70.3704C12.9003 70.2077 12.8742 69.8952 12.9523 69.7455C12.9914 69.6674 13.5967 69.2314 13.7464 69.0947C14.2996 68.587 14.8724 68.0923 15.4582 67.6237C19.1876 64.6167 23.6721 62.4167 28.5602 62.5469C34.789 62.7161 40.328 66.2439 44.9296 70.1556L44.7669 69.8302L44.7669 88.8681C44.7669 89.5515 46.1467 89.3303 46.1467 88.751L46.1467 70.8325C46.1467 70.4875 46.2183 70.0515 46.1467 69.713C46.0751 69.3745 45.7692 69.2053 45.4959 68.971C44.9752 68.5349 44.4479 68.1119 43.9142 67.7018C42.9509 66.9598 41.9486 66.2569 40.9202 65.606C37.5422 63.4777 33.7216 61.883 29.6992 61.6162C25.9827 61.3753 22.3053 62.2931 19.0379 64.0439C17.222 65.0202 15.5298 66.2048 13.9547 67.5326C13.5707 67.858 13.1931 68.19 12.8221 68.5284C12.4706 68.8473 11.8263 69.2639 11.6245 69.6935C11.5724 69.8106 11.5725 69.9278 11.5594 70.0515C11.3121 71.7502 11.1689 73.4685 10.9736 75.1738C10.479 79.5281 9.90626 83.876 9.4832 88.2368C9.47669 88.3279 9.46364 88.419 9.45062 88.5102C9.37252 89.1806 10.4529 88.8746 10.7068 88.6338C14.3972 85.1126 18.7906 81.9949 23.8999 81.0447C28.5471 80.179 33.2205 81.3961 37.3014 83.6416C40.0611 85.1582 42.58 87.0847 44.9296 89.1806C45.3592 89.5581 46.5633 88.9267 45.984 88.419L45.9775 88.4386Z" id="Path" fill="#07133B" stroke="none" />
    <path d="M33.6175 63.0155L57.2701 63.0155L57.2701 64.8119C57.2701 68.9189 53.9377 72.2514 49.8307 72.2514L41.0569 72.2514C36.9499 72.2514 33.6175 68.9189 33.6175 64.8119L33.6175 63.0155Z" id="Path" fill="#9765ff" fill-opacity="0.6" stroke="none" />
    <path d="M34.6589 56.4807C27.955 52.3867 23.861 44.8627 24.1799 36.9936C24.4663 29.9772 28.2023 23.3774 34.1512 19.6154C40.1002 15.8533 48.0213 15.4107 54.4779 18.5414C60.9346 21.6721 65.2629 27.6081 66.428 34.4813C67.899 43.1639 63.8635 52.0222 56.359 56.6044C56.1181 56.7541 55.9945 56.9949 56.2418 57.1836C56.4892 57.3724 57.0228 57.1967 57.2441 57.06C64.1889 52.8228 68.4327 45.1555 68.1398 37.0001C67.8729 29.5672 63.7399 22.6549 57.3874 18.8083C51.0349 14.9616 42.7623 14.5581 35.9607 17.6953C29.1591 20.8325 24.3882 26.9377 23.0929 34.1558C21.661 42.1355 24.7722 50.4667 31.1312 55.5109C31.8992 56.1227 32.7063 56.676 33.5395 57.1836C33.956 57.4375 35.2512 56.8387 34.6589 56.4807Z" id="Path" fill="#2D0D30" stroke="none" />
    <path d="M33.3376 56.9754C33.3376 59.5398 33.3246 62.1108 33.3376 64.6752C33.3571 69.0686 36.7612 72.6028 41.1936 72.6549C43.745 72.6874 46.303 72.6549 48.8544 72.6549C50.8396 72.6549 52.7466 72.1993 54.3607 70.9887C56.1962 69.6088 57.4199 67.474 57.5565 65.1764C57.7193 62.4167 57.5695 59.6114 57.5695 56.8452C57.5695 56.5979 57.3547 56.4287 57.1074 56.4287L34.3139 56.4287C34.0145 56.4287 33.5134 56.5133 33.3897 56.8452C33.279 57.1381 33.4873 57.3855 33.8063 57.3855L56.5997 57.3855L56.1376 56.9689L56.1376 64.3628C56.1376 66.0485 55.8122 67.6497 54.7903 69.0295C53.5667 70.6958 51.6726 71.6525 49.6159 71.6851C47.2272 71.7241 44.8385 71.6851 42.4498 71.6851C40.5557 71.6851 38.8244 71.3531 37.3144 70.1035C35.7002 68.7692 34.8021 66.7515 34.7695 64.6687C34.7305 62.0587 34.7695 59.4422 34.7695 56.8322C34.7695 56.1358 33.3376 56.3766 33.3376 56.9624L33.3376 56.9754Z" id="Path" fill="#07133B" stroke="none" />
    <path d="M44.7409 72.2645L44.7409 76.1567C44.7409 76.4626 45.1054 76.5016 45.3528 76.4626C45.535 76.4365 45.7302 76.3845 45.8864 76.2803C45.9776 76.2218 46.1533 76.1046 46.1533 75.9809L46.1533 72.0887C46.1533 71.7828 45.7888 71.7438 45.5415 71.7828C45.3592 71.8088 45.164 71.8609 45.0078 71.9651C44.9167 72.0236 44.7409 72.1408 44.7409 72.2645Z" id="Path" fill="#2D0D30" stroke="none" />
    <path d="M33.9949 62.9635L56.7884 62.9635C57.6216 62.9635 57.8559 61.8505 56.8926 61.8505L34.0991 61.8505C33.266 61.8505 33.0316 62.9635 33.9949 62.9635Z" id="Path" fill="#07133B" stroke="none" />
    <path d="M42.6776 56.7607C42.6776 51.8727 42.6776 46.9846 42.6776 42.0966L42.6776 40.0333L41.506 40.4954L48.4638 40.4954L48.2165 40.4108C48.2165 45.2989 48.2165 50.1869 48.2165 55.075L48.2165 57.1382C48.2165 57.3335 49.6354 57.1382 49.6354 56.7607L49.6354 40.0333C49.6354 39.9552 49.4141 39.9487 49.3881 39.9487L42.4303 39.9487C42.1895 39.9487 41.2587 40.0659 41.2587 40.4108C41.2587 45.2989 41.2587 50.1869 41.2587 55.075L41.2587 57.1382C41.2587 57.3335 42.6776 57.1382 42.6776 56.7607Z" id="Path" fill="#07133B" stroke="none" />
    <path d="M38.6683 34.5529C40.0091 34.5529 41.083 35.744 41.2392 37.0197C41.3368 37.8008 41.2653 38.6209 41.2653 39.4019L41.2653 40.4108L42.2611 39.851C41.2653 39.851 40.2694 39.8575 39.2736 39.851C37.4381 39.8315 36.2536 37.8398 36.7938 36.1736C36.95 35.6985 37.2299 35.2624 37.6204 34.95C37.8091 34.8003 37.9523 34.7156 38.1476 34.6441C38.2777 34.592 38.447 34.5594 38.6748 34.5594C38.9742 34.5594 39.4298 34.4553 39.612 34.1884C39.7943 33.9216 39.4558 33.824 39.2411 33.824C37.9849 33.8435 36.6896 34.3642 35.9086 35.373C35.2447 36.2322 35.0364 37.4168 35.4139 38.4386C35.7914 39.4605 36.7027 40.222 37.7766 40.4889C38.4014 40.6386 39.0718 40.593 39.7097 40.593L41.6883 40.593C42.0008 40.593 42.6841 40.4433 42.6841 40.0333L42.6841 37.6055C42.6841 37.2475 42.7037 36.8765 42.6451 36.5186C42.5279 35.8156 42.1505 35.1452 41.6102 34.6701C40.9594 34.0973 40.1067 33.8174 39.2411 33.8174C38.9417 33.8174 38.4795 33.9216 38.3038 34.1884C38.128 34.4553 38.46 34.5529 38.6748 34.5529L38.6683 34.5529Z" id="Path" fill="#07133B" stroke="none" />
    <path d="M54.2501 37.3908C54.2501 38.2239 53.8726 39.044 53.2347 39.5777C53.1046 39.6884 52.9614 39.7795 52.8051 39.8576C52.8051 39.8576 52.6099 39.9227 52.7075 39.8966C52.5969 39.9227 52.6815 39.9162 52.5904 39.9227C52.4537 39.9357 52.3235 39.9357 52.1934 39.9357C51.2626 39.9357 50.3253 39.9357 49.3946 39.9357L49.6419 40.0268C49.6419 39.031 49.6354 38.0352 49.6419 37.0393C49.6484 36.1932 49.9999 35.3666 50.6572 34.8198C50.8004 34.7027 50.9567 34.5986 51.1259 34.527C51.1975 34.4944 51.1845 34.5009 51.2691 34.4814C51.2301 34.4879 51.1714 34.4944 51.3211 34.4749C51.3081 34.4749 51.4643 34.4619 51.4773 34.4619C51.8809 34.4488 52.2975 34.566 52.6555 34.7483C53.6513 35.2559 54.2436 36.2778 54.2566 37.3843C54.2566 37.6056 55.682 37.3973 55.6755 37.0068C55.6625 35.9198 55.0767 34.8914 54.1264 34.3447C53.0525 33.7199 51.7117 33.8045 50.5857 34.2406C49.5247 34.6506 48.607 35.4512 48.3206 36.5902C48.1709 37.1825 48.223 37.8204 48.223 38.4322C48.223 39.0896 48.223 39.7535 48.223 40.4108C48.223 40.4954 48.4443 40.502 48.4703 40.502C49.3099 40.502 50.1496 40.502 50.9957 40.502C52.343 40.502 53.7684 40.2611 54.7512 39.2523C55.337 38.6535 55.6755 37.8594 55.6755 37.0133C55.6755 36.7985 54.2566 36.9938 54.2566 37.3908L54.2501 37.3908Z" id="Path" fill="#07133B" stroke="none" />
    <path d="M20.5025 77.0158C20.2096 77.1655 20.522 77.0093 20.6131 76.9702C20.8475 76.8726 21.0817 76.7815 21.3226 76.6969C22.0906 76.4365 23.0604 76.2217 23.9261 76.0981C27.4082 75.5969 30.975 76.1111 34.3139 77.1655C34.6329 77.2696 35.0364 77.2241 35.3163 77.0288C35.4595 76.9312 35.7849 76.5927 35.4464 76.4886C31.8016 75.3365 27.9355 74.7833 24.1279 75.33C22.6048 75.5448 21.0102 75.8963 19.6303 76.6123C19.383 76.7424 19.2658 76.9767 19.5001 77.1525C19.7539 77.3412 20.2747 77.1395 20.5025 77.0158Z" id="Path" fill="#07133B" fill-opacity="0.3" stroke="none" />
    <path d="M20.5025 73.0324C20.2096 73.1821 20.522 73.0259 20.6131 72.9868C20.8475 72.8892 21.0817 72.7981 21.3226 72.7135C22.0906 72.4531 23.0604 72.2383 23.9261 72.1147C27.4082 71.6135 30.975 72.1277 34.3139 73.1821C34.6329 73.2862 35.0364 73.2407 35.3163 73.0454C35.4595 72.9478 35.7849 72.6093 35.4464 72.5052C31.8016 71.3531 27.9355 70.7999 24.1279 71.3466C22.6048 71.5614 21.0102 71.9129 19.6303 72.6289C19.383 72.759 19.2658 72.9933 19.5001 73.1691C19.7539 73.3578 20.2747 73.1561 20.5025 73.0324Z" id="Path" fill="#07133B" fill-opacity="0.3" stroke="none" />
    <path d="M20.5025 69.4787C20.2096 69.6284 20.522 69.4722 20.6131 69.4332C20.8475 69.3356 21.0817 69.2444 21.3226 69.1598C22.0906 68.8995 23.0604 68.6847 23.9261 68.561C27.4082 68.0598 30.975 68.574 34.3139 69.6284C34.6329 69.7326 35.0364 69.687 35.3163 69.4918C35.4595 69.3941 35.7849 69.0557 35.4464 68.9515C31.8016 67.7995 27.9355 67.2463 24.1279 67.793C22.6048 68.0078 21.0102 68.3593 19.6303 69.0752C19.383 69.2054 19.2658 69.4397 19.5001 69.6154C19.7539 69.8042 20.2747 69.6024 20.5025 69.4787Z" id="Path" fill="#07133B" fill-opacity="0.3" stroke="none" />
    <path d="M11.5399 71.8282L9.7891 71.8282C9.57431 71.8348 8.8323 71.9714 8.79324 72.2904C8.12936 78.4606 7.46544 84.6244 6.80806 90.7946C6.71042 91.6733 6.61934 92.552 6.52171 93.4307C6.47615 93.8602 7.30275 93.6259 7.4915 93.5608C19.5261 89.5775 32.3938 87.0261 45.0012 89.6491C45.3852 89.7272 46.6544 89.1219 45.8929 88.9592C35.7588 86.8569 25.3058 88.0154 15.367 90.5864C12.5357 91.3218 9.74348 92.1745 6.96426 93.0922L7.93413 93.2224C8.59802 87.0521 9.26186 80.8884 9.91924 74.7181C10.0169 73.8394 10.108 72.9608 10.2057 72.0821L9.20981 72.5377L10.9606 72.5377C11.4292 72.5312 12.4837 71.8282 11.5399 71.8282Z" id="Path" fill="#07133B" stroke="none" />
    <path d="M10.837 91.2568C11.0908 90.4236 11.9304 89.6231 12.5878 89.0243C13.8635 87.8592 15.3475 86.9024 16.9031 86.1539C21.674 83.8498 27.0958 83.4138 32.2637 84.4031C36.566 85.2297 40.6273 86.9675 44.4024 89.161C44.8059 89.3953 46.1077 88.8095 45.5284 88.471C39.1694 84.7741 31.8602 82.4179 24.4402 83.2576C19.9167 83.7717 15.341 85.4575 11.8458 88.432C10.9281 89.213 9.78906 90.2284 9.41807 91.4325C9.26186 91.9337 10.6873 91.7449 10.837 91.2568Z" id="Path" fill="#07133B" stroke="none" />
    <path d="M44.6954 89.2456C44.9752 89.2456 45.5024 89.1545 45.6261 88.8486C45.7432 88.5557 45.5284 88.393 45.229 88.393C44.9296 88.393 44.422 88.4841 44.2983 88.79C44.1812 89.0829 44.396 89.2456 44.6954 89.2456Z" id="Path" fill="#2D0D30" stroke="none" />
    <path d="M37.2104 10.9654C36.8003 8.45951 36.1429 5.99922 35.2447 3.62354C35.0104 3.00521 33.6045 3.40875 33.8258 4.00105C34.724 6.37673 35.3879 8.83702 35.7914 11.3429C35.8956 11.9677 37.3145 11.6162 37.2104 10.9654Z" id="Path" fill="#07133B" stroke="none" />
    <path d="M46.2769 10.3731C46.5763 7.01457 46.6219 3.64305 46.4071 0.278051C46.3746 -0.262172 44.9491 0.0502463 44.9882 0.655556C45.1965 3.94246 45.1444 7.23586 44.8515 10.5163C44.793 11.1606 46.2248 10.9198 46.2769 10.3666L46.2769 10.3731Z" id="Path" fill="#07133B" stroke="none" />
    <path d="M54.3934 11.0369C55.7016 8.9151 56.9122 6.73468 58.0187 4.50219C58.1358 4.26137 57.5305 4.33297 57.4459 4.35249C57.2051 4.39155 56.743 4.49569 56.6193 4.74952C55.5128 6.98201 54.3022 9.16243 52.994 11.2843C52.8508 11.5121 53.5017 11.447 53.5667 11.434C53.8336 11.3884 54.2371 11.2908 54.3934 11.0369Z" id="Path" fill="#07133B" stroke="none" />
    <path d="M76.1454 41.1788C77.8507 42.7669 78.9181 44.9018 79.1459 47.2254C79.3737 49.549 78.6252 52.504 76.5294 53.9359C75.5726 54.5868 73.6786 55.166 72.7283 54.1832C71.778 53.2004 72.3313 51.6383 73.1319 50.8247C75.0194 48.9047 78.3583 50.1804 80.2849 51.3975C82.4588 52.7708 84.099 54.8862 84.9061 57.3204C85.0948 57.8802 86.5008 57.4831 86.325 56.9429C85.4073 54.2028 83.5003 51.8596 80.9944 50.4147C78.4886 48.9697 74.7851 48.1497 72.3313 50.1869C71.2834 51.059 70.5284 52.491 70.9384 53.8708C71.3485 55.2507 72.8455 55.6217 74.1603 55.5566C77.3821 55.3938 79.7578 52.8164 80.4151 49.7898C81.1376 46.4639 79.927 42.8971 77.4536 40.593C77.0501 40.2155 75.7093 40.7688 76.1454 41.1788Z" id="Path" fill="#07133B" stroke="none" />
    <path d="M12.4902 32.7825C15.1611 32.7825 17.3262 30.6174 17.3262 27.9466C17.3262 25.2757 15.1611 23.1106 12.4902 23.1106C9.81941 23.1106 7.65424 25.2757 7.65424 27.9466C7.65424 30.6174 9.81941 32.7825 12.4902 32.7825Z" id="Path" fill="#9765ff" stroke="none" />
    <path d="M9.50922 60.1648C14.761 60.1648 19.0184 55.9073 19.0184 50.6555C19.0184 45.4037 14.761 41.1463 9.50922 41.1463C4.25742 41.1463 0 45.4037 0 50.6555C0 55.9073 4.25742 60.1648 9.50922 60.1648Z" id="Path" fill="#9765ff" stroke="none" />
  </g>
</svg>