<svg xmlns="http://www.w3.org/2000/svg" viewBox="0 0 86.84 94.68" style=""><defs><style>.cls-1,.cls-3,.cls-5{fill:none;stroke-miterlimit:10;}.cls-1{stroke:#0d153b;}.cls-2{fill:#07133b;}.cls-3{stroke:#2b142e;}.cls-4,.cls-6{fill:#9765ff;}.cls-4{fill-opacity:0.6;}.cls-5{stroke:#2c122f;}</style></defs><g id="Layer_2" data-name="Layer 2"><g id="Layer_1-2" data-name="Layer 1"><g id="_3" data-name="3"><path id="Path" class="cls-1 JNSBuiid_0" d="M46,89c3.89-3.45,8.35-6.62,13.5-7.79a18.93,18.93,0,0,1,13.1,2,34.66,34.66,0,0,1,7.55,5.64c.27.26,1.37,0,1.31-.44Q80.8,82.68,80.14,77q-.37-3.15-.73-6.3a3.23,3.23,0,0,0-.15-1A5.53,5.53,0,0,0,78,68.48q-.65-.58-1.32-1.14a27.58,27.58,0,0,0-2.56-1.88,20.88,20.88,0,0,0-10.27-3.62,22.63,22.63,0,0,0-11.1,2.57A36.47,36.47,0,0,0,47,68.11c-.49.38-1,.77-1.45,1.17-.28.22-.67.44-.76.78a1.14,1.14,0,0,0,0,.32V83.61c0,1.73-.1,3.49,0,5.22v.27c0,.37,1.36.13,1.36-.36v-19L46,70c4.18-3.56,9.1-6.79,14.69-7.36,4.84-.49,9.49,1.33,13.35,4.15a34.06,34.06,0,0,1,3.15,2.61c.36.34.69.51.8.95a25.42,25.42,0,0,1,.3,2.61c.35,3.09.7,6.17,1.06,9.27l.75,6.56,1.31-.44c-3.93-3.76-8.62-7-14.08-8A22.23,22.23,0,0,0,53.23,82.9a42.44,42.44,0,0,0-8.33,5.93c-.58.51.77.45,1.08.18Z"></path><path id="Path-2" data-name="Path" class="cls-1 JNSBuiid_1" d="M71.4,76.6a13,13,0,0,0-4.24-1.15,25.89,25.89,0,0,0-11.22,1.18c-.17.05-.71.21-.64.48s.64.14.79.09a23.51,23.51,0,0,1,10.49-1,12,12,0,0,1,3.67,1c.35.18,1.66-.35,1.15-.62Z"></path><path id="Path-3" data-name="Path" class="cls-1 JNSBuiid_2" d="M71.39,72.57a13.12,13.12,0,0,0-4.25-1.17,25.62,25.62,0,0,0-11.23,1.16c-.22.07-.69.26-.61.57s.6.26.82.19A23.46,23.46,0,0,1,66.6,72.26a11.68,11.68,0,0,1,3.67,1C70.7,73.51,72,72.89,71.39,72.57Z"></path><path id="Path-4" data-name="Path" class="cls-1 JNSBuiid_3" d="M71.23,68.87A13.31,13.31,0,0,0,67,67.72a25.56,25.56,0,0,0-11.15,1.15c-.86.28-.6,1.3.27,1a23.66,23.66,0,0,1,10.56-1.07,11.68,11.68,0,0,1,3.71,1.05c.61.31,1.62-.57.81-1Z"></path><path id="Path-5" data-name="Path" class="cls-1 JNSBuiid_4" d="M79.59,72.81h1.75l-.65-.35q1,9.27,2,18.51c.1.88.19,1.76.29,2.64l1.11-.69c-9.67-3.2-19.8-5.54-30-5.11a53.17,53.17,0,0,0-8.71,1.08c-.89.19-.61,1.19.28,1,12.64-2.63,25.61,0,37.68,4,.46.16,1.17-.12,1.11-.68q-1-9.26-2-18.51c-.09-.88-.18-1.75-.28-2.63,0-.29-.44-.35-.65-.35H79.71C78.88,71.73,78.63,72.8,79.59,72.81Z"></path><path id="Path-6" data-name="Path" class="cls-1 JNSBuiid_5" d="M81.42,91.14a9.47,9.47,0,0,0-2.64-2.56,24.73,24.73,0,0,0-5.16-2.85,29.15,29.15,0,0,0-16.41-1.67,35.67,35.67,0,0,0-11.74,4.57.4.4,0,0,0-.09.68c.27.23.75,0,1-.1A30.64,30.64,0,0,1,65.2,84.68a26.17,26.17,0,0,1,12.06,4.38,9.54,9.54,0,0,1,2.86,2.69C80.42,92.25,81.78,91.75,81.42,91.14Z"></path><path id="Path-7" data-name="Path" class="cls-2 JNSBuiid_6" d="M45.16,89.73c.45,0,1.47-.65.56-.65C45.28,89.08,44.25,89.73,45.16,89.73Z"></path><path id="Path-8" data-name="Path" class="cls-3 JNSBuiid_7" d="M46,88.94c-4.17-3.7-9-7-14.54-8.18a20.7,20.7,0,0,0-14,2.14,36.11,36.11,0,0,0-7.91,5.89l1.26.12,1.71-15,.35-3.09a2.15,2.15,0,0,1,.07-.62c0-.08.65-.52.8-.66.55-.5,1.12-1,1.71-1.47,3.73-3,8.21-5.2,13.1-5.07,6.23.17,11.77,3.69,16.37,7.61l-.16-.33v19c0,.68,1.38.46,1.38-.12V71.33a6,6,0,0,0,0-1.12c-.07-.34-.38-.5-.65-.74-.52-.44-1-.86-1.59-1.27-1-.74-2-1.44-3-2.09a24.29,24.29,0,0,0-11.22-4A19.91,19.91,0,0,0,19,64.54,30,30,0,0,0,14,68c-.38.33-.76.66-1.13,1s-1,.73-1.2,1.16a1.13,1.13,0,0,0-.06.36c-.25,1.7-.39,3.42-.59,5.12C10.48,80,9.91,84.38,9.48,88.74a2.48,2.48,0,0,1,0,.27c-.08.67,1,.36,1.26.12,3.69-3.52,8.08-6.64,13.19-7.59a20.3,20.3,0,0,1,13.4,2.6,41.86,41.86,0,0,1,7.63,5.54c.43.38,1.63-.25,1-.76Z"></path><path id="Path-9" data-name="Path" class="cls-4 JNSBuiid_8" d="M33.62,63.52H57.27v1.79a7.44,7.44,0,0,1-7.44,7.44H41.06a7.44,7.44,0,0,1-7.44-7.44Z"></path><path id="Path-10" data-name="Path" class="cls-5 JNSBuiid_9" d="M34.66,57A22,22,0,0,1,24.18,37.49a21.71,21.71,0,0,1,10-17.37A21.27,21.27,0,0,1,54.48,19,21.71,21.71,0,0,1,56.36,57.1c-.24.15-.37.39-.12.58s.78,0,1-.12A22.65,22.65,0,0,0,68.14,37.5,22.4,22.4,0,0,0,57.39,19.31,23.23,23.23,0,0,0,36,18.2,22.32,22.32,0,0,0,31.13,56a23,23,0,0,0,2.41,1.67C34,57.94,35.25,57.34,34.66,57Z"></path><path id="Path-11" data-name="Path" class="cls-1 JNSBuiid_10" d="M33.34,57.48c0,2.56,0,5.13,0,7.7a7.9,7.9,0,0,0,7.85,8c2.55,0,5.11,0,7.66,0a8.94,8.94,0,0,0,5.51-1.66,8,8,0,0,0,3.2-5.81c.16-2.76,0-5.57,0-8.33a.44.44,0,0,0-.46-.42H34.31c-.3,0-.8.08-.92.42a.4.4,0,0,0,.42.54H56.6l-.46-.42v7.39a7.59,7.59,0,0,1-1.35,4.67,6.5,6.5,0,0,1-5.17,2.66c-2.39,0-4.78,0-7.17,0a7.63,7.63,0,0,1-5.14-1.59,7.18,7.18,0,0,1-2.54-5.43c0-2.61,0-5.23,0-7.84,0-.69-1.43-.45-1.43.13Z"></path><path id="Path-12" data-name="Path" class="cls-5 JNSBuiid_11" d="M44.74,72.76v3.9c0,.3.37.34.61.3a1.33,1.33,0,0,0,.54-.18c.09-.06.26-.18.26-.3V72.59c0-.31-.36-.35-.61-.31a1.25,1.25,0,0,0-.53.19C44.92,72.52,44.74,72.64,44.74,72.76Z"></path><path id="Path-13" data-name="Path" class="cls-1 JNSBuiid_12" d="M34,63.46h22.8c.83,0,1.07-1.11.1-1.11H34.1C33.27,62.35,33,63.46,34,63.46Z"></path><path id="Path-14" data-name="Path" class="cls-1 JNSBuiid_13" d="M42.68,57.26V40.53L41.51,41h7l-.24-.09V57.64c0,.19,1.42,0,1.42-.38V40.53c0-.07-.23-.08-.25-.08h-7c-.24,0-1.17.12-1.17.46V57.64C41.26,57.83,42.68,57.64,42.68,57.26Z"></path><path id="Path-15" data-name="Path" class="cls-1 JNSBuiid_14" d="M38.67,35.05a2.76,2.76,0,0,1,2.57,2.47,18.9,18.9,0,0,1,0,2.38v1l1-.56h-3a2.81,2.81,0,0,1-2.48-3.68,2.64,2.64,0,0,1,.83-1.22,1.93,1.93,0,0,1,.53-.31,1.45,1.45,0,0,1,.52-.08,1.21,1.21,0,0,0,.94-.37c.18-.27-.15-.37-.37-.37a4.29,4.29,0,0,0-3.33,1.55,3.26,3.26,0,0,0-.5,3.07A3.38,3.38,0,0,0,37.78,41a8.28,8.28,0,0,0,1.93.1h2c.31,0,1-.15,1-.56V38.11a7.94,7.94,0,0,0,0-1.09,3.26,3.26,0,0,0-1-1.85,3.57,3.57,0,0,0-2.37-.85,1.21,1.21,0,0,0-.94.37c-.17.27.16.36.37.36Z"></path><path id="Path-16" data-name="Path" class="cls-1 JNSBuiid_15" d="M54.25,37.89a2.9,2.9,0,0,1-1,2.19,2.36,2.36,0,0,1-.42.28s-.2.06-.1,0c-.11,0,0,0-.12,0a2.75,2.75,0,0,1-.4,0h-2.8l.25.09v-3a2.91,2.91,0,0,1,1-2.22,1.75,1.75,0,0,1,.47-.29.29.29,0,0,1,.14-.05h.21a2.57,2.57,0,0,1,1.18.29,3,3,0,0,1,1.6,2.63c0,.23,1.42,0,1.42-.37a3.16,3.16,0,0,0-1.55-2.67,4.14,4.14,0,0,0-3.54-.1,3.53,3.53,0,0,0-2.27,2.35,7.53,7.53,0,0,0-.1,1.84v2c0,.09.22.09.25.09H51a5.06,5.06,0,0,0,3.75-1.25,3.18,3.18,0,0,0,.93-2.24c0-.21-1.42,0-1.42.38Z"></path><path id="Path-17" data-name="Path" class="cls-1 JNSBuiid_16" d="M20.5,77.52c-.29.15,0,0,.11,0,.24-.1.47-.19.71-.27a15.08,15.08,0,0,1,2.61-.6,23.45,23.45,0,0,1,10.38,1.07,1.24,1.24,0,0,0,1-.14c.14-.1.46-.44.13-.54a25.6,25.6,0,0,0-11.32-1.16,14.08,14.08,0,0,0-4.5,1.28c-.25.13-.36.37-.13.54S20.27,77.64,20.5,77.52Z"></path><path id="Path-18" data-name="Path" class="cls-1 JNSBuiid_17" d="M20.5,73.53c-.29.15,0,0,.11,0l.71-.28a16.06,16.06,0,0,1,2.61-.6,23.6,23.6,0,0,1,10.38,1.07,1.2,1.2,0,0,0,1-.13c.14-.1.46-.44.13-.54a25.45,25.45,0,0,0-11.32-1.16,13.83,13.83,0,0,0-4.5,1.28c-.25.13-.36.36-.13.54S20.27,73.66,20.5,73.53Z"></path><path id="Path-19" data-name="Path" class="cls-1 JNSBuiid_18" d="M20.5,70c-.29.15,0,0,.11,0,.24-.09.47-.19.71-.27a15.08,15.08,0,0,1,2.61-.6,23.45,23.45,0,0,1,10.38,1.07,1.2,1.2,0,0,0,1-.14c.14-.1.46-.43.13-.54a25.75,25.75,0,0,0-11.32-1.16,14.09,14.09,0,0,0-4.5,1.29c-.25.13-.36.36-.13.54S20.27,70.1,20.5,70Z"></path><path id="Path-20" data-name="Path" class="cls-1 JNSBuiid_19" d="M11.54,72.33H9.79c-.22,0-1,.14-1,.46l-2,18.5c-.1.88-.19,1.76-.29,2.64,0,.43.78.2,1,.13,12-4,24.9-6.53,37.51-3.91.39.08,1.65-.53.89-.69-10.13-2.1-20.58-.94-30.52,1.63-2.83.73-5.63,1.58-8.41,2.5l1,.13q1-9.25,2-18.5c.1-.88.19-1.76.29-2.64l-1,.46H11C11.43,73,12.48,72.33,11.54,72.33Z"></path><path id="Path-21" data-name="Path" class="cls-3 JNSBuiid_20" d="M10.84,91.76a5.81,5.81,0,0,1,1.75-2.24,18.1,18.1,0,0,1,4.31-2.87A24.67,24.67,0,0,1,32.26,84.9,39,39,0,0,1,44.4,89.66c.41.24,1.71-.35,1.13-.69-6.36-3.7-13.67-6-21.09-5.21a23.65,23.65,0,0,0-12.59,5.17,7.31,7.31,0,0,0-2.43,3C9.26,92.43,10.69,92.24,10.84,91.76Z"></path><path id="Path-22" data-name="Path" class="cls-5 JNSBuiid_21" d="M44.7,89.75c.28,0,.8-.1.93-.4s-.1-.46-.4-.46-.81.09-.93.4S44.4,89.75,44.7,89.75Z"></path><path id="Path-23" data-name="Path" class="cls-1 JNSBuiid_22" d="M37.21,11.47a38.17,38.17,0,0,0-2-7.35c-.23-.61-1.64-.21-1.41.38a38.24,38.24,0,0,1,2,7.34C35.9,12.47,37.31,12.12,37.21,11.47Z"></path><path id="Path-24" data-name="Path" class="cls-1 JNSBuiid_23" d="M46.28,10.87A66.65,66.65,0,0,0,46.41.78c0-.54-1.46-.23-1.42.38A64.93,64.93,0,0,1,44.85,11c-.06.64,1.37.4,1.43-.15Z"></path><path id="Path-25" data-name="Path" class="cls-1 JNSBuiid_24" d="M54.39,11.54C55.7,9.42,56.91,7.23,58,5c.12-.24-.49-.17-.57-.15-.24,0-.71.15-.83.4Q55,8.6,53,11.78c-.14.23.51.17.58.15A1.2,1.2,0,0,0,54.39,11.54Z"></path><path id="Path-26" data-name="Path" class="cls-1 JNSBuiid_25" d="M76.15,41.68a9.55,9.55,0,0,1,3,6c.22,2.32-.52,5.27-2.62,6.71-1,.65-2.85,1.23-3.8.24s-.4-2.54.4-3.36c1.89-1.92,5.23-.64,7.15.58a11.19,11.19,0,0,1,4.63,5.92c.18.56,1.59.16,1.41-.38A11.91,11.91,0,0,0,81,50.91c-2.5-1.44-6.2-2.26-8.66-.22a3.63,3.63,0,0,0-1.39,3.68c.41,1.38,1.91,1.75,3.22,1.69a7,7,0,0,0,6.26-5.77,9.91,9.91,0,0,0-3-9.2C77.05,40.72,75.71,41.27,76.15,41.68Z"></path><path id="Path-27" data-name="Path" class="cls-6 JNSBuiid_26" d="M12.49,33.28a4.84,4.84,0,1,0-4.84-4.83A4.84,4.84,0,0,0,12.49,33.28Z"></path><path id="Path-28" data-name="Path" class="cls-6 JNSBuiid_27" d="M9.51,60.66A9.51,9.51,0,1,0,0,51.16,9.5,9.5,0,0,0,9.51,60.66Z"></path></g></g></g><style data-made-with="vivus-instant">.JNSBuiid_0{stroke-dasharray:238 240;stroke-dashoffset:239;animation:JNSBuiid_draw_0 10400ms linear 0ms infinite,JNSBuiid_fade 10400ms linear 0ms infinite;}.JNSBuiid_1{stroke-dasharray:34 36;stroke-dashoffset:35;animation:JNSBuiid_draw_1 10400ms linear 0ms infinite,JNSBuiid_fade 10400ms linear 0ms infinite;}.JNSBuiid_2{stroke-dasharray:34 36;stroke-dashoffset:35;animation:JNSBuiid_draw_2 10400ms linear 0ms infinite,JNSBuiid_fade 10400ms linear 0ms infinite;}.JNSBuiid_3{stroke-dasharray:35 37;stroke-dashoffset:36;animation:JNSBuiid_draw_3 10400ms linear 0ms infinite,JNSBuiid_fade 10400ms linear 0ms infinite;}.JNSBuiid_4{stroke-dasharray:133 135;stroke-dashoffset:134;animation:JNSBuiid_draw_4 10400ms linear 0ms infinite,JNSBuiid_fade 10400ms linear 0ms infinite;}.JNSBuiid_5{stroke-dasharray:80 82;stroke-dashoffset:81;animation:JNSBuiid_draw_5 10400ms linear 0ms infinite,JNSBuiid_fade 10400ms linear 0ms infinite;}.JNSBuiid_6{stroke-dasharray:4 6;stroke-dashoffset:5;animation:JNSBuiid_draw_6 10400ms linear 0ms infinite,JNSBuiid_fade 10400ms linear 0ms infinite;}.JNSBuiid_7{stroke-dasharray:238 240;stroke-dashoffset:239;animation:JNSBuiid_draw_7 10400ms linear 0ms infinite,JNSBuiid_fade 10400ms linear 0ms infinite;}.JNSBuiid_8{stroke-dasharray:60 62;stroke-dashoffset:61;animation:JNSBuiid_draw_8 10400ms linear 0ms infinite,JNSBuiid_fade 10400ms linear 0ms infinite;}.JNSBuiid_9{stroke-dasharray:233 235;stroke-dashoffset:234;animation:JNSBuiid_draw_9 10400ms linear 0ms infinite,JNSBuiid_fade 10400ms linear 0ms infinite;}.JNSBuiid_10{stroke-dasharray:145 147;stroke-dashoffset:146;animation:JNSBuiid_draw_10 10400ms linear 0ms infinite,JNSBuiid_fade 10400ms linear 0ms infinite;}.JNSBuiid_11{stroke-dasharray:12 14;stroke-dashoffset:13;animation:JNSBuiid_draw_11 10400ms linear 0ms infinite,JNSBuiid_fade 10400ms linear 0ms infinite;}.JNSBuiid_12{stroke-dasharray:50 52;stroke-dashoffset:51;animation:JNSBuiid_draw_12 10400ms linear 0ms infinite,JNSBuiid_fade 10400ms linear 0ms infinite;}.JNSBuiid_13{stroke-dasharray:88 90;stroke-dashoffset:89;animation:JNSBuiid_draw_13 10400ms linear 0ms infinite,JNSBuiid_fade 10400ms linear 0ms infinite;}.JNSBuiid_14{stroke-dasharray:47 49;stroke-dashoffset:48;animation:JNSBuiid_draw_14 10400ms linear 0ms infinite,JNSBuiid_fade 10400ms linear 0ms infinite;}.JNSBuiid_15{stroke-dasharray:45 47;stroke-dashoffset:46;animation:JNSBuiid_draw_15 10400ms linear 0ms infinite,JNSBuiid_fade 10400ms linear 0ms infinite;}.JNSBuiid_16{stroke-dasharray:35 37;stroke-dashoffset:36;animation:JNSBuiid_draw_16 10400ms linear 0ms infinite,JNSBuiid_fade 10400ms linear 0ms infinite;}.JNSBuiid_17{stroke-dasharray:35 37;stroke-dashoffset:36;animation:JNSBuiid_draw_17 10400ms linear 0ms infinite,JNSBuiid_fade 10400ms linear 0ms infinite;}.JNSBuiid_18{stroke-dasharray:35 37;stroke-dashoffset:36;animation:JNSBuiid_draw_18 10400ms linear 0ms infinite,JNSBuiid_fade 10400ms linear 0ms infinite;}.JNSBuiid_19{stroke-dasharray:132 134;stroke-dashoffset:133;animation:JNSBuiid_draw_19 10400ms linear 0ms infinite,JNSBuiid_fade 10400ms linear 0ms infinite;}.JNSBuiid_20{stroke-dasharray:81 83;stroke-dashoffset:82;animation:JNSBuiid_draw_20 10400ms linear 0ms infinite,JNSBuiid_fade 10400ms linear 0ms infinite;}.JNSBuiid_21{stroke-dasharray:4 6;stroke-dashoffset:5;animation:JNSBuiid_draw_21 10400ms linear 0ms infinite,JNSBuiid_fade 10400ms linear 0ms infinite;}.JNSBuiid_22{stroke-dasharray:20 22;stroke-dashoffset:21;animation:JNSBuiid_draw_22 10400ms linear 0ms infinite,JNSBuiid_fade 10400ms linear 0ms infinite;}.JNSBuiid_23{stroke-dasharray:24 26;stroke-dashoffset:25;animation:JNSBuiid_draw_23 10400ms linear 0ms infinite,JNSBuiid_fade 10400ms linear 0ms infinite;}.JNSBuiid_24{stroke-dasharray:19 21;stroke-dashoffset:20;animation:JNSBuiid_draw_24 10400ms linear 0ms infinite,JNSBuiid_fade 10400ms linear 0ms infinite;}.JNSBuiid_25{stroke-dasharray:87 89;stroke-dashoffset:88;animation:JNSBuiid_draw_25 10400ms linear 0ms infinite,JNSBuiid_fade 10400ms linear 0ms infinite;}.JNSBuiid_26{stroke-dasharray:31 33;stroke-dashoffset:32;animation:JNSBuiid_draw_26 10400ms linear 0ms infinite,JNSBuiid_fade 10400ms linear 0ms infinite;}.JNSBuiid_27{stroke-dasharray:60 62;stroke-dashoffset:61;animation:JNSBuiid_draw_27 10400ms linear 0ms infinite,JNSBuiid_fade 10400ms linear 0ms infinite;}@keyframes JNSBuiid_draw{100%{stroke-dashoffset:0;}}@keyframes JNSBuiid_fade{0%{stroke-opacity:1;}96.15384615384616%{stroke-opacity:1;}100%{stroke-opacity:0;}}@keyframes JNSBuiid_draw_0{0%{stroke-dashoffset: 239}11.117933832012207%{ stroke-dashoffset: 0;}100%{ stroke-dashoffset: 0;}}@keyframes JNSBuiid_draw_1{11.117933832012207%{stroke-dashoffset: 35}12.746083137955416%{ stroke-dashoffset: 0;}100%{ stroke-dashoffset: 0;}}@keyframes JNSBuiid_draw_2{12.746083137955416%{stroke-dashoffset: 35}14.374232443898627%{ stroke-dashoffset: 0;}100%{ stroke-dashoffset: 0;}}@keyframes JNSBuiid_draw_3{14.374232443898627%{stroke-dashoffset: 36}16.048900301440213%{ stroke-dashoffset: 0;}100%{ stroke-dashoffset: 0;}}@keyframes JNSBuiid_draw_4{16.048900301440213%{stroke-dashoffset: 134}22.28238621562279%{ stroke-dashoffset: 0;}100%{ stroke-dashoffset: 0;}}@keyframes JNSBuiid_draw_5{22.28238621562279%{stroke-dashoffset: 81}26.05038889509136%{ stroke-dashoffset: 0;}100%{ stroke-dashoffset: 0;}}@keyframes JNSBuiid_draw_6{26.050388895091363%{stroke-dashoffset: 5}26.282981653083247%{ stroke-dashoffset: 0;}100%{ stroke-dashoffset: 0;}}@keyframes JNSBuiid_draw_7{26.282981653083247%{stroke-dashoffset: 239}37.400915485095446%{ stroke-dashoffset: 0;}100%{ stroke-dashoffset: 0;}}@keyframes JNSBuiid_draw_8{37.40091548509545%{stroke-dashoffset: 61}40.23854713259648%{ stroke-dashoffset: 0;}100%{ stroke-dashoffset: 0;}}@keyframes JNSBuiid_draw_9{40.23854713259648%{stroke-dashoffset: 234}51.1238882066168%{ stroke-dashoffset: 0;}100%{ stroke-dashoffset: 0;}}@keyframes JNSBuiid_draw_10{51.1238882066168%{stroke-dashoffset: 146}57.915596739979904%{ stroke-dashoffset: 0;}100%{ stroke-dashoffset: 0;}}@keyframes JNSBuiid_draw_11{57.915596739979904%{stroke-dashoffset: 13}58.52033791075881%{ stroke-dashoffset: 0;}100%{ stroke-dashoffset: 0;}}@keyframes JNSBuiid_draw_12{58.52033791075881%{stroke-dashoffset: 51}60.89278404227606%{ stroke-dashoffset: 0;}100%{ stroke-dashoffset: 0;}}@keyframes JNSBuiid_draw_13{60.89278404227606%{stroke-dashoffset: 89}65.03293513453164%{ stroke-dashoffset: 0;}100%{ stroke-dashoffset: 0;}}@keyframes JNSBuiid_draw_14{65.03293513453166%{stroke-dashoffset: 48}67.26582561125377%{ stroke-dashoffset: 0;}100%{ stroke-dashoffset: 0;}}@keyframes JNSBuiid_draw_15{67.26582561125377%{stroke-dashoffset: 46}69.40567898477913%{ stroke-dashoffset: 0;}100%{ stroke-dashoffset: 0;}}@keyframes JNSBuiid_draw_16{69.40567898477913%{stroke-dashoffset: 36}71.08034684232074%{ stroke-dashoffset: 0;}100%{ stroke-dashoffset: 0;}}@keyframes JNSBuiid_draw_17{71.08034684232072%{stroke-dashoffset: 36}72.75501469986231%{ stroke-dashoffset: 0;}100%{ stroke-dashoffset: 0;}}@keyframes JNSBuiid_draw_18{72.75501469986231%{stroke-dashoffset: 36}74.4296825574039%{ stroke-dashoffset: 0;}100%{ stroke-dashoffset: 0;}}@keyframes JNSBuiid_draw_19{74.4296825574039%{stroke-dashoffset: 133}80.61664991998808%{ stroke-dashoffset: 0;}100%{ stroke-dashoffset: 0;}}@keyframes JNSBuiid_draw_20{80.6166499199881%{stroke-dashoffset: 82}84.43117115105505%{ stroke-dashoffset: 0;}100%{ stroke-dashoffset: 0;}}@keyframes JNSBuiid_draw_21{84.43117115105504%{stroke-dashoffset: 5}84.66376390904693%{ stroke-dashoffset: 0;}100%{ stroke-dashoffset: 0;}}@keyframes JNSBuiid_draw_22{84.66376390904693%{stroke-dashoffset: 21}85.64065349261286%{ stroke-dashoffset: 0;}100%{ stroke-dashoffset: 0;}}@keyframes JNSBuiid_draw_23{85.64065349261286%{stroke-dashoffset: 25}86.80361728257229%{ stroke-dashoffset: 0;}100%{ stroke-dashoffset: 0;}}@keyframes JNSBuiid_draw_24{86.80361728257229%{stroke-dashoffset: 20}87.73398831453983%{ stroke-dashoffset: 0;}100%{ stroke-dashoffset: 0;}}@keyframes JNSBuiid_draw_25{87.73398831453984%{stroke-dashoffset: 88}91.82762085519705%{ stroke-dashoffset: 0;}100%{ stroke-dashoffset: 0;}}@keyframes JNSBuiid_draw_26{91.82762085519705%{stroke-dashoffset: 32}93.31621450634513%{ stroke-dashoffset: 0;}100%{ stroke-dashoffset: 0;}}@keyframes JNSBuiid_draw_27{93.31621450634513%{stroke-dashoffset: 61}96.15384615384616%{ stroke-dashoffset: 0;}100%{ stroke-dashoffset: 0;}}</style></svg>