<svg width="60" height="60" viewBox="0 0 60 60" xmlns="http://www.w3.org/2000/svg">
    <g fill="#9765ff" fill-rule="nonzero">
        <path d="M52.857 5.714H24.286c-.79 0-1.429.64-1.429 1.429v28.571c0 .79.64 1.429 1.429 1.429h28.571c.79 0 1.429-.64 1.429-1.429V7.143c0-.79-.64-1.429-1.429-1.429zM38.571 13.81c6.02 0 9.677 6.658 9.829 6.941.229.423.229.932 0 1.355-.152.285-3.81 6.942-9.829 6.942s-9.677-6.658-9.83-6.942a1.429 1.429 0 0 1 0-1.355c.153-.285 3.81-6.941 9.83-6.941zm0 2.857c-3.373 0-5.93 3.303-6.895 4.762.964 1.458 3.524 4.761 6.895 4.761 3.372 0 5.93-3.302 6.896-4.761-.964-1.459-3.521-4.762-6.896-4.762zm0 2.857a1.905 1.905 0 1 1 0 3.81 1.905 1.905 0 0 1 0-3.81z"/>
        <path d="M56.667 0A3.333 3.333 0 0 1 60 3.333v36.19a3.333 3.333 0 0 1-3.333 3.334H3.333A3.333 3.333 0 0 1 0 39.524V3.334A3.333 3.333 0 0 1 3.333 0zm0 2.857H3.333a.476.476 0 0 0-.476.476v36.19c0 .264.213.477.476.477h53.334a.476.476 0 0 0 .476-.476V3.334a.476.476 0 0 0-.476-.477zM15.714 31.905a1.429 1.429 0 1 1 0 2.857H10a1.429 1.429 0 0 1 0-2.857zm-2.857-17.143A7.15 7.15 0 0 1 20 21.905a7.143 7.143 0 1 1-7.143-7.143zm1.64 3.183a4.286 4.286 0 1 0-3.28 7.92 4.286 4.286 0 0 0 3.28-7.92zm1.217-8.897a1.429 1.429 0 0 1 0 2.857H10a1.429 1.429 0 1 1 0-2.857zm40 39.523h-1.428v-1.428c0-.79-.64-1.429-1.429-1.429H9.047A1.59 1.59 0 0 0 8.19 46L.571 51.714a1.429 1.429 0 0 0 0 2.286l7.62 5.714c.25.178.549.278.857.286h43.81c.788 0 1.428-.64 1.428-1.429v-1.428h1.428a4.286 4.286 0 1 0 0-8.572zm-45.238 0h2.857v8.572h-2.857V48.57zm5.714 0h29.524v8.572H16.19V48.57zM7.62 50v5.714l-3.81-2.857L7.62 50zm43.81 7.143H48.57V48.57h2.858v8.572zm4.285-2.857h-1.428v-2.857h1.428a1.429 1.429 0 0 1 0 2.857z" opacity=".4"/>
    </g>
</svg>
