<svg id="Group" xmlns="http://www.w3.org/2000/svg" width="19.553" height="20" viewBox="0 0 19.553 20">
  <path id="Path" d="M6.609,9.4A10.465,10.465,0,0,0,9.4,0H0V3.888H5.349a4.417,4.417,0,0,1-1.99,2.99Z" transform="translate(9.976 8.184)" fill="#4285f4"/>
  <path id="Path-2" data-name="Path" d="M0,2.57A10.077,10.077,0,0,0,7.015,7.892a10.077,10.077,0,0,0,8.521-2.224l-3.25-2.519a6.013,6.013,0,0,1-5.262.629A6.013,6.013,0,0,1,3.309,0Z" transform="translate(1.049 11.913)" fill="#34a853"/>
  <path id="Path-3" data-name="Path" d="M4.358,6.408a5.978,5.978,0,0,1,0-3.829L1.049,0a10.145,10.145,0,0,0,0,8.986Z" transform="translate(0 5.505)" fill="#fbbc02"/>
  <path id="Path-4" data-name="Path" d="M3.309,8.083c1.159-3.628,6.088-5.727,9.4-2.629l2.889-2.83A9.909,9.909,0,0,0,0,5.505Z" transform="translate(1.049)" fill="#ea4335"/>
</svg>
