<svg id="Group" xmlns="http://www.w3.org/2000/svg" width="20" height="20" viewBox="0 0 20 20">
  <path id="Path" d="M16,0a4,4,0,0,1,4,4V16a4,4,0,0,1-4,4H4a4,4,0,0,1-4-4V4A4,4,0,0,1,4,0Z" fill="#174cca"/>
  <path id="Shape" d="M9.506,12V8.087a3.648,3.648,0,0,0-.161-1.392,1.1,1.1,0,0,0-1.124-.724,1.269,1.269,0,0,0-1.232.643A3.028,3.028,0,0,0,6.72,8.033V12H4.231V3.99H6.64v1.1h.027A2.164,2.164,0,0,1,7.5,4.2a2.9,2.9,0,0,1,1.526-.428,2.69,2.69,0,0,1,2.436,1.1A5.255,5.255,0,0,1,12,7.6V12ZM.187,12V3.99h2.49V12ZM.428,2.463A1.476,1.476,0,0,1,0,1.446,1.45,1.45,0,0,1,.723.187a1.492,1.492,0,0,1,1.446,0,1.45,1.45,0,0,1,.723,1.259A1.463,1.463,0,0,1,1.446,2.892,1.474,1.474,0,0,1,.428,2.463Z" transform="translate(5 3)" fill="#fff"/>
</svg>
