<svg width="17" height="32" viewBox="0 0 17 32" xmlns="http://www.w3.org/2000/svg">
    <path d="M8.398 23.804a.66.66 0 0 1 .646.497c.02.059.027.117.027.183v6.837a.679.679 0 1 1-1.358 0v-6.824a.682.682 0 0 1 .686-.692zm-2.75 0c.373 0 .68.3.68.68v3.415a.679.679 0 1 1-1.358 0v-3.415c0-.373.3-.68.679-.68zm5.5 0c.378 0 .685.3.678.68v3.415a.679.679 0 1 1-1.358 0v-3.415c0-.373.3-.68.68-.68zM7.92.191a.699.699 0 0 1 .96 0c4.193 4.192 6.19 10.024 5.675 15.745a8.356 8.356 0 0 1 2.246 5.714 8.39 8.39 0 0 1-2.318 5.785c-.307.333-1.286.3-1.15-.64.066-.45.177-.875.177-1.3 0-1.057-.32-2.063-.914-2.912a.694.694 0 0 1-.327.085H4.532a.694.694 0 0 1-.327-.085 5.052 5.052 0 0 0-.914 2.913c0 .424.098.855.177 1.3.15.848-.784 1.025-1.15.64A8.35 8.35 0 0 1 0 21.65c0-2.142.797-4.154 2.246-5.714C1.731 10.208 3.73 4.383 7.921.19zM2.508 17.803a6.99 6.99 0 0 0-1.143 3.847c0 1.025.215 2.017.633 2.925A6.343 6.343 0 0 1 3.5 21.277c-.274-.698-.986-3.422-.992-3.474zm11.787 0c-.007.04-.614 2.501-.993 3.474a6.447 6.447 0 0 1 1.502 3.298c.412-.908.634-1.9.634-2.925 0-1.391-.399-2.717-1.143-3.847zM11.977 7.342H4.819c-1.743 4.42-1.763 9.456.157 13.961h6.844c1.92-4.505 1.9-9.54.157-13.961zm-3.58-5.688a17.83 17.83 0 0 0-2.97 4.336h5.949a18.171 18.171 0 0 0-2.978-4.336z" fill="#9765ff" fill-rule="nonzero"/>
</svg>
