<?xml version="1.0" encoding="utf-8"?>
<svg width="88.98535px" height="89px" viewBox="0 0 88.98535 89" version="1.1" xmlns:xlink="http://www.w3.org/1999/xlink" xmlns="http://www.w3.org/2000/svg">
  <g id="023-home-care">
    <g id="Group" transform="translate(0 38.697014)">
      <g id="Group" transform="translate(45.340046 5.3388267E-06)">
        <path d="M39.4052 0.907578C38.6224 0.924318 37.9004 1.21754 37.3419 1.69988C36.7633 2.19364 36.3616 2.89138 36.239 3.69134L35.0715 11.4423C34.8842 12.6853 34.4146 13.8688 33.6987 14.902L29.676 20.7081C29.2523 21.3212 28.6864 21.8036 28.0473 22.1589L28.0473 28.0361L6.37894 28.0361C3.5974 32.5681 1.71237 39.2574 0.919843 46.9783C0.7877 48.2658 1.77922 49.394 3.07348 49.394L14.4796 49.394C15.6756 49.394 16.6453 48.4244 16.6453 47.2282C16.6453 43.668 18.7717 40.4521 22.0474 39.0577L26.5982 37.1207C30.3987 35.5031 33.4639 32.5333 35.2008 28.7858L40.6269 17.0793C41.6674 14.8344 42.2756 12.4133 42.4195 9.94307L42.7306 4.60071C42.8437 2.66047 41.3482 0.866006 39.4052 0.907578L39.4052 0.907578Z" id="Path" fill="#000000" stroke="none" />
        <path d="M14.4794 50.303L3.07436 50.303C2.21055 50.303 1.38045 49.934 0.800439 49.292C0.21156 48.641 -0.0740102 47.763 0.0164501 46.8868C0.839461 38.8571 2.77283 32.1755 5.60547 27.5602C5.77043 27.2906 6.0631 27.1274 6.37882 27.1274L27.1386 27.1274L27.1386 22.1592C27.1386 21.8293 27.3177 21.526 27.605 21.3664C28.1584 21.0577 28.6054 20.6622 28.93 20.1921L32.9528 14.3832C33.5861 13.4697 34.0082 12.4055 34.1732 11.3075L35.3421 3.55633C35.4946 2.55949 35.9948 1.65489 36.7539 1.00925C37.4794 0.379578 38.4159 0.019511 39.3862 0C40.532 0.0266059 41.5749 0.423921 42.382 1.26112C43.2529 2.16218 43.7105 3.39847 43.6378 4.65249L43.3256 9.99674C43.1748 12.5882 42.5452 15.0998 41.4526 17.4606L36.0249 29.1672C34.1909 33.1262 30.968 36.2479 26.9523 37.956L22.4045 39.893C19.4565 41.147 17.5533 44.0257 17.5533 47.2273C17.5533 48.923 16.1751 50.303 14.4794 50.303L14.4794 50.303ZM6.8932 28.9437C4.37805 33.2663 2.58304 39.6748 1.82211 47.0712C1.78486 47.4384 1.9037 47.8038 2.14847 48.0752C2.38793 48.3412 2.71784 48.4867 3.07436 48.4867L14.4794 48.4867C15.173 48.4867 15.737 47.9226 15.737 47.2273C15.737 43.2967 18.0748 39.7617 21.6932 38.2221L26.241 36.2852C29.8435 34.7527 32.7311 31.9537 34.3754 28.4045L39.803 16.6979C40.7998 14.5446 41.3745 12.2547 41.5129 9.89032L41.825 4.54784C41.8676 3.79933 41.5945 3.05968 41.0747 2.52224C40.6224 2.05221 40.0247 1.83049 39.4252 1.8163C39.4252 1.8163 39.4252 1.8163 39.4234 1.8163C38.8771 1.82694 38.3485 2.02915 37.937 2.38567C37.506 2.7546 37.224 3.26544 37.1371 3.82771L35.9682 11.5771C35.7642 12.9482 35.2374 14.2768 34.4463 15.4173L30.4235 21.2262C30.0368 21.785 29.5437 22.2674 28.9549 22.6665L28.9549 28.0356C28.9549 28.5375 28.5487 28.9437 28.0467 28.9437L6.8932 28.9437Z" id="Shape" fill="#000000" stroke="none" />
      </g>
      <g id="Group">
        <g id="Group">
          <path d="M17.0467 37.1208L21.5975 39.0578C24.8732 40.4521 26.9996 43.6681 26.9996 47.2282L26.9996 47.2282C26.9996 48.4243 27.9692 49.394 29.1654 49.394L40.5714 49.394C41.8657 49.394 42.8572 48.2659 42.725 46.9783C41.8972 38.9127 39.8884 31.9458 36.8985 27.4174C34.1685 24.2348 27.2548 17.1064 23.4559 12.906C22.8397 12.2251 21.9887 11.8711 21.1242 11.8711C20.5455 11.8711 19.9634 12.0311 19.4425 12.358C17.8937 13.3383 17.5091 15.4282 18.6086 16.8956L23.5204 23.3868C23.7781 23.7274 23.4684 24.2038 23.0525 24.1063L17.0938 22.7097C15.8275 22.4885 14.7007 21.7669 13.9689 20.7081L9.94614 14.902C9.23029 13.8688 8.76072 12.6853 8.57348 11.4424L7.40583 3.69135C7.28327 2.89139 6.88161 2.19368 6.30299 1.69997C5.74448 1.21754 5.02249 0.924351 4.23962 0.907604C2.29663 0.866043 0.801215 2.66055 0.914226 4.6007L1.22541 9.94307C1.3693 12.4133 1.97746 14.8344 3.01803 17.0794L8.44408 28.7859C10.181 32.5333 13.2463 35.5031 17.0467 37.1208L17.0467 37.1208Z" id="Path" fill="#FFFFFF" stroke="none" />
          <path d="M40.571 50.303L29.1659 50.303C27.4702 50.303 26.092 48.923 26.092 47.2273C26.092 44.0258 24.1888 41.147 21.2426 39.893L16.6912 37.9561C16.6895 37.9561 16.6895 37.9561 16.6895 37.9561C12.6773 36.248 9.4562 33.1262 7.62039 29.1672L2.19278 17.4606C1.10016 15.0998 0.470485 12.5882 0.319718 9.99675L0.00754151 4.65427C-0.0651815 3.40025 0.390667 2.16396 1.26157 1.2629C2.06862 0.423927 3.1364 -0.00176828 4.25917 5.52046e-06C5.22585 0.0195166 6.16416 0.379584 6.89671 1.01103C7.65054 1.65844 8.15251 2.56127 8.30328 3.55456L9.47039 11.3075C9.63712 12.4055 10.0593 13.4697 10.6925 14.3867L14.7153 20.1904C15.306 21.0453 16.2301 21.6377 17.25 21.8151L22.0408 22.9379L17.885 17.4429C17.2074 16.5383 16.936 15.3871 17.1382 14.2821C17.3422 13.1735 18.0038 12.1926 18.9563 11.5896C20.5952 10.5661 22.8514 10.8836 24.1285 12.2955C25.7692 14.11 27.9917 16.4691 30.2053 18.8211C33.0663 21.8612 36.0249 25.0043 37.5893 26.8277C40.6526 31.4571 42.7739 38.5485 43.6271 46.8868C43.7176 47.763 43.4338 48.6392 42.8449 49.292C42.2649 49.934 41.4366 50.303 40.571 50.303ZM17.4025 36.2852L21.9521 38.2221C25.5705 39.7617 27.9083 43.2967 27.9083 47.2273C27.9083 47.9226 28.4724 48.4867 29.1659 48.4867L40.571 48.4867C40.9293 48.4867 41.2574 48.3412 41.4969 48.0752C41.7399 47.8038 41.8587 47.4384 41.8215 47.073C40.9967 39.0203 38.9782 32.218 36.142 27.9185C34.6733 26.2193 31.7289 23.0904 28.8821 20.0662C26.6596 17.7054 24.43 15.3357 22.7822 13.5141C22.0692 12.7301 20.8418 12.558 19.9248 13.1274C19.3944 13.4626 19.0397 13.9894 18.9261 14.6084C18.8126 15.2275 18.9581 15.8465 19.3359 16.3502L24.2438 22.8386C24.595 23.3033 24.6163 23.9188 24.2988 24.4065C23.983 24.8925 23.4119 25.1213 22.8443 24.9919L16.8864 23.5924C15.4425 23.3441 14.0874 22.4767 13.2218 21.2245L9.19901 15.4208C8.4097 14.2768 7.8829 12.9482 7.67538 11.5789L6.50826 3.82594C6.42135 3.26544 6.13933 2.75461 5.71186 2.38922C5.29503 2.02915 4.7682 1.82695 4.22192 1.8163C3.60644 1.80921 3.02111 2.05398 2.56881 2.52225C2.0491 3.06146 1.77595 3.79934 1.82029 4.54785L2.13247 9.89032C2.27079 12.2547 2.84551 14.5446 3.84235 16.6979L9.26818 28.4045C10.9142 31.9537 13.8018 34.7527 17.4025 36.2852Z" id="Shape" fill="#000000" stroke="none" />
        </g>
        <g id="Group" transform="translate(41.82976 5.3388267E-06)">
          <path d="M26.5973 37.1208L22.0465 39.0578C18.7708 40.4521 16.6444 43.6681 16.6444 47.2282L16.6444 47.2282C16.6444 48.4243 15.6748 49.394 14.4786 49.394L3.07263 49.394C1.77828 49.394 0.78679 48.2659 0.918946 46.9783C1.74681 38.9127 3.75562 31.9458 6.74548 27.4174C9.47549 24.2348 16.3892 17.1064 20.1881 12.906C20.8043 12.2251 21.6553 11.8711 22.5198 11.8711C23.0985 11.8711 23.6806 12.0311 24.2015 12.358C25.7503 13.3382 26.1349 15.4282 25.0354 16.8956L20.1236 23.3868C19.8659 23.7274 20.1756 24.2038 20.5915 24.1063L26.5502 22.7097C27.8165 22.4885 28.9433 21.7669 29.6751 20.7081L33.6979 14.902C34.4137 13.8688 34.8833 12.6853 35.0705 11.4424L36.2382 3.69135C36.3607 2.89138 36.7624 2.19367 37.341 1.69996C37.8995 1.21753 38.6215 0.924345 39.4044 0.907599C41.3474 0.866038 42.8428 2.66054 42.7298 4.60069L42.4186 9.94307C42.2747 12.4133 41.6665 14.8343 40.626 17.0794L35.1999 28.7859C33.463 32.5333 30.3977 35.5031 26.5973 37.1208L26.5973 37.1208Z" id="Path" fill="#FFFFFF" stroke="none" />
          <path d="M14.4777 50.303L3.07266 50.303C2.20708 50.303 1.37875 49.934 0.798738 49.292C0.209859 48.6392 -0.0739375 47.763 0.0165228 46.885C0.873234 38.5449 2.99284 31.4518 5.98867 26.9181C7.61696 25.006 10.572 21.8665 13.4312 18.8317C15.6466 16.4762 17.8727 14.1118 19.5134 12.2973C20.7958 10.8836 23.0537 10.5679 24.6838 11.5878C25.6398 12.1926 26.3014 13.1735 26.5054 14.2821C26.7076 15.3871 26.4362 16.5383 25.7622 17.4393L21.6028 22.9361L26.3422 21.8257C27.4136 21.6377 28.3377 21.0453 28.9283 20.1921L32.9511 14.3849C33.5844 13.4733 34.0065 12.409 34.1732 11.3058L35.3404 3.55633C35.4911 2.56127 35.9931 1.65844 36.7505 1.00925C37.4795 0.379578 38.4178 0.019511 39.3862 0C40.5037 0.0266059 41.575 0.423921 42.3821 1.26112C43.253 2.16395 43.7088 3.40024 43.6361 4.65427L43.3257 9.99674C43.1731 12.5953 42.5417 15.1069 41.4509 17.4606L36.025 29.1672C34.191 33.1244 30.9699 36.2462 26.9542 37.956C26.9542 37.956 26.9542 37.956 26.9524 37.956L22.401 39.893C19.4566 41.147 17.5534 44.0257 17.5534 47.2273C17.5534 48.923 16.1734 50.303 14.4777 50.303L14.4777 50.303ZM22.5198 12.7797C21.8884 12.7797 21.2835 13.0476 20.8596 13.5158C19.2136 15.3374 16.9787 17.7107 14.7527 20.0751C11.9094 23.0975 8.96854 26.2211 7.43604 28.009C4.66724 32.2127 2.65051 39.015 1.82218 47.0712C1.78493 47.4384 1.90377 47.8038 2.14677 48.0752C2.38623 48.3412 2.71437 48.4867 3.07266 48.4867L14.4777 48.4867C15.1713 48.4867 15.7371 47.9226 15.7371 47.2273C15.7371 43.295 18.0749 39.7617 21.6915 38.2221L26.2411 36.2852C29.8436 34.7509 32.7312 31.9537 34.3754 28.4045L39.8013 16.6979C40.7981 14.5499 41.3728 12.26 41.5129 9.89032L41.8233 4.54784C41.8677 3.79933 41.5945 3.06146 41.0748 2.52224C40.6243 2.05221 40.0425 1.83049 39.4235 1.8163C38.8754 1.82694 38.3486 2.02915 37.9353 2.38744C37.5043 2.7546 37.2223 3.26544 37.1354 3.82771L35.9683 11.5771C35.7607 12.9518 35.2339 14.2803 34.4446 15.4208L30.4218 21.2262C29.5562 22.4767 28.2011 23.3441 26.7058 23.603L20.7993 24.9901C20.2282 25.1302 19.6606 24.8925 19.3449 24.4065C19.0274 23.9187 19.0486 23.3033 19.3981 22.8385L24.3113 16.3467C24.6856 15.8465 24.831 15.2275 24.7175 14.6084C24.604 13.9894 24.2492 13.4626 23.7153 13.1256C23.3553 12.9003 22.942 12.7797 22.5198 12.7797L22.5198 12.7797Z" id="Shape" fill="#000000" stroke="none" />
        </g>
      </g>
    </g>
    <g id="Group" transform="translate(18.974869 0)">
      <g id="Group" transform="translate(4.4677525 0)">
        <path d="M44.9915 22.3753C44.426 23.0301 43.6075 23.3575 42.789 23.3129L42.789 44.0284C42.789 45.3529 41.6877 46.4541 40.3484 46.4541L6.22434 46.4541C4.87004 46.4541 3.78369 45.3529 3.78369 44.0284L3.78369 23.3129C3.739 23.3277 3.69441 23.3277 3.64972 23.3277C2.87593 23.3277 2.11694 23.0152 1.56632 22.3753C0.584064 21.2294 0.703145 19.5031 1.84907 18.506L21.4931 1.57047C22.5348 0.692489 24.0527 0.692489 25.0796 1.57047L44.7087 18.506C45.8547 19.5031 45.9886 21.2294 44.9915 22.3753Z" id="Path" fill="#000000" stroke="none" />
        <path d="M40.3483 47.3617L6.22346 47.3617C4.37878 47.3617 2.87643 45.8664 2.87643 44.0289L2.87643 24.156C2.10309 23.9946 1.40956 23.5866 0.877437 22.9676C-0.426255 21.4439 -0.257751 19.1363 1.25347 17.822L20.9011 0.882874C22.297 -0.294883 24.2995 -0.293109 25.6706 0.8811L45.3005 17.8184C46.8259 19.1452 46.9944 21.4546 45.6783 22.9694C45.1533 23.5777 44.4598 23.9839 43.6971 24.1471L43.6971 44.0289C43.6971 45.8664 42.1947 47.3617 40.3483 47.3617ZM3.88568 22.3823C4.06306 22.3823 4.22801 22.4497 4.38942 22.5703C4.62178 22.7405 4.69273 23.0261 4.69273 23.3135L4.69273 44.0289C4.69273 44.8643 5.37916 45.5454 6.22346 45.5454L40.3483 45.5454C41.1784 45.5454 41.8808 44.8501 41.8808 44.0289L41.8808 23.3135C41.8808 23.0634 41.9836 22.8257 42.1646 22.6536C42.3437 22.4834 42.5636 22.3698 42.8386 22.4071C43.36 22.4426 43.933 22.2102 44.3054 21.781C44.3054 21.781 44.3054 21.7792 44.3072 21.7792C44.967 21.02 44.8801 19.86 44.1121 19.1913L24.4876 2.25929C23.7958 1.66864 22.7812 1.67218 22.0788 2.26461L2.44187 19.1949C1.68448 19.8547 1.59934 21.0183 2.25563 21.7845C2.60682 22.1925 3.10347 22.4195 3.64978 22.4195C3.73137 22.3947 3.80941 22.3823 3.88568 22.3823L3.88568 22.3823Z" id="Shape" fill="#000000" stroke="none" />
      </g>
      <g id="Group" transform="translate(2.8761568 2.9040391)">
        <path d="M39.9102 17.7308L39.9102 41.1173C39.9102 42.4537 38.8208 43.5431 37.4699 43.5431L3.34863 43.5431C1.99774 43.5431 0.908298 42.4537 0.908298 41.1173L0.908298 17.7308L20.4165 0.909816L39.9102 17.7308Z" id="Path" fill="#FFFFFF" stroke="none" />
        <path d="M37.47 44.4506L3.3488 44.4506C1.50235 44.4506 0 42.9553 0 41.1177L0 17.7311C0 17.4668 0.115293 17.2167 0.315724 17.0429L19.8232 0.220829C20.1638 -0.0736098 20.6675 -0.0736098 21.0081 0.220829L40.5031 17.0429C40.7036 17.2167 40.8188 17.4668 40.8188 17.7311L40.8188 41.1177C40.8188 42.9553 39.3165 44.4506 37.47 44.4506ZM1.8163 18.1479L1.8163 41.1177C1.8163 41.9531 2.50451 42.6343 3.3488 42.6343L37.47 42.6343C38.3143 42.6343 39.0025 41.9531 39.0025 41.1177L39.0025 18.1461L20.4156 2.10808L1.8163 18.1479Z" id="Shape" fill="#9765ff" stroke="none" />
      </g>
      <g id="Group" transform="translate(0 0.008425268)">
        <path d="M3.64992 23.3232C2.87999 23.3232 2.11408 23.0005 1.57179 22.3718C0.582262 21.225 0.710807 19.493 1.85833 18.5041L21.5028 1.56575C22.5312 0.677987 24.0563 0.678657 25.0847 1.56642L44.7145 18.5048C45.8606 19.4943 45.9879 21.2257 44.9997 22.3725C44.0101 23.5194 42.2775 23.6466 41.1313 22.6571L23.2918 7.26387L5.43883 22.6577C4.92197 23.1043 4.28461 23.3232 3.64992 23.3232Z" id="Path" fill="#9765ff" stroke="none" />
        <path d="M42.9181 24.2327C42.0419 24.2327 41.2065 23.9223 40.5378 23.3441L23.2918 8.46247L6.03162 23.3458C4.56475 24.6105 2.14715 24.4314 0.884258 22.9645C-0.430076 21.4408 -0.259798 19.1314 1.26561 17.8153L20.9097 0.877996C22.2666 -0.292665 24.3206 -0.292665 25.6775 0.877996L45.3073 17.8171C46.831 19.1332 47.0012 21.4426 45.6887 22.9645C45.0519 23.7041 44.165 24.1511 43.1913 24.2221C43.099 24.2291 43.0086 24.2327 42.9181 24.2327ZM23.2918 6.35527C23.5029 6.35527 23.7139 6.428 23.8842 6.57522L41.7244 21.9694C42.0969 22.2905 42.5793 22.4554 43.0582 22.4111C43.5478 22.3738 43.993 22.1503 44.3123 21.7796C44.9721 21.0134 44.887 19.8534 44.1207 19.1918L24.4926 2.25441C23.8062 1.66021 22.7756 1.66553 22.0963 2.25264L2.45046 19.1918C2.07975 19.511 1.85626 19.9562 1.81901 20.4458C1.78354 20.9336 1.93963 21.4071 2.26067 21.7796C2.89389 22.514 4.1089 22.6062 4.845 21.9694L22.6994 6.57522C22.8696 6.428 23.0807 6.35527 23.2918 6.35527L23.2918 6.35527Z" id="Shape" fill="#9765ff" stroke="none" />
      </g>
      <g id="Group" transform="translate(17.760166 30.352606)">
        <path d="M11.061 1.45116L11.061 16.0995L0 16.0995L0 1.45116C0 0.645946 0.646001 0 1.45122 0L9.60101 0C10.4062 0 11.061 0.645946 11.061 1.45116Z" id="Path" fill="#9765ff" stroke="none" />
      </g>
      <g id="Group" transform="translate(6.596921 28.600407)">
        <path d="M7.82466 1.4534L7.82466 9.42741C7.82466 10.2338 7.17762 10.8809 6.37126 10.8809L1.45346 10.8809C0.647103 10.8809 0 10.2338 0 9.42741L0 1.4534C0 0.647044 0.647103 0 1.45346 0L6.37126 0C7.17762 0 7.82466 0.647044 7.82466 1.4534Z" id="Path" fill="#9765ff" stroke="none" />
        <path d="M33.4257 1.50153L33.4257 9.47554C33.4257 10.2819 32.7787 10.929 31.9723 10.929L27.0545 10.929C26.2482 10.929 25.6011 10.2819 25.6011 9.47554L25.6011 1.50153C25.6011 0.695174 26.2482 0.0481298 27.0545 0.0481298L31.9723 0.0481298C32.7787 0.0481298 33.4257 0.695174 33.4257 1.50153Z" id="Path" fill="#9765ff" stroke="none" />
      </g>
    </g>
    <path d="M41.7646 24.0103C44.2383 24.0103 46.2436 22.005 46.2436 19.5313C46.2436 17.0577 44.2383 15.0523 41.7646 15.0523C39.2909 15.0523 37.2856 17.0577 37.2856 19.5313C37.2856 22.005 39.2909 24.0103 41.7646 24.0103Z" id="Oval" fill="#9765ff" stroke="none" />
  </g>
</svg>