<?xml version="1.0" encoding="utf-8"?>
<svg width="89.32788px" height="89.00049px" viewBox="0 0 89.32788 89.00049" version="1.1" xmlns:xlink="http://www.w3.org/1999/xlink" xmlns="http://www.w3.org/2000/svg">
  <g id="046-puzzle-piece">
    <g id="Group" transform="translate(53.612274 11.274757)">
      <path d="M32.3796 9.64137L15.431 1.35066C13.2851 0.300981 10.6946 1.18953 9.64491 3.3354L8.63062 5.40894L8.63062 19.8772L1.55305 19.8772L1.35408 20.284C0.304404 22.4299 1.19306 25.0204 3.33894 26.0701L8.54927 28.6188C7.88138 29.0653 7.33802 29.6983 6.9619 30.4671C5.614 33.2226 7.07841 36.6184 10.2411 37.4073C12.2913 37.9186 14.5374 36.9661 15.6061 35.1432C16.1156 34.2744 16.3478 33.3269 16.2814 32.4011L20.2876 34.361C22.4334 35.4106 25.024 34.522 26.0737 32.3761L34.3644 15.4275C35.4142 13.2816 34.5255 10.6912 32.3796 9.64137L32.3796 9.64137Z" id="Path" fill="#000000" stroke="none" />
      <path d="M11.3514 38.4542C10.9063 38.4542 10.4594 38.4007 10.0205 38.2921C8.27215 37.8559 6.84068 36.6862 6.09467 35.0838C5.34956 33.4832 5.36648 31.6547 6.14275 30.0665C6.36085 29.6214 6.6297 29.2119 6.94038 28.8469L2.93796 26.8884C1.68186 26.2742 0.740013 25.2077 0.286002 23.8849C-0.16801 22.562 -0.0789879 21.1412 0.535263 19.8842L0.732891 19.4783C0.886009 19.1649 1.20382 18.9655 1.55278 18.9655L7.71932 18.9655L7.71932 5.40927C7.71932 5.27039 7.75137 5.1333 7.81191 5.00867L8.82586 2.93446C10.0962 0.340363 13.2378 -0.735022 15.8319 0.530869L32.7799 8.82236C35.3739 10.0918 36.452 13.2343 35.1834 15.8284L26.8928 32.7764C26.2777 34.0333 25.2112 34.9752 23.8875 35.4292C22.5637 35.8814 21.1429 35.796 19.8868 35.1799L17.0906 33.8108C16.9625 34.4268 16.7283 35.0322 16.3918 35.6037C15.3547 37.3752 13.3686 38.4542 11.3514 38.4542L11.3514 38.4542ZM2.1243 20.7887C1.76821 21.5827 1.72726 22.4676 2.01035 23.292C2.30591 24.1555 2.92016 24.8498 3.73916 25.2504L8.9496 27.8C9.24249 27.9442 9.43655 28.2327 9.45881 28.5585C9.48018 28.8825 9.32706 29.1959 9.05643 29.3757C8.52497 29.7318 8.08431 30.2481 7.78075 30.8677C7.24751 31.9573 7.23504 33.2143 7.74781 34.3146C8.2677 35.431 9.2318 36.2162 10.4621 36.5224C12.1215 36.939 13.9526 36.161 14.8188 34.6814C15.2345 33.9746 15.4259 33.209 15.3725 32.4666C15.3485 32.1407 15.5007 31.8274 15.7713 31.6458C16.0411 31.4624 16.3892 31.4357 16.682 31.5817L20.688 33.5419C21.5079 33.9425 22.4328 33.9995 23.2964 33.704C24.1581 33.4084 24.8542 32.7942 25.2548 31.9752L33.5454 15.0272C34.3725 13.3358 33.6701 11.2883 31.9787 10.4604L15.0307 2.16887C13.3375 1.33919 11.29 2.04602 10.4639 3.73565L9.54249 5.61936L9.54249 19.8771C9.54249 20.381 9.13477 20.7887 8.63091 20.7887L2.1243 20.7887Z" id="Shape" fill="#000000" stroke="none" />
    </g>
    <g id="Group" transform="translate(0 53.063763)">
      <g id="Group" transform="translate(10.519727 0)">
        <g id="Group" transform="translate(25.75312 0)">
          <path d="M45.8072 2.55957C45.0467 1.46107 43.8216 0.869663 42.5752 0.869663C41.7725 0.869663 40.9697 1.12314 40.2726 1.60895C34.927 5.402 29.3648 8.86046 23.3561 10.8956L23.3561 10.9436L23.2126 10.9436C16.7114 13.1182 9.67569 13.5816 1.8066 10.9436L0.911688 10.9436L0.911688 25.3889C7.03233 25.6033 13.1492 24.5012 18.7682 22.036C27.5771 18.1704 36.1112 13.4174 44.6453 8.22083C46.6098 7.03788 47.1379 4.4185 45.8072 2.55957L45.8072 2.55957Z" id="Path" fill="#FFDDAB" stroke="none" />
          <path d="M2.37332 26.3254C1.87569 26.3254 1.37806 26.3165 0.879536 26.3005C0.389025 26.2827 0 25.8803 0 25.3889L0 10.9443C0 10.4404 0.40772 10.0327 0.911583 10.0327L1.80625 10.0327C1.90507 10.0327 2.0021 10.0487 2.09557 10.0807C9.09447 12.4238 15.9082 12.4256 22.9231 10.079C22.948 10.0718 22.973 10.0647 22.9979 10.0576C23.0193 10.0487 23.0406 10.0398 23.0638 10.0327C29.4404 7.873 35.3283 3.99877 39.7456 0.865205C41.9542 -0.673092 45.0824 -0.0855483 46.5531 2.03673C47.3347 3.1317 47.6258 4.51688 47.3525 5.83796C47.0801 7.15727 46.2646 8.30921 45.1154 9.0018C35.2152 15.0304 26.9576 19.4387 19.1343 22.8714C13.9586 25.1415 8.19357 26.3254 2.37332 26.3254ZM1.82317 24.4987C7.58021 24.6251 13.2936 23.4429 18.4026 21.2013C26.1493 17.8025 34.3375 13.4297 44.1708 7.44214C44.9008 7.00237 45.3949 6.30266 45.5676 5.46941C45.7385 4.64151 45.556 3.77444 45.0655 3.09075C45.0628 3.08719 45.0602 3.08363 45.0575 3.07829C44.1415 1.75542 42.1883 1.38509 40.7942 2.35721C36.3307 5.52283 30.3805 9.43801 23.8641 11.6849C23.719 11.7917 23.5445 11.8558 23.3558 11.8558C16.1966 14.2505 9.10426 14.2844 1.82317 11.9093L1.82317 24.4987L1.82317 24.4987Z" id="Shape" fill="#000000" stroke="none" />
        </g>
        <g id="Group" transform="translate(0 1.9599661)">
          <path d="M75.9899 9.60035C67.4575 14.7963 56.7373 20.3752 47.9313 24.2403C43.2094 26.3188 32.7262 28.1784 27.2384 29.0535C25.0324 29.3999 22.8082 29.6004 20.5838 29.6369L0.911912 29.9833L0.911912 7.54017L8.95214 7.54017C21.9148 -3.67235 35.2422 2.65409 35.2422 2.65409L47.0745 2.1983L47.2204 2.1983C49.1529 2.1983 50.7937 3.62031 51.0672 5.53462C51.3771 7.68594 49.8639 9.67324 47.7126 9.94676L31.8146 11.8793C47.6579 17.841 60.1283 11.15 71.6144 3.00039C72.3072 2.50821 73.1093 2.25294 73.9115 2.25294C75.1694 2.25294 76.3911 2.85461 77.1568 3.94847C78.4876 5.80814 77.9589 8.41525 75.9899 9.60035Z" id="Path" fill="#FFFAF3" stroke="none" />
          <path d="M0.911583 30.8943C0.673005 30.8943 0.443329 30.8 0.272407 30.6326C0.0979241 30.4617 0 30.2267 0 29.9828L0 7.54035C0 7.03649 0.40772 6.62877 0.911583 6.62877L8.61553 6.62877C20.8801 -3.76185 33.6004 0.974106 35.4138 1.73613L47.04 1.28746L47.0409 1.28746C49.5941 1.28746 51.6344 3.05722 51.97 5.40561C52.1543 6.68931 51.8232 7.96588 51.0371 8.99853C50.2519 10.0294 49.1124 10.6882 47.827 10.852L36.1197 12.2745C50.2626 15.8123 61.5301 9.03948 71.0866 2.25602C73.2694 0.710601 76.4128 1.29458 77.9039 3.42755C78.6819 4.51361 78.9748 5.89701 78.7024 7.21632C78.4309 8.53206 77.6146 9.68578 76.4626 10.3801C67.994 15.5363 57.201 21.1678 48.2979 25.0759C43.505 27.1839 33.1357 29.0373 27.3813 29.9543C25.1095 30.3104 22.8279 30.5115 20.5988 30.5489L0.927607 30.8943C0.922266 30.8943 0.916925 30.8943 0.911583 30.8943L0.911583 30.8943ZM1.82317 8.45194L1.82317 29.0551L20.5676 28.7258C22.713 28.6902 24.9092 28.4979 27.0965 28.1525C31.6579 27.426 42.7866 25.5085 47.5644 23.4058C56.4007 19.528 67.1109 13.9392 75.5154 8.82227C75.5172 8.82049 75.5181 8.82049 75.5199 8.81871C76.249 8.38072 76.7457 7.67923 76.9175 6.84777C77.0893 6.01274 76.9113 5.17237 76.4154 4.47978C75.4754 3.13556 73.5276 2.76344 72.1424 3.74446C61.3191 11.4181 48.3611 19.0776 31.4932 12.7321C31.1007 12.5843 30.8594 12.1873 30.9093 11.7707C30.96 11.354 31.2876 11.0247 31.7042 10.9748L47.6017 9.04304C48.3931 8.94156 49.1 8.53384 49.5869 7.89466C50.0748 7.25371 50.2795 6.46141 50.1647 5.66378C49.9573 4.20738 48.6914 3.11063 47.2207 3.11063L35.2767 3.56642C35.1227 3.5682 34.9829 3.53971 34.852 3.47918C34.3286 3.2317 21.8851 -2.43899 9.54848 8.22938C9.3829 8.3736 9.17103 8.45194 8.95203 8.45194L1.82317 8.45194L1.82317 8.45194Z" id="Shape" fill="#000000" stroke="none" />
        </g>
      </g>
      <g id="Group" transform="translate(0 3.7762182)">
        <g id="Group">
          <path d="M14.7498 4.08302L14.7498 28.0758C14.7498 29.8261 13.3277 31.2482 11.5775 31.2482L4.08433 31.2482C2.31581 31.2482 0.911931 29.8261 0.911931 28.0758L0.911931 4.08302C0.911931 2.33274 2.3158 0.910728 4.08433 0.910728L11.5775 0.910728C13.3277 0.910728 14.7498 2.33274 14.7498 4.08302Z" id="Path" fill="#07133B" stroke="none" />
          <path d="M11.5773 32.16L4.08434 32.16C1.83209 32.16 0 30.328 0 28.0757L0 4.08254C0 1.83207 1.83209 0 4.08434 0L11.5773 0C13.8296 0 15.6616 1.83207 15.6616 4.08254L15.6616 28.0757C15.6616 30.328 13.8296 32.16 11.5773 32.16ZM4.08434 1.82317C2.83714 1.82317 1.82317 2.83624 1.82317 4.08254L1.82317 28.0757C1.82317 29.322 2.83714 30.3369 4.08434 30.3369L11.5773 30.3369C12.8245 30.3369 13.8385 29.322 13.8385 28.0757L13.8385 4.08254C13.8385 2.83623 12.8245 1.82317 11.5773 1.82317L4.08434 1.82317Z" id="Shape" fill="#000000" stroke="none" />
        </g>
        <path d="M8.70374 26.8709C9.93015 26.8709 10.9244 25.8767 10.9244 24.6502C10.9244 23.4238 9.93015 22.4296 8.70374 22.4296C7.47732 22.4296 6.48312 23.4238 6.48312 24.6502C6.48312 25.8767 7.47732 26.8709 8.70374 26.8709Z" id="Oval" fill="#FFFFFF" stroke="none" />
      </g>
    </g>
    <g id="Group" transform="translate(16.549173 0)">
      <path d="M23.0205 21.8733C22.9882 23.6335 24.0864 25.2484 25.6367 26.1044C27.187 26.9603 27.8007 26.8957 28.4306 26.8311L28.4306 32.8548C28.4306 34.4213 27.1547 35.6971 25.5883 35.6971L3.75429 35.6971C2.18785 35.6971 0.91199 34.4213 0.91199 32.8548L0.91199 11.0209C0.91199 9.45441 2.18785 8.17855 3.75429 8.17855L9.69724 8.17855C9.22895 7.37108 9.019 6.41833 9.09973 5.40091C9.26128 3.30151 10.86 1.46046 12.911 1.0244C16.0924 0.346153 18.9186 2.75239 18.9186 5.82081C18.9186 6.67667 18.7086 7.48414 18.3049 8.17855L25.5883 8.17855C27.1547 8.17855 28.4306 9.45441 28.4306 11.0209L28.4306 17.0607C28.269 17.0446 28.1076 17.0285 27.9299 17.0285C25.2329 17.0285 23.0528 19.1924 23.0205 21.8733L23.0205 21.8733Z" id="Path" fill="#DDDDDD" stroke="none" />
      <path d="M25.5884 36.6089L3.75405 36.6089C1.68429 36.6089 0 34.9246 0 32.8539L0 11.0205C0 8.95159 1.68429 7.26729 3.75405 7.26729L8.35114 7.26729C8.19268 6.64948 8.13748 5.99784 8.1909 5.3284C8.38229 2.83757 10.2874 0.651193 12.7212 0.133086C14.4856 -0.240805 16.2874 0.181158 17.6682 1.29749C19.0418 2.41026 19.8305 4.05895 19.8305 5.82158C19.8305 6.31654 19.7691 6.8026 19.6507 7.26729L25.5884 7.26729C27.6582 7.26729 29.3425 8.95159 29.3425 11.0205L29.3425 17.0615C29.3425 17.3196 29.2339 17.5636 29.0434 17.7363C28.852 17.9107 28.6072 17.9891 28.341 17.9695C28.179 17.9517 28.0597 17.9392 27.9297 17.9392C25.7522 17.9392 23.9584 19.709 23.9317 21.8847L23.9317 21.89C23.9068 23.2325 24.7498 24.5731 26.0772 25.3067C27.3706 26.0206 27.7944 25.9779 28.3321 25.9245C28.5983 25.896 28.8475 25.9832 29.0389 26.1542C29.2303 26.3269 29.3425 26.5726 29.3425 26.8307L29.3425 32.8539C29.3425 34.9246 27.6582 36.6089 25.5884 36.6089L25.5884 36.6089ZM3.75405 9.09046C2.68935 9.09046 1.82317 9.95575 1.82317 11.0205L1.82317 32.8539C1.82317 33.9186 2.68935 34.7857 3.75405 34.7857L25.5884 34.7857C26.6531 34.7857 27.5193 33.9186 27.5193 32.8539L27.5193 27.753C26.9291 27.6925 26.2312 27.4735 25.1958 26.9019C23.2837 25.8461 22.0721 23.8663 22.1086 21.858C22.1486 18.8294 24.538 16.3422 27.5193 16.1303L27.5193 11.0205C27.5193 9.95575 26.6531 9.09046 25.5884 9.09046L18.3047 9.09046C17.9788 9.09046 17.6771 8.91598 17.5142 8.63289C17.3521 8.3498 17.353 8.00261 17.5168 7.71952C17.8373 7.16937 18.0073 6.51239 18.0073 5.82158C18.0073 4.61266 17.4652 3.48031 16.5207 2.71472C15.5708 1.94557 14.3236 1.65892 13.1013 1.91708C11.4402 2.26961 10.1396 3.76518 10.0087 5.47083C9.94285 6.2934 10.1084 7.06966 10.4859 7.7213C10.6497 8.00439 10.6497 8.35158 10.4868 8.63467C10.3239 8.91598 10.023 9.09046 9.69715 9.09046L3.75405 9.09046Z" id="Shape" fill="#000000" stroke="none" />
    </g>
    <g id="Group" transform="translate(45.29304 11.273511)">
      <path d="M2.28848 7.21384C3.32577 6.0943 4.90149 5.52538 6.41283 5.73801C8.05471 5.96901 9.3238 6.89446 10.033 8.09729L12.3618 3.33669C13.4115 1.19083 16.002 0.302208 18.1478 1.3519L35.0965 9.6427C37.2423 10.6924 38.1309 13.2829 37.0813 15.4288L28.7905 32.3774C27.7408 34.5233 25.1503 35.4119 23.0044 34.3622L18.9982 32.4025C19.0646 33.3281 18.8324 34.2756 18.323 35.1445C17.2543 36.9673 15.0081 37.9199 12.958 37.4086C9.79518 36.6197 8.33087 33.2239 9.67877 30.4684C10.0548 29.6996 10.5983 29.0665 11.2661 28.6201L6.05575 26.0714C3.90989 25.0217 3.02127 22.4312 4.07096 20.2853L6.40682 15.5102C5.50506 15.6264 4.55044 15.483 3.66555 15.0502C0.784265 13.6407 -0.0993704 9.79106 2.28848 7.21384Z" id="Path" fill="#9765ff" stroke="none" />
      <path d="M14.0685 38.4554C13.6234 38.4554 13.1765 38.402 12.7376 38.2934C10.9892 37.8572 9.55777 36.6874 8.81176 35.085C8.06665 33.4844 8.08357 31.6559 8.85984 30.0678C9.07705 29.6227 9.3459 29.2132 9.65658 28.8482L5.65505 26.8897C4.39895 26.2754 3.4571 25.209 3.00309 23.8861C2.54908 22.5615 2.63721 21.1407 3.25235 19.8855L4.95801 16.3976C4.3767 16.3103 3.80607 16.1341 3.26482 15.8688C1.6188 15.064 0.434813 13.5079 0.0992008 11.7044C-0.243533 9.86872 0.311073 8.00639 1.61969 6.5945C2.8571 5.25739 4.73813 4.57905 6.53904 4.83543C7.81561 5.01525 8.9631 5.56897 9.84442 6.40934L11.543 2.9357C12.8124 0.34339 15.954 -0.737336 18.5481 0.532116L35.4969 8.82361C38.091 10.0931 39.1691 13.2355 37.9005 15.8296L29.609 32.7776C28.9939 34.0346 27.9274 34.9764 26.6046 35.4304C25.2799 35.8827 23.86 35.7972 22.6039 35.1812L19.8068 33.812C19.6787 34.4281 19.4445 35.0316 19.1089 35.6049C18.0718 37.3765 16.0857 38.4554 14.0685 38.4554L14.0685 38.4554ZM6.4064 14.5993C6.69839 14.5993 6.97524 14.74 7.14706 14.9804C7.34291 15.2528 7.37228 15.6106 7.2254 15.9115L4.89035 20.6867C4.48887 21.5057 4.431 22.4315 4.72744 23.2932C5.023 24.1567 5.63725 24.8511 6.45625 25.2517L11.6667 27.8013C11.9596 27.9455 12.1536 28.2339 12.1759 28.5597C12.1973 28.8838 12.0441 29.1971 11.7735 29.377C11.2412 29.733 10.8005 30.2494 10.4978 30.869C9.9646 31.9586 9.95214 33.2156 10.4649 34.3159C10.9848 35.4322 11.9489 36.2174 13.1792 36.5236C14.8377 36.9403 16.6688 36.1622 17.5359 34.6827C17.9507 33.9758 18.1421 33.2085 18.0896 32.466C18.0665 32.142 18.2187 31.8286 18.4884 31.647C18.76 31.4601 19.1062 31.4369 19.3991 31.5829L23.4051 33.5432C24.2232 33.9438 25.1499 34.0008 26.0126 33.7052C26.8752 33.4096 27.5704 32.7954 27.971 31.9764L36.2625 15.0284C37.0895 13.337 36.3872 11.2895 34.6957 10.4616L17.7469 2.17012C16.0564 1.34399 14.008 2.04727 13.181 3.7369L10.8521 8.49779C10.7044 8.79868 10.4035 8.99453 10.0688 9.00877C9.71623 8.99631 9.41711 8.85031 9.24797 8.5601C8.63461 7.51855 7.55478 6.81884 6.28533 6.64079C5.06751 6.46809 3.79539 6.92566 2.9568 7.83368C2.04433 8.81827 1.6553 10.1073 1.89121 11.3696C2.12534 12.6266 2.91852 13.67 4.06601 14.2308C4.76661 14.5726 5.53576 14.7062 6.29067 14.6065C6.32895 14.6011 6.36812 14.5993 6.4064 14.5993L6.4064 14.5993Z" id="Shape" fill="#9765ff" stroke="none" />
    </g>
  </g>
</svg>