<?xml version="1.0" encoding="utf-8"?>
<svg width="71.82495px" height="89px" viewBox="0 0 71.82495 89" version="1.1" xmlns:xlink="http://www.w3.org/1999/xlink" xmlns="http://www.w3.org/2000/svg">
  <g id="010-shield-badge">
    <g id="Group" transform="translate(34.317753 0)">
      <path d="M36.599 33.8922C36.599 30.659 34.6918 27.8801 31.9312 26.6087C33.6748 24.1203 33.947 20.7601 32.3307 17.9811C30.7139 15.1658 27.6626 13.7128 24.6295 14.0215C24.9381 11.0065 23.485 7.93689 20.688 6.32033C17.9996 4.79456 14.8392 4.95808 12.4057 6.50192C11.3702 3.25073 8.3371 0.907599 4.77695 0.907599C3.36836 0.907599 2.05689 1.28474 0.908163 1.91986L0.908163 27.7045L10.5951 27.7045L10.5951 65.1583L15.8929 66.8313L19.9796 77.9563L21.7201 77.9563L21.7201 79.3279C22.0881 79.1981 22.5045 79.1963 22.8857 79.3911L29.2067 82.6968C30.4417 83.3507 31.7857 82.1156 31.2589 80.826L22.6132 59.8474C24.1391 58.1946 24.8472 55.9606 24.6295 53.7446C27.6626 54.0533 30.7139 52.5821 32.3307 49.785C33.947 47.006 33.6748 43.6276 31.9312 41.1575C34.6738 39.886 36.5808 37.1071 36.599 33.8922L36.599 33.8922Z" id="Path" fill="#000000" stroke="none" />
      <path d="M29.9135 83.7834C29.5304 83.7834 29.1428 83.6894 28.781 83.4978L22.4655 80.1969C22.3068 80.1135 22.1347 80.1454 22.0212 80.1844C21.7418 80.2784 21.4341 80.2376 21.1946 80.0691C20.9543 79.8989 20.8115 79.6222 20.8115 79.3277L20.8115 78.8648L19.9796 78.8648C19.5991 78.8648 19.2586 78.6271 19.1273 78.2706L15.194 67.5642L10.3215 66.0245C9.94368 65.9057 9.68648 65.5545 9.68648 65.1589L9.68648 28.6125L0.908163 28.6125C0.40619 28.6125 0 28.2063 0 27.7043L0 1.9192C0 1.58929 0.179149 1.2842 0.469159 1.12456C1.8181 0.37781 3.26726 0 4.77673 0C8.30384 0 11.4363 2.05224 12.8775 5.20775C15.4867 3.96789 18.5615 4.07077 21.1361 5.53057C23.8597 7.10567 25.5279 9.9898 25.5776 13.0744C28.6683 13.1258 31.5507 14.8002 33.1178 17.5283C34.6787 20.212 34.6911 23.5413 33.2118 26.2622C35.8503 27.8675 37.507 30.7623 37.507 33.8929L37.507 33.8983C37.4901 37.0112 35.8334 39.8953 33.2127 41.5006C34.6973 44.2144 34.684 47.5455 33.1151 50.2417C31.5401 52.9661 28.6559 54.6406 25.5749 54.692C25.5403 56.6396 24.8698 58.5162 23.6646 60.0168L32.0988 80.4807C32.4872 81.4332 32.2513 82.4868 31.4975 83.1679C31.0487 83.5741 30.4864 83.7834 29.9135 83.7834L29.9135 83.7834ZM22.6278 78.361C22.8602 78.4 23.0854 78.4745 23.2992 78.5827L29.6271 81.8908C29.9517 82.0664 30.1911 81.8997 30.2789 81.8216C30.3676 81.7418 30.56 81.5165 30.4181 81.1706L21.7729 60.1924C21.6381 59.8661 21.7055 59.49 21.9458 59.2293C23.2726 57.7943 23.9209 55.8272 23.7258 53.8335C23.6992 53.5621 23.7958 53.2943 23.9883 53.1009C24.1807 52.9094 24.4415 52.8118 24.7217 52.842C27.4657 53.1134 30.1476 51.744 31.5445 49.3317C32.9289 46.9496 32.7897 43.9484 31.1897 41.6815C31.0336 41.4616 30.984 41.1848 31.054 40.9241C31.1232 40.6634 31.305 40.447 31.5489 40.3352C34.0499 39.1752 35.6756 36.644 35.6906 33.8876C35.6889 31.1241 34.0641 28.5912 31.5516 27.4329C31.3068 27.3212 31.125 27.1048 31.054 26.8458C30.984 26.5851 31.0328 26.3084 31.1871 26.0866C32.7835 23.8091 32.9236 20.8062 31.5454 18.4364C30.1583 16.0223 27.4693 14.6601 24.7217 14.9244C24.4424 14.9563 24.1798 14.8552 23.9874 14.6636C23.7941 14.4703 23.6983 14.2007 23.7258 13.9293C24.0078 11.1747 22.6367 8.49629 20.2332 7.10567C17.9309 5.80018 15.1151 5.85872 12.8925 7.26885C12.6558 7.4214 12.3622 7.4551 12.0952 7.35577C11.831 7.25998 11.6261 7.04713 11.5401 6.77752C10.5946 3.81003 7.87637 1.81633 4.77673 1.81633C3.75061 1.81633 2.7573 2.03805 1.81633 2.47616L1.81633 26.7961L10.5946 26.7961C11.0966 26.7961 11.5028 27.2023 11.5028 27.7043L11.5028 64.4938L16.166 65.966C16.4347 66.0494 16.6485 66.2551 16.7451 66.5176L20.6137 77.0484L21.7196 77.0484C22.2216 77.0484 22.6278 77.4546 22.6278 77.9566L22.6278 78.361Z" id="Shape" fill="#000000" stroke="none" />
    </g>
    <g id="Group" transform="translate(5.2173467 47.747032)">
      <g id="Group" transform="translate(0 0.0013803384)">
        <path d="M13.6658 39.3154L11.4963 32.5105C11.2176 31.6363 10.2179 31.2249 9.40458 31.6496L3.07359 34.9562C1.85149 35.5944 0.498543 34.3592 1.02327 33.0842L14.2656 0.907541L29.6823 7.25228L16.4399 39.4289C15.9151 40.7039 14.0847 40.629 13.6658 39.3154L13.6658 39.3154Z" id="Path" fill="#FFFFFF" stroke="none" />
        <path d="M15.078 41.2516C15.0443 41.2516 15.0097 41.2516 14.9751 41.2498C13.9623 41.209 13.1091 40.5563 12.8005 39.5914L10.6303 32.7872C10.5602 32.5655 10.3961 32.4697 10.3048 32.4325C10.2161 32.397 10.0308 32.3473 9.82588 32.4555L3.49357 35.7618C2.59428 36.2301 1.53002 36.0917 0.781497 35.4088C0.0320853 34.7242 -0.202937 33.6759 0.183742 32.7376L13.4257 0.561617C13.5171 0.339898 13.6936 0.162522 13.9162 0.068513C14.1388 -0.0219486 14.3889 -0.0237224 14.6115 0.068513L30.0281 6.41324C30.4919 6.60303 30.7127 7.13338 30.5221 7.59811L17.2801 39.774C16.9067 40.6804 16.05 41.2516 15.078 41.2516L15.078 41.2516ZM10.0884 30.5736C10.3961 30.5736 10.7039 30.6321 10.9957 30.7527C11.6493 31.0206 12.1468 31.5616 12.3615 32.2356L14.5317 39.0379L14.5317 39.0397C14.6407 39.382 14.9308 39.4299 15.0505 39.4353C15.1551 39.4335 15.4629 39.4157 15.6003 39.0823L28.4964 7.7471L14.7596 2.09237L1.86349 33.4293C1.72602 33.7628 1.91759 33.9863 2.00628 34.0679C2.09585 34.1477 2.33531 34.3215 2.65281 34.1512L8.98423 30.845C9.33012 30.664 9.70881 30.5736 10.0884 30.5736L10.0884 30.5736Z" id="Shape" fill="#000000" stroke="none" />
      </g>
      <g id="Group" transform="translate(25.57861 0)">
        <path d="M16.9248 39.3168L19.0944 32.5119C19.3731 31.6377 20.3728 31.2263 21.1861 31.651L27.5171 34.9575C28.7392 35.5958 30.0921 34.3606 29.5674 33.0856L16.325 0.908922L0.908408 7.25366L14.1508 39.4303C14.6755 40.7053 16.506 40.6304 16.9248 39.3168L16.9248 39.3168Z" id="Path" fill="#FFFFFF" stroke="none" />
        <path d="M15.5124 41.253C14.5404 41.253 13.6836 40.6818 13.3112 39.7754L0.0682913 7.59949C-0.0230573 7.376 -0.0230573 7.1259 0.0700651 6.90418C0.162301 6.68246 0.339676 6.50508 0.562282 6.41462L15.9789 0.0698932C16.4445 -0.123446 16.9748 0.0982733 17.1646 0.562997L30.4075 32.7389C30.7933 33.679 30.5583 34.7273 29.8089 35.4102C29.0603 36.0949 27.9943 36.2315 27.0968 35.7632L20.7654 32.4569C20.5632 32.3487 20.376 32.3984 20.2856 32.4339C20.1942 32.4711 20.0301 32.5669 19.9601 32.7868L17.7908 39.5927C17.4821 40.5594 16.6272 41.2104 15.6135 41.2512C15.5798 41.253 15.5461 41.253 15.5124 41.253L15.5124 41.253ZM2.09392 7.74848L14.9909 39.0837C15.1266 39.4171 15.4264 39.4313 15.5399 39.4366C15.6596 39.4313 15.9505 39.3834 16.0596 39.0393L18.2289 32.2352C18.4435 31.5629 18.9411 31.0219 19.5947 30.7541C20.2483 30.4827 20.9817 30.5182 21.607 30.8463L27.9376 34.1526C28.2542 34.3211 28.4954 34.1491 28.5841 34.0693C28.6728 33.9877 28.8643 33.7642 28.7278 33.4307L15.8308 2.09375L2.09392 7.74848Z" id="Shape" fill="#000000" stroke="none" />
      </g>
    </g>
    <g id="Group" transform="matrix(1 0 0 1 0 8.06611E-16)">
      <path d="M61.0262 41.1582C62.784 43.6304 63.0402 46.9997 61.429 49.7831C59.8173 52.5847 56.7594 54.0498 53.7379 53.7384C54.0309 56.7599 52.5842 59.8179 49.7825 61.4294C46.9807 63.0408 43.63 62.7844 41.1577 61.0266C39.876 63.7915 37.0925 65.6961 33.8696 65.6961C30.7934 65.6961 28.1197 63.9564 26.7647 61.411C24.256 63.7 20.4653 64.1945 17.389 62.4182C14.4409 60.7335 12.9761 57.4374 13.4886 54.2512C10.3207 54.7639 7.02472 53.2989 5.3214 50.3508C3.61853 47.4026 4.00301 43.8501 6.01748 41.3414C3.03243 40.1877 0.908421 37.2761 0.908421 33.8702C0.908421 30.4824 3.03243 27.5709 6.01748 26.4172C4.00301 23.9085 3.61853 20.3377 5.3214 17.3895C7.02472 14.4414 10.3207 12.9947 13.4886 13.4891C12.9942 10.3212 14.4409 7.025 17.389 5.34035C20.3189 3.63737 23.8898 4.02195 26.3983 6.03621C27.5522 3.03305 30.4637 0.908927 33.8696 0.908927C37.4404 0.908927 40.4802 3.25278 41.5055 6.494C43.9411 4.95576 47.109 4.79102 49.7825 6.32915C52.5842 7.94059 54.0309 10.9987 53.7379 14.0201C56.7594 13.7088 59.8173 15.1738 61.429 17.9755C63.0402 20.7588 62.784 24.1283 61.0262 26.6003C63.7913 27.8822 65.6955 30.6656 65.6955 33.8885C65.6772 37.1114 63.7729 39.8947 61.0262 41.1582L61.0262 41.1582Z" id="Path" fill="#9765ff" stroke="none" />
      <path d="M33.8699 66.6046C30.921 66.6046 28.1965 65.1572 26.5301 62.7661C23.7213 64.7634 19.9902 64.9691 16.9349 63.2043C14.0925 61.5795 12.395 58.4843 12.4837 55.2561C9.28029 55.3306 6.17799 53.649 4.53461 50.8057C2.87792 47.934 2.94887 44.4752 4.65079 41.7063C1.82963 40.1649 0 37.1442 0 33.8699C0 30.6062 1.82963 27.5943 4.65079 26.0512C2.94532 23.2788 2.87349 19.8129 4.53461 16.9358C6.17001 14.1067 9.25369 12.466 12.489 12.489C12.4092 9.26256 14.1058 6.1709 16.9385 4.55146C19.7996 2.893 23.2584 2.95863 26.0316 4.66853C27.5713 1.83584 30.5929 0 33.8699 0C37.4085 0 40.5436 2.04869 41.9795 5.19888C44.6002 3.9608 47.6741 4.07077 50.2354 5.54121C52.9475 7.10212 54.6202 9.9827 54.6814 13.0708C57.765 13.1205 60.6465 14.7949 62.2163 17.5229C63.7825 20.2279 63.7949 23.5573 62.3103 26.2605C64.9479 27.871 66.6037 30.7658 66.6037 33.8876C66.5859 37.0183 64.9301 39.9042 62.3112 41.5006C63.7949 44.2038 63.7816 47.5313 62.2145 50.2381C60.6465 52.9644 57.765 54.6388 54.6814 54.6867C54.6202 57.7766 52.9475 60.6572 50.2346 62.2163C47.5225 63.779 44.1949 63.7861 41.4988 62.3103C39.8865 64.9479 36.9917 66.6046 33.8699 66.6046L33.8699 66.6046ZM26.7651 60.5028C26.8165 60.5028 26.868 60.5064 26.9194 60.5152C27.1961 60.5631 27.4347 60.737 27.5668 60.9853C28.8156 63.3302 31.2305 64.7882 33.8699 64.7882C36.6298 64.7882 39.1663 63.1617 40.3334 60.6447C40.447 60.3999 40.6634 60.2173 40.9241 60.1481C41.1866 60.0842 41.4624 60.1286 41.6833 60.2864C43.928 61.881 46.9292 62.0212 49.3291 60.6412C51.7263 59.263 53.1018 56.5881 52.834 53.8246C52.8074 53.555 52.9041 53.2854 53.0974 53.0938C53.2907 52.9005 53.5577 52.7994 53.8308 52.8349C56.5793 53.1187 59.2541 51.7422 60.6412 49.3299C62.0274 46.9371 61.8872 43.9359 60.2855 41.685C60.1295 41.4633 60.0789 41.1848 60.149 40.9241C60.2181 40.6634 60.4008 40.447 60.6465 40.3334C63.1457 39.184 64.7714 36.6511 64.7873 33.8823C64.7873 31.1276 63.1608 28.5912 60.6447 27.4258C60.3991 27.3123 60.2173 27.0959 60.1481 26.8334C60.0789 26.5726 60.1295 26.2942 60.2855 26.0742C61.8872 23.8215 62.0274 20.8221 60.643 18.4311C59.2541 16.0188 56.5846 14.6548 53.8308 14.9226C53.5577 14.9528 53.2907 14.8552 53.0974 14.6636C52.9041 14.4721 52.8074 14.2025 52.834 13.9311C53.1018 11.1711 51.7263 8.49629 49.3291 7.11631C47.0356 5.79486 44.2242 5.85162 41.991 7.26176C41.7524 7.41075 41.4598 7.44446 41.1937 7.3469C40.9294 7.24934 40.7254 7.03649 40.6403 6.76865C39.702 3.80648 36.9819 1.81633 33.8699 1.81633C30.952 1.81633 28.2905 3.6433 27.2458 6.36246C27.142 6.63207 26.915 6.83783 26.6347 6.91233C26.3545 6.98683 26.0556 6.92652 25.8294 6.74382C23.52 4.88847 20.3884 4.64724 17.8449 6.12655C15.3244 7.56684 13.9364 10.4687 14.3861 13.3493C14.4304 13.6366 14.3355 13.9275 14.1306 14.1315C13.9258 14.3373 13.6411 14.4295 13.3484 14.3869C10.4731 13.9311 7.56152 15.327 6.10793 17.844C4.63128 20.4 4.8734 23.5413 6.7252 25.8472C6.90701 26.0742 6.96998 26.3722 6.89459 26.6525C6.81921 26.9327 6.61522 27.1598 6.34473 27.2644C3.6362 28.3109 1.81633 30.9662 1.81633 33.8699C1.81633 36.7859 3.6362 39.4483 6.34473 40.4931C6.61522 40.5977 6.81921 40.8248 6.89459 41.105C6.96998 41.3853 6.90701 41.6833 6.72608 41.9085C4.87783 44.2109 4.63571 47.3469 6.10793 49.8975C7.57217 52.4305 10.4873 53.8122 13.3431 53.3546C13.6348 53.3049 13.9249 53.4025 14.1306 53.6082C14.3364 53.814 14.4313 54.1067 14.3852 54.394C13.9213 57.2764 15.3102 60.1836 17.8396 61.6292C20.5286 63.1812 23.8694 62.8211 26.1532 60.7405C26.3217 60.5862 26.5407 60.5028 26.7651 60.5028Z" id="Shape" fill="#000000" stroke="none" />
    </g>
    <g id="Group" transform="translate(10.884656 10.885543)">
      <path d="M22.4176 43.9257C34.2967 43.9257 43.9266 34.2959 43.9266 22.4168C43.9266 10.5377 34.2967 0.907865 22.4176 0.907865C10.5386 0.907865 0.908703 10.5377 0.908703 22.4168C0.908703 34.2959 10.5386 43.9257 22.4176 43.9257Z" id="Oval" fill="#FFFFFF" stroke="none" />
      <path d="M22.4176 44.8335C10.0563 44.8335 0 34.778 0 22.4167C0 10.0554 10.0563 0 22.4176 0C34.778 0 44.8344 10.0554 44.8344 22.4167C44.8344 34.778 34.778 44.8335 22.4176 44.8335ZM22.4176 1.81633C11.0576 1.81633 1.81633 11.0576 1.81633 22.4167C1.81633 33.7759 11.0576 43.0171 22.4176 43.0171C33.7768 43.0171 43.018 33.7759 43.018 22.4167C43.018 11.0576 33.7768 1.81633 22.4176 1.81633Z" id="Shape" fill="#000000" stroke="none" />
    </g>
    <g id="Group" transform="translate(19.235386 17.55664)">
      <path d="M27.2178 8.11264L26.2985 20.7928C26.2456 21.5853 25.8547 22.325 25.2207 22.8006L15.7423 30.0176C14.749 30.7679 13.3753 30.7679 12.382 30.0176L2.91414 22.8006C2.28009 22.325 1.88913 21.5959 1.83631 20.7928L0.916998 8.10206C0.82187 6.90801 1.51932 5.78793 2.63939 5.33356L13.016 1.11741C13.6817 0.842661 14.4319 0.842661 15.1082 1.11741L25.4954 5.33356C26.6155 5.78793 27.3023 6.90801 27.2178 8.11264Z" id="Path" fill="#9765ff" stroke="none" />
      <path d="M14.0607 31.4842C13.2749 31.4842 12.49 31.2376 11.8346 30.7427L2.36364 23.5218C1.52554 22.8939 1.00051 21.9183 0.929563 20.8523L0.0116438 8.16815C-0.11518 6.57709 0.803626 5.09778 2.29802 4.49293L12.6745 0.276706C13.5614 -0.0922353 14.5494 -0.0922353 15.4504 0.276706L25.8366 4.49293C27.3177 5.09245 28.2365 6.57354 28.123 8.17702L28.123 8.17879L27.2042 20.8576C27.1333 21.9201 26.6082 22.8939 25.7648 23.5271L16.2921 30.7392C15.6349 31.2358 14.8473 31.4842 14.0607 31.4842L14.0607 31.4842ZM14.058 1.8181C13.8212 1.8181 13.5853 1.86422 13.3627 1.95645L2.98091 6.17445C2.22441 6.48131 1.75879 7.22806 1.82265 8.0298L2.74146 20.7263C2.77782 21.2691 3.03945 21.7587 3.45894 22.0726L12.9326 29.2954C13.5977 29.7991 14.5281 29.7991 15.195 29.2918L24.6704 22.0779C25.0952 21.7587 25.3568 21.2691 25.3923 20.7317L26.312 8.04753C26.3688 7.2316 25.9041 6.47953 25.1538 6.17445L14.7666 1.95823C14.5369 1.86599 14.2966 1.8181 14.058 1.8181L14.058 1.8181Z" id="Shape" fill="#000000" stroke="none" />
    </g>
    <path d="M30.9089 38.4702C30.5153 38.4702 30.1391 38.3139 29.8613 38.0361L26.5565 34.7284C25.9777 34.1496 25.9777 33.212 26.5565 32.6332C27.1353 32.0544 28.0729 32.0544 28.6517 32.6332L30.9089 34.8934L37.2321 28.5702C37.8108 27.9914 38.7485 27.9914 39.3272 28.5702C39.906 29.149 39.906 30.0866 39.3272 30.6654L31.9565 38.0361C31.6787 38.3139 31.3025 38.4702 30.9089 38.4702L30.9089 38.4702Z" id="Path" fill="#FFFFFF" stroke="none" />
  </g>
</svg>