<?xml version="1.0" encoding="utf-8"?>
<svg width="88.98486px" height="89px" viewBox="0 0 88.98486 89" version="1.1" xmlns:xlink="http://www.w3.org/1999/xlink" xmlns="http://www.w3.org/2000/svg">
  <g id="longevity">
    <g id="Group" transform="translate(45.34079 38.69627)">
      <path d="M39.4053 0.908645C38.6225 0.925385 37.9005 1.21861 37.342 1.70096C36.7633 2.19473 36.3617 2.89248 36.2391 3.69244L35.0715 11.4435C34.8843 12.6865 34.4147 13.87 33.6987 14.9032L29.676 20.7094C29.2523 21.3226 28.6863 21.8049 28.0472 22.1602L28.0472 28.0376L6.37855 28.0376C3.59697 32.5696 1.71191 39.259 0.919376 46.9801C0.787231 48.2676 1.77876 49.3958 3.07305 49.3958L14.4793 49.3958C15.6754 49.3958 16.6451 48.4261 16.6451 47.23C16.6451 43.6697 18.7715 40.4538 22.0473 39.0594L26.5982 37.1223C30.3987 35.5047 33.4639 32.5348 35.2009 28.7873L40.627 17.0806C41.6675 14.8356 42.2757 12.4146 42.4196 9.94427L42.7308 4.60183C42.8439 2.66156 41.3484 0.867072 39.4053 0.908645L39.4053 0.908645Z" id="Path" fill="#000000" stroke="none" />
      <path d="M14.4796 50.3037L3.07256 50.3037C2.20874 50.3037 1.3804 49.9348 0.800382 49.2945C0.213268 48.6417 -0.0740803 47.7655 0.0163813 46.8875C0.839404 38.8595 2.7728 32.1777 5.60549 27.5624C5.77045 27.2928 6.06312 27.1296 6.37885 27.1296L27.1389 27.1296L27.1389 22.1595C27.1389 21.8296 27.318 21.5263 27.6054 21.3649C28.157 21.0598 28.6022 20.6643 28.9286 20.1924L32.9515 14.3852C33.5865 13.4717 34.0087 12.4092 34.1736 11.3095L35.3407 3.55816C35.4951 2.55776 35.997 1.65491 36.7527 1.00927C37.4799 0.381358 38.4164 0.0230588 39.3849 0L39.3867 0C40.5024 0.0159639 41.5755 0.425702 42.3843 1.26469C43.2535 2.16576 43.7093 3.40206 43.6366 4.65434L43.3262 9.99689C43.1754 12.5919 42.544 15.1035 41.4513 17.4626L36.0254 29.1694C34.1896 33.1284 30.9684 36.2503 26.9526 37.9584L22.4012 39.8953C19.4568 41.1494 17.5535 44.0282 17.5535 47.2298C17.5535 48.9255 16.1753 50.3037 14.4796 50.3037L14.4796 50.3037ZM6.89324 28.9459C4.37805 33.2686 2.58123 39.6772 1.82207 47.0719C1.78482 47.4391 1.90366 47.8063 2.14844 48.0759C2.38789 48.342 2.71604 48.4874 3.07256 48.4874L14.4796 48.4874C15.1731 48.4874 15.7372 47.9234 15.7372 47.2298C15.7372 43.2992 18.0732 39.7641 21.6899 38.2244L26.2431 36.2875C29.8421 34.755 32.7315 31.956 34.3758 28.4067L39.8017 16.6999C40.8004 14.5483 41.3751 12.2567 41.5134 9.89047L41.8238 4.54791C41.8682 3.80116 41.595 3.06328 41.0771 2.52406C40.6265 2.05578 40.0554 1.80391 39.4257 1.81633C38.8776 1.82874 38.3473 2.03272 37.9357 2.38925C37.5065 2.75464 37.2245 3.26549 37.1358 3.83309L35.9686 11.5791C35.7629 12.952 35.2361 14.2805 34.445 15.421L30.4221 21.2265C30.0354 21.787 29.5423 22.2695 28.9552 22.6668L28.9552 28.0378C28.9552 28.5397 28.549 28.9459 28.0471 28.9459L6.89324 28.9459L6.89324 28.9459Z" id="Shape" fill="#000000" stroke="none" />
    </g>
    <g id="Group" transform="translate(0 38.692944)">
      <g id="Group">
        <path d="M17.0465 37.1257L21.5974 39.0627C24.8732 40.4571 26.9995 43.6731 26.9995 47.2333L26.9995 47.2333C26.9995 48.4294 27.9692 49.3991 29.1654 49.3991L40.5716 49.3991C41.8659 49.3991 42.8574 48.271 42.7253 46.9834C41.8974 38.9177 39.8886 31.9507 36.8987 27.4222C34.1686 24.2396 27.2548 17.111 23.4558 12.9105C22.8397 12.2297 21.9887 11.8756 21.1241 11.8756C20.5454 11.8756 19.9633 12.0357 19.4424 12.3625C17.8936 13.3428 17.5089 15.4328 18.6084 16.9002L23.5203 23.3915C23.7781 23.7322 23.4683 24.2085 23.0524 24.111L17.0936 22.7144C15.8274 22.4932 14.7005 21.7716 13.9687 20.7128L9.94587 14.9066C9.23001 13.8734 8.76044 12.6899 8.5732 11.4469L7.40553 3.69578C7.28297 2.89581 6.8813 2.19808 6.30267 1.70436C5.74415 1.22193 5.02216 0.928737 4.23927 0.91199C2.29625 0.870428 0.800815 2.66496 0.913828 4.60514L1.22502 9.9476C1.36891 12.4179 1.97707 14.8389 3.01767 17.084L8.4438 28.7907C10.1807 32.5382 13.246 35.5081 17.0465 37.1257L17.0465 37.1257Z" id="Path" fill="#FFFFFF" stroke="none" />
        <path d="M40.5716 50.3071L29.1645 50.3071C27.4688 50.3071 26.0906 48.9288 26.0906 47.2331C26.0906 44.0315 24.1874 41.1527 21.243 39.8987L16.6915 37.9617C16.6897 37.9617 16.6897 37.9617 16.6897 37.9617C12.6757 36.2518 9.45457 33.1318 7.61873 29.1727L2.19281 17.466C1.10195 15.1122 0.470493 12.6005 0.31795 10.0002L0.00754221 4.65766C-0.0651819 3.40539 0.390674 2.17086 1.25981 1.26801C2.06687 0.427253 3.11339 -0.0445666 4.25924 0.0033248C5.22948 0.0263836 6.16425 0.384682 6.89681 1.01614C7.65066 1.66001 8.15086 2.56463 8.3034 3.55971L9.47053 11.3128C9.63727 12.4143 10.0594 13.4786 10.6927 14.3885L14.7155 20.194C15.3062 21.0489 16.2303 21.6414 17.2502 21.8205L22.0411 22.9415L17.8852 17.4482C17.2059 16.5436 16.9363 15.3924 17.1403 14.2838C17.3425 13.177 18.0058 12.1961 18.9566 11.5948C20.6009 10.5643 22.8482 10.8871 24.1289 12.3008C25.7749 14.1207 28.0063 16.4904 30.227 18.8495C33.0792 21.8808 36.029 25.0133 37.5881 26.8314C40.6496 31.4556 42.771 38.5471 43.6278 46.8908C43.7182 47.767 43.4344 48.6433 42.8455 49.296C42.2655 49.9381 41.4372 50.3071 40.5716 50.3071L40.5716 50.3071ZM17.4028 36.2908L21.9525 38.2278C25.5691 39.7674 27.907 43.3007 27.907 47.2331C27.907 47.9267 28.471 48.4907 29.1645 48.4907L40.5716 48.4907C40.9299 48.4907 41.258 48.3453 41.4975 48.0792C41.7405 47.8078 41.8593 47.4424 41.8221 47.077C40.9937 39.0189 38.977 32.2165 36.1407 27.9223C34.6774 26.2283 31.7418 23.1101 28.9038 20.0947C26.6742 17.7267 24.4339 15.3463 22.7826 13.5193C22.0748 12.7407 20.8368 12.5597 19.9251 13.1327C19.3965 13.4679 19.0399 13.9929 18.9264 14.612C18.8111 15.2328 18.9584 15.8518 19.3362 16.3556L24.2441 22.844C24.5954 23.3087 24.6166 23.9242 24.3009 24.4102C23.9834 24.8962 23.4211 25.125 22.8447 24.9956L16.8866 23.5996C15.441 23.3477 14.0876 22.4804 13.222 21.2281L9.19915 15.4244C8.40983 14.2874 7.88302 12.9588 7.67549 11.5842L6.50836 3.83109C6.42144 3.26881 6.13942 2.75974 5.71372 2.39612C5.29688 2.03428 4.76653 1.83207 4.21844 1.81965C3.63487 1.81433 3.02115 2.05556 2.56707 2.52738C2.04914 3.0666 1.77598 3.80448 1.82032 4.55124L2.13073 9.89379C2.27086 12.2653 2.84555 14.5552 3.8424 16.7032L9.26832 28.41C10.9126 31.9593 13.802 34.7583 17.4028 36.2908L17.4028 36.2908Z" id="Shape" fill="#000000" stroke="none" />
      </g>
      <g id="Group" transform="translate(41.830383 0.0033248013)">
        <path d="M26.5973 37.1224L22.0464 39.0594C18.7706 40.4537 16.6443 43.6698 16.6443 47.2299L16.6443 47.23C16.6443 48.4261 15.6746 49.3958 14.4784 49.3958L3.07226 49.3958C1.7779 49.3958 0.786389 48.2677 0.918551 46.9801C1.74642 38.9144 3.75526 31.9473 6.74516 27.4189C9.47522 24.2363 16.389 17.1077 20.188 12.9072C20.8042 12.2263 21.6552 11.8723 22.5197 11.8723C23.0985 11.8723 23.6806 12.0323 24.2014 12.3592C25.7502 13.3395 26.1349 15.4295 25.0354 16.8969L20.1235 23.3882C19.8657 23.7288 20.1755 24.2052 20.5914 24.1077L26.5502 22.7111C27.8165 22.4899 28.9433 21.7683 29.6751 20.7095L33.698 14.9033C34.4138 13.8701 34.8834 12.6866 35.0706 11.4436L36.2383 3.69245C36.3609 2.89248 36.7625 2.19476 37.3412 1.70104C37.8997 1.2186 38.6217 0.925412 39.4046 0.908666C41.3476 0.867103 42.843 2.66164 42.73 4.60181L42.4188 9.94427C42.2749 12.4146 41.6668 14.8356 40.6262 17.0807L35.2 28.7874C33.4631 32.5348 30.3978 35.5047 26.5973 37.1224L26.5973 37.1224Z" id="Path" fill="#FFFFFF" stroke="none" />
        <path d="M14.478 50.3037L3.07271 50.3037C2.20711 50.3037 1.37877 49.9348 0.79875 49.2927C0.209862 48.6399 -0.0739386 47.7637 0.016523 46.8857C0.8697 38.549 2.99111 31.4576 5.98699 26.9185C7.61707 25.0082 10.5686 21.8722 13.4243 18.8373C15.6433 16.4817 17.8712 14.1156 19.5137 12.2992C20.7961 10.8838 23.047 10.5645 24.6842 11.5897C25.6384 12.1928 26.3018 13.1737 26.504 14.2805C26.708 15.3891 26.4384 16.5403 25.7626 17.4413L21.6049 22.9364L26.3426 21.8261C27.414 21.6381 28.3381 21.0456 28.9288 20.1924L32.9516 14.3852C33.5849 13.4717 34.007 12.4074 34.1737 11.3077L35.3409 3.55816C35.4934 2.55776 35.9954 1.65314 36.7528 1.00927C37.48 0.381358 38.4148 0.0230588 39.3833 0C40.5291 0.00709512 41.5774 0.425702 42.3845 1.26469C43.2536 2.16753 43.7095 3.40206 43.6367 4.65434L43.3246 9.99689C43.1738 12.5901 42.5441 15.1018 41.4515 17.4626L36.0256 29.1694C34.1879 33.1284 30.9668 36.2503 26.9546 37.9584C26.9546 37.9584 26.9546 37.9584 26.9528 37.9584L22.4013 39.8953C19.4551 41.1494 17.5519 44.0282 17.5519 47.2298C17.5519 48.9255 16.1737 50.3037 14.478 50.3037ZM22.5202 12.7799C21.8816 12.7799 21.291 13.0424 20.8599 13.5178C19.2103 15.3412 16.9754 17.7163 14.7476 20.0825C11.906 23.1014 8.9669 26.2232 7.4326 28.0094C4.66554 32.2185 2.64878 39.0191 1.82221 47.0719C1.78496 47.4391 1.9038 47.8045 2.1468 48.0759C2.38626 48.342 2.71441 48.4874 3.07271 48.4874L14.478 48.4874C15.1715 48.4874 15.7356 47.9234 15.7356 47.2298C15.7356 43.2992 18.0734 39.7641 21.6918 38.2244L26.2415 36.2875C29.8405 34.755 32.7299 31.956 34.3777 28.4049L39.8019 16.6999C40.7987 14.5466 41.3734 12.2567 41.5118 9.89047L41.824 4.54791C41.8683 3.80116 41.5951 3.06328 41.0772 2.52583C40.6267 2.05578 40.0573 1.80391 39.4241 1.81633C38.8778 1.82874 38.3474 2.03095 37.9359 2.38925C37.5049 2.75464 37.2228 3.26549 37.1359 3.82954L35.9688 11.5791C35.7613 12.952 35.2345 14.2805 34.4451 15.4193L30.4223 21.2265C29.5567 22.477 28.2033 23.3444 26.7062 23.6051L20.7996 24.9922C20.2285 25.1217 19.6591 24.8929 19.3434 24.4069C19.0276 23.9209 19.0489 23.3054 19.3984 22.8407L24.3117 16.3487C24.6859 15.8485 24.8331 15.2295 24.7179 14.6087C24.6043 13.9896 24.2478 13.4646 23.7157 13.1276C23.3538 12.9005 22.9406 12.7799 22.5202 12.7799Z" id="Shape" fill="#000000" stroke="none" />
      </g>
    </g>
    <g id="Group" transform="translate(24.167877 0)">
      <g id="Group" transform="translate(18.603157 0.0035474673)">
        <path d="M18.4413 43.5924L17.7327 43.5924C17.0973 35.5279 13.973 28.8619 9.77743 26.083C9.06881 25.6107 9.06881 24.539 9.77743 24.0669C13.973 21.2879 17.0973 14.6402 17.7327 6.55748L18.4413 6.55748C20.0031 6.55748 21.2565 5.30421 21.2565 3.74219C21.2565 2.18007 20.0031 0.90873 18.4413 0.90873L0.907762 0.90873L0.907762 49.2412L18.4413 49.2412C20.0031 49.2412 21.2565 47.9879 21.2565 46.4259C21.2565 44.8637 20.0031 43.5924 18.4413 43.5924Z" id="Path" fill="#000000" stroke="none" />
        <path d="M18.4417 50.1494L0.908163 50.1494C0.40619 50.1494 0 49.7432 0 49.2413L0 0.908163C0 0.40619 0.40619 0 0.908163 0L18.4417 0C20.494 0 22.1649 1.67975 22.1649 3.74263C22.1649 5.75584 20.5596 7.40011 18.5624 7.46397C17.7713 15.3359 14.6335 21.9414 10.2789 24.8237C10.1672 24.8982 10.1548 25.0242 10.1548 25.0756C10.1548 25.1377 10.1707 25.2547 10.2807 25.3275C14.6335 28.2098 17.7695 34.8135 18.5624 42.6854C20.5596 42.7493 22.1649 44.4024 22.1649 46.4263C22.1649 48.4785 20.494 50.1494 18.4417 50.1494ZM1.81633 48.3331L18.4417 48.3331C19.4936 48.3331 20.3485 47.4781 20.3485 46.4263C20.3485 45.3638 19.4936 44.5 18.4417 44.5L17.7322 44.5C17.2586 44.5 16.8649 44.1364 16.8276 43.6628C16.221 35.97 13.328 29.5242 9.27497 26.8405C8.68786 26.4485 8.33843 25.7904 8.33843 25.0774C8.33665 24.3625 8.68609 23.7027 9.27142 23.3107C13.3298 20.627 16.2228 14.1794 16.8276 6.48663C16.8649 6.01481 17.2586 5.64941 17.7322 5.64941L18.4417 5.64941C19.4936 5.64941 20.3485 4.79446 20.3485 3.74263C20.3485 2.68015 19.4936 1.81633 18.4417 1.81633L1.81633 1.81633L1.81633 48.3331L1.81633 48.3331Z" id="Shape" fill="#000000" stroke="none" />
      </g>
      <g id="Group" transform="translate(3.4016838 3.6574852)">
        <g id="Group">
          <path d="M29.4305 41.937L0.908717 41.937C1.16149 32.9855 4.45395 25.435 9.00094 22.4255C9.70491 21.9596 9.70491 20.8863 9.00094 20.4203C4.45394 17.4109 1.16149 9.86042 0.908717 0.908966L29.4305 0.908966C29.1778 9.86042 25.8853 17.4109 21.3383 20.4203C20.6344 20.8863 20.6344 21.9596 21.3383 22.4255C25.8853 25.435 29.1778 32.9855 29.4305 41.937Z" id="Path" fill="#FFFFFF" stroke="none" />
          <path d="M29.4305 42.8451L0.908544 42.8451C0.663766 42.8451 0.427856 42.7458 0.257576 42.5702C0.0855213 42.3946 -0.00671394 42.1569 0.000380993 41.9103C0.257576 32.8624 3.59224 24.916 8.49845 21.6682C8.60842 21.5955 8.62084 21.4731 8.62084 21.4217C8.62084 21.372 8.60842 21.2496 8.49845 21.1769C3.59224 17.9309 0.257576 9.98447 0.000380993 0.93477C-0.00671412 0.688218 0.0855213 0.450534 0.257576 0.274932C0.427856 0.0993304 0.663766 0 0.908544 0L29.4305 0C29.6753 0 29.9112 0.0993304 30.0815 0.274932C30.2536 0.450534 30.3458 0.688218 30.3387 0.93477C30.0815 9.98447 26.7469 17.9309 21.8406 21.1769C21.7307 21.2496 21.7183 21.372 21.7183 21.4217C21.7183 21.4731 21.7307 21.5955 21.8406 21.6682C26.7469 24.916 30.0815 32.8624 30.3387 41.9103C30.3458 42.1569 30.2536 42.3946 30.0815 42.5702C29.9112 42.7458 29.6753 42.8451 29.4305 42.8451ZM1.85396 41.0288L28.4851 41.0288C28.0577 32.9493 25.1026 26.0068 20.8367 23.183C20.2514 22.7945 19.9019 22.1365 19.9019 21.4217C19.9019 20.7086 20.2514 20.0505 20.8367 19.6621C25.1026 16.84 28.0577 9.89756 28.4851 1.81633L1.85396 1.81633C2.28143 9.89756 5.23651 16.84 9.50239 19.6621C10.0877 20.0505 10.4372 20.7086 10.4372 21.4217C10.4372 22.1365 10.0877 22.7945 9.50239 23.183C5.23651 26.0068 2.28143 32.9493 1.85396 41.0288L1.85396 41.0288Z" id="Shape" fill="#000000" stroke="none" />
        </g>
        <path d="M13.3635 27.7808C15.1244 24.7317 14.1553 21.2925 11.6144 19.6025C9.87707 18.4561 8.0334 15.7261 6.86339 11.7787C6.63884 11.046 7.26517 10.3487 8.00974 10.4787C12.7017 11.3178 18.5636 7.81959 23.1019 9.58052C23.5982 9.76958 23.8818 10.2896 23.7519 10.7978C22.6291 15.1706 20.6909 18.2198 18.859 19.5198C17.9609 20.1462 17.1336 20.8907 16.6726 21.8834C15.349 24.7908 16.3418 27.9226 18.729 29.4945C20.8682 30.9127 23.2083 34.7419 24.2128 40.3319L6.13065 40.3319C7.12336 34.7537 9.45162 30.9364 11.5907 29.5063C12.288 29.0454 12.9498 28.5135 13.3635 27.7808Z" id="Path" fill="#9765ff" stroke="none" />
      </g>
      <g id="Group">
        <g id="Group">
          <path d="M36.2352 3.74189C36.2352 5.3039 34.9818 6.55717 33.42 6.55717L3.74105 6.55717C2.17904 6.55717 0.907476 5.3039 0.907476 3.74189C0.907476 2.17976 2.17904 0.908423 3.74105 0.908423L33.42 0.908423C34.9818 0.908423 36.2352 2.17976 36.2352 3.74189Z" id="Path" fill="#DDDDDD" stroke="none" />
          <path d="M33.4193 7.46574L3.74085 7.46574C1.67797 7.46574 0 5.79486 0 3.74263C0 1.67975 1.67797 0 3.74085 0L33.4193 0C35.4716 0 37.1425 1.67975 37.1425 3.74263C37.1425 5.79486 35.4716 7.46574 33.4193 7.46574ZM3.74085 1.81633C2.68015 1.81633 1.81633 2.68015 1.81633 3.74263C1.81633 4.79446 2.68015 5.64941 3.74085 5.64941L33.4193 5.64941C34.4712 5.64941 35.3261 4.79446 35.3261 3.74263C35.3261 2.68015 34.4712 1.81633 33.4193 1.81633L3.74085 1.81633Z" id="Shape" fill="#000000" stroke="none" />
        </g>
        <g id="Group" transform="translate(0 42.69609)">
          <path d="M36.2352 3.74112C36.2352 5.30313 34.9818 6.5564 33.42 6.5564L3.74105 6.5564C2.17904 6.5564 0.907476 5.30313 0.907476 3.74112C0.907476 2.17899 2.17904 0.907651 3.74105 0.907651L33.42 0.907651C34.9818 0.907651 36.2352 2.17899 36.2352 3.74112Z" id="Path" fill="#DDDDDD" stroke="none" />
          <path d="M33.4193 7.46397L3.74085 7.46397C1.67797 7.46397 0 5.79309 0 3.74085C0 1.67797 1.67797 0 3.74085 0L33.4193 0C35.4716 0 37.1425 1.67797 37.1425 3.74085C37.1425 5.79309 35.4716 7.46397 33.4193 7.46397ZM3.74085 1.81633C2.68015 1.81633 1.81633 2.68015 1.81633 3.74085C1.81633 4.79269 2.68015 5.64764 3.74085 5.64764L33.4193 5.64764C34.4889 5.64764 35.3261 4.81043 35.3261 3.74085C35.3261 2.68015 34.4712 1.81633 33.4193 1.81633L3.74085 1.81633Z" id="Shape" fill="#000000" stroke="none" />
        </g>
      </g>
    </g>
  </g>
</svg>