<?xml version="1.0" encoding="utf-8"?>
<svg width="89.00171px" height="89px" viewBox="0 0 89.00171 89" version="1.1" xmlns:xlink="http://www.w3.org/1999/xlink" xmlns="http://www.w3.org/2000/svg">
  <g id="008-telecommunication">
    <g id="Group" transform="translate(61.233284 0)">
      <path d="M6.15387 0.909132C4.33796 0.909132 2.58647 1.16638 0.908358 1.60514L0.908358 42.3197L6.15387 42.3197C17.5921 42.3197 26.8592 33.0527 26.8592 21.6144C26.8592 10.1762 17.5921 0.909132 6.15387 0.909132Z" id="Path" fill="#000000" stroke="none" />
      <path d="M6.1535 43.228L0.908344 43.228C0.406271 43.228 0 42.8217 0 42.3196L0 1.60557C0 1.1922 0.278535 0.832057 0.67771 0.727385C2.51835 0.244827 4.35988 0 6.1535 0C18.072 0 27.7684 9.69551 27.7684 21.614C27.7684 33.5325 18.072 43.228 6.1535 43.228ZM1.81669 41.4113L6.1535 41.4113C17.0705 41.4113 25.9517 32.5301 25.9517 21.614C25.9517 10.6979 17.0705 1.81669 6.1535 1.81669C4.7351 1.81669 3.27856 1.98523 1.81669 2.31876L1.81669 41.4113Z" id="Shape" fill="#000000" stroke="none" />
    </g>
    <g id="Group" transform="translate(0 6.772389)">
      <g id="Group" transform="translate(0 6.907806)">
        <path d="M46.2162 47.0393L65.8715 68.4569L63.1757 70.7152C57.1492 75.7639 48.2817 75.6689 42.4327 70.4149C34.8163 63.5627 27.7051 56.2668 21.1509 48.4432C14.5967 40.6196 8.65967 32.3401 3.24792 23.6409C-0.899978 16.9617 0.560169 8.21473 6.58667 3.16605L9.28241 0.907703L26.9249 24.0117C23.7295 28.7888 27.1854 34.131 31.7302 39.5804C36.299 45.0098 40.9531 49.3483 46.2162 47.0393Z" id="Path" fill="#FFFFFF" stroke="none" />
        <path d="M52.9571 75.3198C48.9529 75.3198 44.9603 73.9058 41.8263 71.0903C34.0495 64.095 26.859 56.6721 20.4545 49.0275C14.0508 41.3829 8.00289 33.0037 2.47742 24.1208C-1.87713 17.1095 -0.361151 7.80073 6.00258 2.46953L8.69834 0.21286C8.88995 0.0531903 9.13655 -0.0213225 9.38226 0.00528928C9.62886 0.033675 9.85329 0.159637 10.0041 0.356563L27.6467 23.4608C27.8827 23.7695 27.896 24.1953 27.6795 24.5182C24.9723 28.5631 27.6201 33.2326 32.4271 38.9985C37.2597 44.7377 41.3925 48.16 45.8509 46.2067C46.2084 46.0541 46.6226 46.1392 46.8852 46.4249L66.5405 67.8437C66.7091 68.0264 66.7942 68.2695 66.7783 68.5161C66.7623 68.7645 66.6452 68.9951 66.4554 69.153L63.7596 71.4114C60.6443 74.0212 56.7945 75.3198 52.9571 75.3198L52.9571 75.3198ZM9.13655 2.21406L7.16995 3.8622C1.49368 8.61682 0.140035 16.9143 4.02001 23.1627C9.50024 31.973 15.4985 40.2811 21.8472 47.8601C28.1976 55.4409 35.3277 62.8017 43.0407 69.7385C48.5094 74.6545 56.9151 74.7769 62.5931 70.0188L64.5597 68.3724L45.9697 48.1138C40.407 50.0866 35.5078 45.4811 31.0353 40.1658C26.5823 34.8257 22.9063 29.1965 25.8238 24.0675L9.13655 2.21406Z" id="Shape" fill="#000000" stroke="none" />
      </g>
      <g id="Group" transform="translate(10.518597 0)">
        <path d="M24.8248 18.3821C26.6039 19.9705 26.5691 22.7522 24.748 24.2778L19.7279 28.4834L0.908396 6.01889L5.92846 1.81335C7.74961 0.287699 10.5045 0.752904 11.7465 2.77085C15.3338 8.63501 19.6899 13.8348 24.8248 18.3821Z" id="Path" fill="#DDDDDD" stroke="none" />
        <path d="M19.729 29.3911C19.4691 29.3911 19.2118 29.2811 19.0317 29.0664L0.211988 6.60263C-0.110013 6.21764 -0.0594514 5.64461 0.324643 5.32349L5.34449 1.11708C6.40984 0.224701 7.8034 -0.165604 9.18721 0.0650305C10.571 0.290342 11.7863 1.10288 12.5199 2.29509C16.0433 8.05385 20.3854 13.2378 25.4274 17.7032C25.4283 17.7032 25.4292 17.705 25.4301 17.705C26.4777 18.64 27.0667 19.9794 27.0445 21.3792C27.0223 22.7701 26.3979 24.0812 25.3316 24.9735L20.3118 29.1799C20.1415 29.3219 19.9339 29.3911 19.729 29.3911L19.729 29.3911ZM2.18746 6.13249L19.8407 27.2036L24.1642 23.5809C24.8269 23.0273 25.2145 22.213 25.2278 21.3508C25.242 20.4797 24.8748 19.6441 24.2201 19.0604C19.0442 14.4761 14.5867 9.15557 10.9711 3.24424C10.516 2.50443 9.75847 1.99881 8.89537 1.85866C8.04468 1.71673 7.17182 1.95801 6.51096 2.50975L2.18746 6.13249Z" id="Shape" fill="#000000" stroke="none" />
      </g>
      <g id="Group" transform="translate(7.060542 4.5813365)">
        <path d="M4.54209 1.64721L23.0204 23.7044C23.7531 24.579 23.6284 25.866 22.7657 26.5887C21.8911 27.3214 20.602 27.2187 19.8694 26.3441L1.39106 4.28697C0.658377 3.41237 0.773078 2.11325 1.64767 1.38056C2.51034 0.657856 3.8094 0.772617 4.54209 1.64721L4.54209 1.64721Z" id="Path" fill="#283E42" stroke="none" />
        <path d="M21.4378 27.9801C20.5924 27.9801 19.755 27.6217 19.1731 26.928L0.69486 4.87051C0.184804 4.26199 -0.0582496 3.49025 0.0118277 2.70077C0.081905 1.91129 0.455355 1.19455 1.06387 0.685385C1.66885 0.177989 2.44768 -0.0508711 3.22563 0.00944862C4.01422 0.0821872 4.72919 0.456524 5.23835 1.06327L23.7166 23.1208C24.7624 24.3698 24.5983 26.2379 23.3494 27.2846C22.7914 27.753 22.1119 27.9801 21.4378 27.9801L21.4378 27.9801ZM2.95508 1.81372C2.68896 1.81372 2.43526 1.90597 2.23124 2.07629C1.99351 2.27499 1.84892 2.55352 1.82142 2.86044C1.79481 3.16736 1.88884 3.46719 2.08754 3.70315L20.5658 25.7607C20.7627 25.9966 21.0377 26.1385 21.3393 26.1652C21.6471 26.1882 21.9434 26.0942 22.182 25.8937C22.6637 25.4892 22.7275 24.7689 22.3239 24.2881L3.84568 2.23063C3.64698 1.9929 3.36844 1.84743 3.06152 1.81904C3.02604 1.81549 2.99056 1.81372 2.95508 1.81372Z" id="Shape" fill="#000000" stroke="none" />
      </g>
      <g id="Group" transform="translate(48.288513 45.08427)">
        <path d="M11.746 2.77121C10.494 0.741275 7.74923 0.288136 5.92808 1.81379L0.908017 6.01933L19.7275 28.4838L24.7476 24.2783C26.5688 22.7526 26.5934 19.9589 24.8243 18.3825C19.6794 13.8232 15.3233 8.62339 11.746 2.77121L11.746 2.77121Z" id="Path" fill="#DDDDDD" stroke="none" />
        <path d="M19.7272 29.3923C19.7006 29.3923 19.674 29.3905 19.6474 29.3887C19.407 29.3674 19.1852 29.2521 19.0309 29.0676L0.211988 6.60381C-0.110013 6.21883 -0.0594514 5.64579 0.324643 5.32468L5.34449 1.11826C6.40984 0.222338 7.8105 -0.159096 9.18277 0.0608937C10.5648 0.284432 11.781 1.09875 12.519 2.2945C12.5199 2.29627 12.5208 2.29627 12.5216 2.29805C16.0326 8.04261 20.3747 13.2248 25.4265 17.7026C26.4741 18.6358 27.0623 19.9753 27.0401 21.3786C27.0188 22.7713 26.3961 24.0823 25.3316 24.9729L20.3109 29.1794C20.1468 29.3177 19.9401 29.3923 19.7272 29.3923L19.7272 29.3923ZM2.18746 6.13367L19.8399 27.2048L24.1642 23.582C24.8242 23.0285 25.2101 22.216 25.2243 21.3502C25.2376 20.4756 24.8712 19.6417 24.2201 19.0598C19.0353 14.4649 14.577 9.14434 10.9711 3.24542C10.5098 2.5003 9.75315 1.9929 8.89359 1.85452C8.0367 1.70727 7.1727 1.95564 6.51185 2.50917L2.18746 6.13367Z" id="Shape" fill="#000000" stroke="none" />
      </g>
      <g id="Group" transform="translate(44.828667 49.661594)">
        <path d="M23.0117 23.6968L4.53345 1.63967C3.80076 0.765076 2.51175 0.662309 1.64908 1.38501C0.774488 2.1177 0.649739 3.40483 1.38243 4.27943L19.8607 26.3366C20.5934 27.2112 21.8925 27.3259 22.7671 26.5932C23.6298 25.8705 23.7444 24.5714 23.0117 23.6968Z" id="Path" fill="#283E42" stroke="none" />
        <path d="M21.4457 27.9835C21.3579 27.9835 21.2701 27.9799 21.1814 27.9728C20.391 27.9037 19.6743 27.5293 19.1642 26.9208L0.686005 4.86329C-0.36072 3.61254 -0.190406 1.74086 1.06566 0.68881C2.3173 -0.357915 4.18366 -0.192923 5.2295 1.05605L23.7077 23.1136C24.2169 23.7221 24.46 24.4903 24.3925 25.2797C24.3251 26.0692 23.9552 26.7824 23.3503 27.2898C22.81 27.7422 22.1421 27.9835 21.4457 27.9835L21.4457 27.9835ZM2.96219 1.81537C2.70405 1.81537 2.44503 1.9023 2.23214 2.08149C1.99352 2.28019 1.84627 2.55872 1.81789 2.86387C1.7895 3.16547 1.88172 3.46174 2.07868 3.69593L20.5569 25.7534C20.7556 25.9912 21.0333 26.1366 21.3402 26.1633C21.6409 26.1774 21.9469 26.0958 22.1838 25.8971C22.4153 25.7038 22.5563 25.4288 22.5821 25.1254C22.6087 24.8167 22.5138 24.5169 22.3151 24.2809L3.83682 2.22341C3.61151 1.95375 3.28774 1.81537 2.96219 1.81537L2.96219 1.81537Z" id="Shape" fill="#000000" stroke="none" />
      </g>
    </g>
    <g id="Group" transform="translate(41.3189 0)">
      <path d="M42.319 21.6144C42.319 33.0527 33.052 42.3197 21.6137 42.3197L4.84803 42.3197L9.88445 38.6711C4.46754 34.933 0.908403 28.6878 0.908403 21.6144C0.908403 10.1762 10.1755 0.909131 21.6137 0.909131C33.052 0.909131 42.319 10.1762 42.319 21.6144Z" id="Path" fill="#FFFFFF" stroke="none" />
      <path d="M21.614 43.228L4.84776 43.228C4.4539 43.228 4.10529 42.9743 3.98376 42.5999C3.86224 42.2256 3.99618 41.8158 4.31464 41.5834L8.34275 38.665C3.09582 34.5739 0 28.29 0 21.614C0 9.69551 9.6964 0 21.614 0C33.5316 0 43.2271 9.69551 43.2271 21.614C43.2271 33.5325 33.5316 43.228 21.614 43.228L21.614 43.228ZM7.64996 41.4113L21.614 41.4113C32.5301 41.4113 41.4104 32.5301 41.4104 21.614C41.4104 10.6979 32.5301 1.81669 21.614 1.81669C10.6979 1.81669 1.81669 10.6979 1.81669 21.614C1.81669 28.1179 5.02517 34.2137 10.4007 37.9234C10.6429 38.0901 10.7893 38.3651 10.7928 38.6596C10.7963 38.9541 10.6562 39.2327 10.4176 39.4065L7.64996 41.4113Z" id="Shape" fill="#000000" stroke="none" />
    </g>
    <path d="M75.1032 15.1482L74.2524 26.8828C74.2035 27.6163 73.8417 28.3008 73.255 28.7409L64.4833 35.4198C63.5641 36.1141 62.2928 36.1141 61.3736 35.4198L52.6118 28.7409C52.025 28.3008 51.6632 27.626 51.6143 26.8828L50.7636 15.1384C50.6755 14.0334 51.321 12.9969 52.3575 12.5764L61.9604 8.67461C62.5765 8.42035 63.2707 8.42035 63.8966 8.67461L73.5092 12.5764C74.5458 12.9969 75.1814 14.0334 75.1032 15.1482L75.1032 15.1482Z" id="Path" fill="#9765ff" stroke="none" />
    <path d="M55.0788 25.7499L54.3805 16.0972C54.3502 15.678 54.5933 15.2869 54.9827 15.1287L62.5617 12.0484C62.7958 11.9533 63.0577 11.9532 63.2918 12.0483L70.8822 15.1302C71.2717 15.2884 71.515 15.6795 71.4847 16.0988L70.7871 25.7482C70.7671 26.0258 70.6287 26.2814 70.4072 26.4499L63.5152 31.6963C63.168 31.9606 62.687 31.9605 62.3399 31.696L55.4582 26.4513C55.237 26.2827 55.0988 26.0273 55.0788 25.7499L55.0788 25.7499Z" id="Path" fill="#9765ff" stroke="none" />
    <path d="M61.7797 24.614C61.5384 24.614 61.3078 24.5182 61.1375 24.3479L59.2622 22.4727C58.9074 22.1178 58.9074 21.543 59.2622 21.1882C59.6171 20.8334 60.1919 20.8334 60.5467 21.1882L61.7797 22.4212L65.3182 18.8819C65.673 18.527 66.2478 18.527 66.6026 18.8819C66.9575 19.2367 66.9575 19.8115 66.6026 20.1663L62.4219 24.3479C62.2516 24.5182 62.021 24.614 61.7797 24.614L61.7797 24.614Z" id="Path" fill="#FFFFFF" stroke="none" />
  </g>
</svg>