<?xml version="1.0" encoding="utf-8"?>
<svg width="90.08276px" height="89px" viewBox="0 0 90.08276 89" version="1.1" xmlns:xlink="http://www.w3.org/1999/xlink" xmlns="http://www.w3.org/2000/svg">
  <g id="026-database">
    <g id="Group" transform="translate(0 16.379904)">
      <g id="Group" transform="translate(57.55239 0)">
        <path d="M14.6671 0.916108L0.917241 0.916108L0.917241 24.5118L14.6671 24.5118C18.0713 24.5118 20.8259 21.7573 20.8259 18.353L20.8259 7.10095C20.8259 3.67074 18.0713 0.916108 14.6671 0.916108L14.6671 0.916108Z" id="Path" fill="#000000" stroke="none" />
        <path d="M14.6666 25.4292L0.916884 25.4292C0.410091 25.4292 0 25.0191 0 24.5123L0 0.916884C0 0.410091 0.410091 0 0.916884 0L14.6666 0C18.5687 0 21.742 3.18581 21.742 7.10048L21.742 18.3538C21.742 22.2559 18.5687 25.4292 14.6666 25.4292ZM1.83377 23.5954L14.6666 23.5954C17.5569 23.5954 19.9082 21.2441 19.9082 18.3538L19.9082 7.10048C19.9082 4.19582 17.5569 1.83377 14.6666 1.83377L1.83377 1.83377L1.83377 23.5954L1.83377 23.5954Z" id="Shape" fill="#000000" stroke="none" />
      </g>
      <g id="Group">
        <path d="M71.73 7.10099L71.73 18.353C71.73 21.7573 68.9755 24.5118 65.5712 24.5118L7.10155 24.5118C3.69732 24.5118 0.916745 21.7573 0.916745 18.353L0.916745 7.10099C0.916745 3.67075 3.69732 0.916186 7.10155 0.916186L65.5712 0.916186C68.9755 0.916186 71.73 3.67075 71.73 7.10099L71.73 7.10099Z" id="Path" fill="#DDDDDD" stroke="none" />
        <path d="M65.5715 25.4292L7.10227 25.4292C3.18581 25.4292 0 22.2559 0 18.3538L0 7.10048C0 3.18581 3.18581 0 7.10227 0L65.5715 0C69.4737 0 72.647 3.18581 72.647 7.10048L72.647 18.3538C72.647 22.2559 69.4737 25.4292 65.5715 25.4292ZM7.10227 1.83377C4.19761 1.83377 1.83377 4.19582 1.83377 7.10048L1.83377 18.3538C1.83377 21.2441 4.19761 23.5954 7.10227 23.5954L65.5715 23.5954C68.4619 23.5954 70.8132 21.2441 70.8132 18.3538L70.8132 7.10048C70.8132 4.19582 68.4619 1.83377 65.5715 1.83377L7.10227 1.83377Z" id="Shape" fill="#000000" stroke="none" />
      </g>
      <g id="Group" transform="translate(36.19365 5.426092)">
        <path d="M30.1168 2.77938L30.1168 11.8376C30.1168 12.8501 29.2852 13.6637 28.2727 13.6637L2.76138 13.6637C1.74889 13.6637 0.917266 12.832 0.917266 11.8014L0.917266 2.77938C0.917266 1.7488 1.74889 0.917068 2.76138 0.917068L28.2546 0.917068C29.2852 0.917068 30.1168 1.7488 30.1168 2.77938L30.1168 2.77938Z" id="Path" fill="#FFFFFF" stroke="none" />
        <path d="M28.273 14.5806L2.7614 14.5806C1.23923 14.5806 0 13.3342 0 11.8013L0 2.77931C0 1.24639 1.23923 0 2.7614 0L28.2551 0C29.788 0 31.0344 1.24639 31.0344 2.77931L31.0344 11.8371C31.0344 13.3503 29.7952 14.5806 28.273 14.5806L28.273 14.5806ZM2.7614 1.83377C2.24923 1.83377 1.83377 2.25819 1.83377 2.77931L1.83377 11.8013C1.83377 12.3224 2.24923 12.7468 2.7614 12.7468L28.273 12.7468C28.7851 12.7468 29.2006 12.3385 29.2006 11.8371L29.2006 2.77931C29.2006 2.25819 28.7762 1.83377 28.2551 1.83377L2.7614 1.83377Z" id="Shape" fill="#000000" stroke="none" />
      </g>
      <g id="Group" transform="translate(41.621532 11.797721)">
        <path d="M19.2528 1.83377L16.3768 1.83377C15.87 1.83377 15.4599 1.42368 15.4599 0.916884C15.4599 0.410091 15.87 0 16.3768 0L19.2528 0C19.7596 0 20.1697 0.410091 20.1697 0.916884C20.1697 1.42368 19.7596 1.83377 19.2528 1.83377Z" id="Path" fill="#000000" stroke="none" />
        <path d="M11.5219 1.83377L8.64593 1.83377C8.13914 1.83377 7.72905 1.42368 7.72905 0.916884C7.72905 0.410091 8.13914 0 8.64593 0L11.5219 0C12.0287 0 12.4388 0.410091 12.4388 0.916884C12.4388 1.42368 12.0287 1.83377 11.5219 1.83377Z" id="Path" fill="#000000" stroke="none" />
        <path d="M3.7911 1.83377L0.916884 1.83377C0.410091 1.83377 0 1.42368 0 0.916884C0 0.410091 0.410091 0 0.916884 0L3.7911 0C4.29789 0 4.70799 0.410091 4.70799 0.916884C4.70799 1.42368 4.29789 1.83377 3.7911 1.83377Z" id="Path" fill="#000000" stroke="none" />
      </g>
      <g id="Group" transform="translate(5.7645516 5.4243016)">
        <path d="M3.11597 1.83377L0.916884 1.83377C0.410091 1.83377 0 1.42368 0 0.916884C0 0.410091 0.410091 0 0.916884 0L3.11597 0C3.62277 0 4.03286 0.410091 4.03286 0.916884C4.03286 1.42368 3.62277 1.83377 3.11597 1.83377L3.11597 1.83377Z" id="Path" fill="#000000" stroke="none" />
        <path d="M9.2745 1.83377L7.07541 1.83377C6.56861 1.83377 6.15852 1.42368 6.15852 0.916884C6.15852 0.410091 6.56861 0 7.07541 0L9.2745 0C9.78129 0 10.1914 0.410091 10.1914 0.916884C10.1914 1.42368 9.78129 1.83377 9.2745 1.83377Z" id="Path" fill="#000000" stroke="none" />
        <path d="M15.433 1.83377L13.2339 1.83377C12.7271 1.83377 12.317 1.42368 12.317 0.916884C12.317 0.410091 12.7271 0 13.2339 0L15.433 0C15.9398 0 16.3499 0.410091 16.3499 0.916884C16.3499 1.42368 15.9398 1.83377 15.433 1.83377Z" id="Path" fill="#000000" stroke="none" />
        <path d="M21.5915 1.83377L19.3925 1.83377C18.8857 1.83377 18.4756 1.42368 18.4756 0.916884C18.4756 0.410091 18.8857 0 19.3925 0L21.5915 0C22.0983 0 22.5084 0.410091 22.5084 0.916884C22.5084 1.42368 22.0983 1.83377 21.5915 1.83377Z" id="Path" fill="#000000" stroke="none" />
      </g>
      <g id="Group" transform="translate(5.7645516 9.673845)">
        <path d="M3.11597 1.83377L0.916884 1.83377C0.410091 1.83377 0 1.42368 0 0.916884C0 0.410091 0.410091 0 0.916884 0L3.11597 0C3.62277 0 4.03286 0.410091 4.03286 0.916884C4.03286 1.42368 3.62277 1.83377 3.11597 1.83377L3.11597 1.83377Z" id="Path" fill="#000000" stroke="none" />
        <path d="M9.2745 1.83377L7.07541 1.83377C6.56861 1.83377 6.15852 1.42368 6.15852 0.916884C6.15852 0.410091 6.56861 0 7.07541 0L9.2745 0C9.78129 0 10.1914 0.410091 10.1914 0.916884C10.1914 1.42368 9.78129 1.83377 9.2745 1.83377Z" id="Path" fill="#000000" stroke="none" />
        <path d="M15.433 1.83377L13.2339 1.83377C12.7271 1.83377 12.317 1.42368 12.317 0.916884C12.317 0.410091 12.7271 0 13.2339 0L15.433 0C15.9398 0 16.3499 0.410091 16.3499 0.916884C16.3499 1.42368 15.9398 1.83377 15.433 1.83377Z" id="Path" fill="#000000" stroke="none" />
        <path d="M21.5915 1.83377L19.3925 1.83377C18.8857 1.83377 18.4756 1.42368 18.4756 0.916884C18.4756 0.410091 18.8857 0 19.3925 0L21.5915 0C22.0983 0 22.5084 0.410091 22.5084 0.916884C22.5084 1.42368 22.0983 1.83377 21.5915 1.83377Z" id="Path" fill="#000000" stroke="none" />
      </g>
      <g id="Group" transform="translate(5.7645516 13.9215975)">
        <path d="M3.11597 1.83377L0.916884 1.83377C0.410091 1.83377 0 1.42368 0 0.916884C0 0.410091 0.410091 0 0.916884 0L3.11597 0C3.62277 0 4.03286 0.410091 4.03286 0.916884C4.03286 1.42368 3.62277 1.83377 3.11597 1.83377L3.11597 1.83377Z" id="Path" fill="#000000" stroke="none" />
        <path d="M9.2745 1.83377L7.07541 1.83377C6.56861 1.83377 6.15852 1.42368 6.15852 0.916884C6.15852 0.410091 6.56861 0 7.07541 0L9.2745 0C9.78129 0 10.1914 0.410091 10.1914 0.916884C10.1914 1.42368 9.78129 1.83377 9.2745 1.83377Z" id="Path" fill="#000000" stroke="none" />
        <path d="M15.433 1.83377L13.2339 1.83377C12.7271 1.83377 12.317 1.42368 12.317 0.916884C12.317 0.410091 12.7271 0 13.2339 0L15.433 0C15.9398 0 16.3499 0.410091 16.3499 0.916884C16.3499 1.42368 15.9398 1.83377 15.433 1.83377Z" id="Path" fill="#000000" stroke="none" />
        <path d="M21.5915 1.83377L19.3925 1.83377C18.8857 1.83377 18.4756 1.42368 18.4756 0.916884C18.4756 0.410091 18.8857 0 19.3925 0L21.5915 0C22.0983 0 22.5084 0.410091 22.5084 0.916884C22.5084 1.42368 22.0983 1.83377 21.5915 1.83377Z" id="Path" fill="#000000" stroke="none" />
      </g>
      <g id="Group" transform="translate(5.7645516 18.17114)">
        <path d="M3.11597 1.83377L0.916884 1.83377C0.410091 1.83377 0 1.42368 0 0.916884C0 0.410091 0.410091 0 0.916884 0L3.11597 0C3.62277 0 4.03286 0.410091 4.03286 0.916884C4.03286 1.42368 3.62277 1.83377 3.11597 1.83377L3.11597 1.83377Z" id="Path" fill="#000000" stroke="none" />
        <path d="M9.2745 1.83377L7.07541 1.83377C6.56861 1.83377 6.15852 1.42368 6.15852 0.916884C6.15852 0.410091 6.56861 0 7.07541 0L9.2745 0C9.78129 0 10.1914 0.410091 10.1914 0.916884C10.1914 1.42368 9.78129 1.83377 9.2745 1.83377Z" id="Path" fill="#000000" stroke="none" />
        <path d="M15.433 1.83377L13.2339 1.83377C12.7271 1.83377 12.317 1.42368 12.317 0.916884C12.317 0.410091 12.7271 0 13.2339 0L15.433 0C15.9398 0 16.3499 0.410091 16.3499 0.916884C16.3499 1.42368 15.9398 1.83377 15.433 1.83377Z" id="Path" fill="#000000" stroke="none" />
        <path d="M21.5915 1.83377L19.3925 1.83377C18.8857 1.83377 18.4756 1.42368 18.4756 0.916884C18.4756 0.410091 18.8857 0 19.3925 0L21.5915 0C22.0983 0 22.5084 0.410091 22.5084 0.916884C22.5084 1.42368 22.0983 1.83377 21.5915 1.83377Z" id="Path" fill="#000000" stroke="none" />
      </g>
      <g id="Group" transform="translate(57.55239 23.595442)">
        <path d="M14.6671 0.916394L0.917241 0.916394L0.917241 24.5121L14.6671 24.5121C18.0713 24.5121 20.8259 21.7576 20.8259 18.3533L20.8259 7.10124C20.8259 3.67102 18.0713 0.916394 14.6671 0.916394L14.6671 0.916394Z" id="Path" fill="#000000" stroke="none" />
        <path d="M14.6666 25.4292L0.916884 25.4292C0.410091 25.4292 0 25.0191 0 24.5123L0 0.916884C0 0.410091 0.410091 0 0.916884 0L14.6666 0C18.5687 0 21.742 3.18581 21.742 7.10048L21.742 18.3538C21.742 22.2559 18.5687 25.4292 14.6666 25.4292ZM1.83377 23.5954L14.6666 23.5954C17.5569 23.5954 19.9082 21.2441 19.9082 18.3538L19.9082 7.10048C19.9082 4.19582 17.5569 1.83377 14.6666 1.83377L1.83377 1.83377L1.83377 23.5954L1.83377 23.5954Z" id="Shape" fill="#000000" stroke="none" />
      </g>
      <g id="Group" transform="translate(0 23.595442)">
        <path d="M71.73 7.10128L71.73 18.3533C71.73 21.7576 68.9755 24.5121 65.5712 24.5121L7.10155 24.5121C3.69732 24.5121 0.916745 21.7576 0.916745 18.3533L0.916745 7.10128C0.916745 3.67104 3.69732 0.916471 7.10155 0.916471L65.5712 0.916471C68.9755 0.916471 71.73 3.67104 71.73 7.10128L71.73 7.10128Z" id="Path" fill="#DDDDDD" stroke="none" />
        <path d="M65.5715 25.4292L7.10227 25.4292C3.18581 25.4292 0 22.2559 0 18.3538L0 7.10048C0 3.18581 3.18581 0 7.10227 0L65.5715 0C69.4737 0 72.647 3.18581 72.647 7.10048L72.647 18.3538C72.647 22.2559 69.4737 25.4292 65.5715 25.4292ZM7.10227 1.83377C4.19761 1.83377 1.83377 4.19582 1.83377 7.10048L1.83377 18.3538C1.83377 21.2441 4.19761 23.5954 7.10227 23.5954L65.5715 23.5954C68.4619 23.5954 70.8132 21.2441 70.8132 18.3538L70.8132 7.10048C70.8132 4.19582 68.4619 1.83377 65.5715 1.83377L7.10227 1.83377Z" id="Shape" fill="#000000" stroke="none" />
      </g>
      <g id="Group" transform="translate(36.19365 29.021534)">
        <path d="M30.1168 2.77967L30.1168 11.8379C30.1168 12.8504 29.2852 13.664 28.2727 13.664L2.76138 13.664C1.74889 13.664 0.917266 12.8323 0.917266 11.8017L0.917266 2.77967C0.917266 1.74908 1.74889 0.917353 2.76138 0.917353L28.2546 0.917353C29.2852 0.917353 30.1168 1.74908 30.1168 2.77967L30.1168 2.77967Z" id="Path" fill="#FFFFFF" stroke="none" />
        <path d="M28.273 14.5806L2.7614 14.5806C1.23923 14.5806 0 13.3342 0 11.8013L0 2.77931C0 1.24639 1.23923 0 2.7614 0L28.2551 0C29.788 0 31.0344 1.24639 31.0344 2.77931L31.0344 11.8371C31.0344 13.3503 29.7952 14.5806 28.273 14.5806L28.273 14.5806ZM2.7614 1.83377C2.24923 1.83377 1.83377 2.25819 1.83377 2.77931L1.83377 11.8013C1.83377 12.3224 2.24923 12.7468 2.7614 12.7468L28.273 12.7468C28.7851 12.7468 29.2006 12.3385 29.2006 11.8371L29.2006 2.77931C29.2006 2.25819 28.7762 1.83377 28.2551 1.83377L2.7614 1.83377Z" id="Shape" fill="#000000" stroke="none" />
      </g>
      <g id="Group" transform="translate(41.621532 35.393166)">
        <path d="M19.2528 1.83377L16.3768 1.83377C15.87 1.83377 15.4599 1.42368 15.4599 0.916884C15.4599 0.410091 15.87 0 16.3768 0L19.2528 0C19.7596 0 20.1697 0.410091 20.1697 0.916884C20.1697 1.42368 19.7596 1.83377 19.2528 1.83377Z" id="Path" fill="#000000" stroke="none" />
        <path d="M11.5219 1.83377L8.64593 1.83377C8.13914 1.83377 7.72905 1.42368 7.72905 0.916884C7.72905 0.410091 8.13914 0 8.64593 0L11.5219 0C12.0287 0 12.4388 0.410091 12.4388 0.916884C12.4388 1.42368 12.0287 1.83377 11.5219 1.83377Z" id="Path" fill="#000000" stroke="none" />
        <path d="M3.7911 1.83377L0.916884 1.83377C0.410091 1.83377 0 1.42368 0 0.916884C0 0.410091 0.410091 0 0.916884 0L3.7911 0C4.29789 0 4.70799 0.410091 4.70799 0.916884C4.70799 1.42368 4.29789 1.83377 3.7911 1.83377Z" id="Path" fill="#000000" stroke="none" />
      </g>
      <g id="Group" transform="translate(5.7645516 29.019743)">
        <path d="M3.11597 1.83377L0.916884 1.83377C0.410091 1.83377 0 1.42368 0 0.916884C0 0.410091 0.410091 0 0.916884 0L3.11597 0C3.62277 0 4.03286 0.410091 4.03286 0.916884C4.03286 1.42368 3.62277 1.83377 3.11597 1.83377L3.11597 1.83377Z" id="Path" fill="#000000" stroke="none" />
        <path d="M9.2745 1.83377L7.07541 1.83377C6.56861 1.83377 6.15852 1.42368 6.15852 0.916884C6.15852 0.410091 6.56861 0 7.07541 0L9.2745 0C9.78129 0 10.1914 0.410091 10.1914 0.916884C10.1914 1.42368 9.78129 1.83377 9.2745 1.83377Z" id="Path" fill="#000000" stroke="none" />
        <path d="M15.433 1.83377L13.2339 1.83377C12.7271 1.83377 12.317 1.42368 12.317 0.916884C12.317 0.410091 12.7271 0 13.2339 0L15.433 0C15.9398 0 16.3499 0.410091 16.3499 0.916884C16.3499 1.42368 15.9398 1.83377 15.433 1.83377Z" id="Path" fill="#000000" stroke="none" />
        <path d="M21.5915 1.83377L19.3925 1.83377C18.8857 1.83377 18.4756 1.42368 18.4756 0.916884C18.4756 0.410091 18.8857 0 19.3925 0L21.5915 0C22.0983 0 22.5084 0.410091 22.5084 0.916884C22.5084 1.42368 22.0983 1.83377 21.5915 1.83377Z" id="Path" fill="#000000" stroke="none" />
      </g>
      <g id="Group" transform="translate(5.7645516 33.269287)">
        <path d="M3.11597 1.83377L0.916884 1.83377C0.410091 1.83377 0 1.42368 0 0.916884C0 0.410091 0.410091 0 0.916884 0L3.11597 0C3.62277 0 4.03286 0.410091 4.03286 0.916884C4.03286 1.42368 3.62277 1.83377 3.11597 1.83377L3.11597 1.83377Z" id="Path" fill="#000000" stroke="none" />
        <path d="M9.2745 1.83377L7.07541 1.83377C6.56861 1.83377 6.15852 1.42368 6.15852 0.916884C6.15852 0.410091 6.56861 0 7.07541 0L9.2745 0C9.78129 0 10.1914 0.410091 10.1914 0.916884C10.1914 1.42368 9.78129 1.83377 9.2745 1.83377Z" id="Path" fill="#000000" stroke="none" />
        <path d="M15.433 1.83377L13.2339 1.83377C12.7271 1.83377 12.317 1.42368 12.317 0.916884C12.317 0.410091 12.7271 0 13.2339 0L15.433 0C15.9398 0 16.3499 0.410091 16.3499 0.916884C16.3499 1.42368 15.9398 1.83377 15.433 1.83377Z" id="Path" fill="#000000" stroke="none" />
        <path d="M21.5915 1.83377L19.3925 1.83377C18.8857 1.83377 18.4756 1.42368 18.4756 0.916884C18.4756 0.410091 18.8857 0 19.3925 0L21.5915 0C22.0983 0 22.5084 0.410091 22.5084 0.916884C22.5084 1.42368 22.0983 1.83377 21.5915 1.83377Z" id="Path" fill="#000000" stroke="none" />
      </g>
      <g id="Group" transform="translate(5.7645516 37.51883)">
        <path d="M3.11597 1.83377L0.916884 1.83377C0.410091 1.83377 0 1.42368 0 0.916884C0 0.410091 0.410091 0 0.916884 0L3.11597 0C3.62277 0 4.03286 0.410091 4.03286 0.916884C4.03286 1.42368 3.62277 1.83377 3.11597 1.83377L3.11597 1.83377Z" id="Path" fill="#000000" stroke="none" />
        <path d="M9.2745 1.83377L7.07541 1.83377C6.56861 1.83377 6.15852 1.42368 6.15852 0.916884C6.15852 0.410091 6.56861 0 7.07541 0L9.2745 0C9.78129 0 10.1914 0.410091 10.1914 0.916884C10.1914 1.42368 9.78129 1.83377 9.2745 1.83377Z" id="Path" fill="#000000" stroke="none" />
        <path d="M15.433 1.83377L13.2339 1.83377C12.7271 1.83377 12.317 1.42368 12.317 0.916884C12.317 0.410091 12.7271 0 13.2339 0L15.433 0C15.9398 0 16.3499 0.410091 16.3499 0.916884C16.3499 1.42368 15.9398 1.83377 15.433 1.83377Z" id="Path" fill="#000000" stroke="none" />
        <path d="M21.5915 1.83377L19.3925 1.83377C18.8857 1.83377 18.4756 1.42368 18.4756 0.916884C18.4756 0.410091 18.8857 0 19.3925 0L21.5915 0C22.0983 0 22.5084 0.410091 22.5084 0.916884C22.5084 1.42368 22.0983 1.83377 21.5915 1.83377Z" id="Path" fill="#000000" stroke="none" />
      </g>
      <g id="Group" transform="translate(5.7645516 41.766582)">
        <path d="M3.11597 1.83377L0.916884 1.83377C0.410091 1.83377 0 1.42368 0 0.916884C0 0.410091 0.410091 0 0.916884 0L3.11597 0C3.62277 0 4.03286 0.410091 4.03286 0.916884C4.03286 1.42368 3.62277 1.83377 3.11597 1.83377L3.11597 1.83377Z" id="Path" fill="#000000" stroke="none" />
        <path d="M9.2745 1.83377L7.07541 1.83377C6.56861 1.83377 6.15852 1.42368 6.15852 0.916884C6.15852 0.410091 6.56861 0 7.07541 0L9.2745 0C9.78129 0 10.1914 0.410091 10.1914 0.916884C10.1914 1.42368 9.78129 1.83377 9.2745 1.83377Z" id="Path" fill="#000000" stroke="none" />
        <path d="M15.433 1.83377L13.2339 1.83377C12.7271 1.83377 12.317 1.42368 12.317 0.916884C12.317 0.410091 12.7271 0 13.2339 0L15.433 0C15.9398 0 16.3499 0.410091 16.3499 0.916884C16.3499 1.42368 15.9398 1.83377 15.433 1.83377Z" id="Path" fill="#000000" stroke="none" />
        <path d="M21.5915 1.83377L19.3925 1.83377C18.8857 1.83377 18.4756 1.42368 18.4756 0.916884C18.4756 0.410091 18.8857 0 19.3925 0L21.5915 0C22.0983 0 22.5084 0.410091 22.5084 0.916884C22.5084 1.42368 22.0983 1.83377 21.5915 1.83377Z" id="Path" fill="#000000" stroke="none" />
      </g>
      <g id="Group" transform="translate(57.55239 47.190884)">
        <path d="M14.6671 0.916681L0.917241 0.916681L0.917241 24.5124L14.6671 24.5124C18.0713 24.5124 20.8259 21.7578 20.8259 18.3536L20.8259 7.10152C20.8259 3.67131 18.0713 0.916681 14.6671 0.916681L14.6671 0.916681Z" id="Path" fill="#000000" stroke="none" />
        <path d="M14.6666 25.4292L0.916884 25.4292C0.410091 25.4292 0 25.0191 0 24.5123L0 0.916884C0 0.410091 0.410091 0 0.916884 0L14.6666 0C18.5687 0 21.742 3.18581 21.742 7.10227L21.742 18.3538C21.742 22.2559 18.5687 25.4292 14.6666 25.4292ZM1.83377 23.5954L14.6666 23.5954C17.5569 23.5954 19.9082 21.2441 19.9082 18.3538L19.9082 7.10227C19.9082 4.19761 17.5569 1.83377 14.6666 1.83377L1.83377 1.83377L1.83377 23.5954L1.83377 23.5954Z" id="Shape" fill="#000000" stroke="none" />
      </g>
      <g id="Group" transform="translate(0 47.190884)">
        <path d="M71.73 7.10156L71.73 18.3536C71.73 21.7578 68.9755 24.5124 65.5712 24.5124L7.10155 24.5124C3.69732 24.5124 0.916745 21.7578 0.916745 18.3536L0.916745 7.10156C0.916745 3.67132 3.69732 0.916758 7.10155 0.916758L65.5712 0.916758C68.9755 0.916758 71.73 3.67132 71.73 7.10156L71.73 7.10156Z" id="Path" fill="#DDDDDD" stroke="none" />
        <path d="M65.5715 25.4292L7.10227 25.4292C3.18581 25.4292 0 22.2559 0 18.3538L0 7.10227C0 3.18581 3.18581 0 7.10227 0L65.5715 0C69.4737 0 72.647 3.18581 72.647 7.10227L72.647 18.3538C72.647 22.2559 69.4737 25.4292 65.5715 25.4292ZM7.10227 1.83377C4.19761 1.83377 1.83377 4.19761 1.83377 7.10227L1.83377 18.3538C1.83377 21.2441 4.19761 23.5954 7.10227 23.5954L65.5715 23.5954C68.4619 23.5954 70.8132 21.2441 70.8132 18.3538L70.8132 7.10227C70.8132 4.19761 68.4619 1.83377 65.5715 1.83377L7.10227 1.83377Z" id="Shape" fill="#000000" stroke="none" />
      </g>
      <g id="Group" transform="translate(36.19365 52.616978)">
        <path d="M30.1168 2.77996L30.1168 11.8382C30.1168 12.8507 29.2852 13.6643 28.2727 13.6643L2.76138 13.6643C1.74889 13.6643 0.917266 12.8326 0.917266 11.802L0.917266 2.77996C0.917266 1.74937 1.74889 0.91764 2.76138 0.91764L28.2546 0.91764C29.2852 0.91764 30.1168 1.74937 30.1168 2.77996Z" id="Path" fill="#FFFFFF" stroke="none" />
        <path d="M28.273 14.5806L2.7614 14.5806C1.23923 14.5806 0 13.3342 0 11.8013L0 2.77931C0 1.24639 1.23923 0 2.7614 0L28.2551 0C29.788 0 31.0344 1.24639 31.0344 2.77931L31.0344 11.8389C31.0344 13.3503 29.7952 14.5806 28.273 14.5806L28.273 14.5806ZM2.7614 1.83377C2.24923 1.83377 1.83377 2.25819 1.83377 2.77931L1.83377 11.8013C1.83377 12.3224 2.24923 12.7468 2.7614 12.7468L28.273 12.7468C28.7851 12.7468 29.2006 12.3403 29.2006 11.8389L29.2006 2.77931C29.2006 2.25819 28.7762 1.83377 28.2551 1.83377L2.7614 1.83377Z" id="Shape" fill="#000000" stroke="none" />
      </g>
      <g id="Group" transform="translate(41.621532 58.988605)">
        <path d="M19.2528 1.83377L16.3768 1.83377C15.87 1.83377 15.4599 1.42368 15.4599 0.916884C15.4599 0.410091 15.87 0 16.3768 0L19.2528 0C19.7596 0 20.1697 0.410091 20.1697 0.916884C20.1697 1.42368 19.7596 1.83377 19.2528 1.83377Z" id="Path" fill="#000000" stroke="none" />
        <path d="M11.5219 1.83377L8.64593 1.83377C8.13914 1.83377 7.72905 1.42368 7.72905 0.916884C7.72905 0.410091 8.13914 0 8.64593 0L11.5219 0C12.0287 0 12.4388 0.410091 12.4388 0.916884C12.4388 1.42368 12.0287 1.83377 11.5219 1.83377Z" id="Path" fill="#000000" stroke="none" />
        <path d="M3.7911 1.83377L0.916884 1.83377C0.410091 1.83377 0 1.42368 0 0.916884C0 0.410091 0.410091 0 0.916884 0L3.7911 0C4.29789 0 4.70799 0.410091 4.70799 0.916884C4.70799 1.42368 4.29789 1.83377 3.7911 1.83377Z" id="Path" fill="#000000" stroke="none" />
      </g>
      <g id="Group" transform="translate(5.7645516 52.615185)">
        <path d="M3.11597 1.83377L0.916884 1.83377C0.410091 1.83377 0 1.42368 0 0.916884C0 0.410091 0.410091 0 0.916884 0L3.11597 0C3.62277 0 4.03286 0.410091 4.03286 0.916884C4.03286 1.42368 3.62277 1.83377 3.11597 1.83377L3.11597 1.83377Z" id="Path" fill="#000000" stroke="none" />
        <path d="M9.2745 1.83377L7.07541 1.83377C6.56861 1.83377 6.15852 1.42368 6.15852 0.916884C6.15852 0.410091 6.56861 0 7.07541 0L9.2745 0C9.78129 0 10.1914 0.410091 10.1914 0.916884C10.1914 1.42368 9.78129 1.83377 9.2745 1.83377Z" id="Path" fill="#000000" stroke="none" />
        <path d="M15.433 1.83377L13.2339 1.83377C12.7271 1.83377 12.317 1.42368 12.317 0.916884C12.317 0.410091 12.7271 0 13.2339 0L15.433 0C15.9398 0 16.3499 0.410091 16.3499 0.916884C16.3499 1.42368 15.9398 1.83377 15.433 1.83377Z" id="Path" fill="#000000" stroke="none" />
        <path d="M21.5915 1.83377L19.3925 1.83377C18.8857 1.83377 18.4756 1.42368 18.4756 0.916884C18.4756 0.410091 18.8857 0 19.3925 0L21.5915 0C22.0983 0 22.5084 0.410091 22.5084 0.916884C22.5084 1.42368 22.0983 1.83377 21.5915 1.83377Z" id="Path" fill="#000000" stroke="none" />
      </g>
      <g id="Group" transform="translate(5.7645516 56.86473)">
        <path d="M3.11597 1.83377L0.916884 1.83377C0.410091 1.83377 0 1.42368 0 0.916884C0 0.410091 0.410091 0 0.916884 0L3.11597 0C3.62277 0 4.03286 0.410091 4.03286 0.916884C4.03286 1.42368 3.62277 1.83377 3.11597 1.83377L3.11597 1.83377Z" id="Path" fill="#000000" stroke="none" />
        <path d="M9.2745 1.83377L7.07541 1.83377C6.56861 1.83377 6.15852 1.42368 6.15852 0.916884C6.15852 0.410091 6.56861 0 7.07541 0L9.2745 0C9.78129 0 10.1914 0.410091 10.1914 0.916884C10.1914 1.42368 9.78129 1.83377 9.2745 1.83377Z" id="Path" fill="#000000" stroke="none" />
        <path d="M15.433 1.83377L13.2339 1.83377C12.7271 1.83377 12.317 1.42368 12.317 0.916884C12.317 0.410091 12.7271 0 13.2339 0L15.433 0C15.9398 0 16.3499 0.410091 16.3499 0.916884C16.3499 1.42368 15.9398 1.83377 15.433 1.83377Z" id="Path" fill="#000000" stroke="none" />
        <path d="M21.5915 1.83377L19.3925 1.83377C18.8857 1.83377 18.4756 1.42368 18.4756 0.916884C18.4756 0.410091 18.8857 0 19.3925 0L21.5915 0C22.0983 0 22.5084 0.410091 22.5084 0.916884C22.5084 1.42368 22.0983 1.83377 21.5915 1.83377Z" id="Path" fill="#000000" stroke="none" />
      </g>
      <g id="Group" transform="translate(5.7645516 61.114273)">
        <path d="M3.11597 1.83377L0.916884 1.83377C0.410091 1.83377 0 1.42368 0 0.916884C0 0.410091 0.410091 0 0.916884 0L3.11597 0C3.62277 0 4.03286 0.410091 4.03286 0.916884C4.03286 1.42368 3.62277 1.83377 3.11597 1.83377L3.11597 1.83377Z" id="Path" fill="#000000" stroke="none" />
        <path d="M9.2745 1.83377L7.07541 1.83377C6.56861 1.83377 6.15852 1.42368 6.15852 0.916884C6.15852 0.410091 6.56861 0 7.07541 0L9.2745 0C9.78129 0 10.1914 0.410091 10.1914 0.916884C10.1914 1.42368 9.78129 1.83377 9.2745 1.83377Z" id="Path" fill="#000000" stroke="none" />
        <path d="M15.433 1.83377L13.2339 1.83377C12.7271 1.83377 12.317 1.42368 12.317 0.916884C12.317 0.410091 12.7271 0 13.2339 0L15.433 0C15.9398 0 16.3499 0.410091 16.3499 0.916884C16.3499 1.42368 15.9398 1.83377 15.433 1.83377Z" id="Path" fill="#000000" stroke="none" />
        <path d="M21.5915 1.83377L19.3925 1.83377C18.8857 1.83377 18.4756 1.42368 18.4756 0.916884C18.4756 0.410091 18.8857 0 19.3925 0L21.5915 0C22.0983 0 22.5084 0.410091 22.5084 0.916884C22.5084 1.42368 22.0983 1.83377 21.5915 1.83377Z" id="Path" fill="#000000" stroke="none" />
      </g>
      <g id="Group" transform="translate(5.7645516 65.363815)">
        <path d="M3.11597 1.83377L0.916884 1.83377C0.410091 1.83377 0 1.42368 0 0.916884C0 0.410091 0.410091 0 0.916884 0L3.11597 0C3.62277 0 4.03286 0.410091 4.03286 0.916884C4.03286 1.42368 3.62277 1.83377 3.11597 1.83377L3.11597 1.83377Z" id="Path" fill="#000000" stroke="none" />
        <path d="M9.2745 1.83377L7.07541 1.83377C6.56861 1.83377 6.15852 1.42368 6.15852 0.916884C6.15852 0.410091 6.56861 0 7.07541 0L9.2745 0C9.78129 0 10.1914 0.410091 10.1914 0.916884C10.1914 1.42368 9.78129 1.83377 9.2745 1.83377Z" id="Path" fill="#000000" stroke="none" />
        <path d="M15.433 1.83377L13.2339 1.83377C12.7271 1.83377 12.317 1.42368 12.317 0.916884C12.317 0.410091 12.7271 0 13.2339 0L15.433 0C15.9398 0 16.3499 0.410091 16.3499 0.916884C16.3499 1.42368 15.9398 1.83377 15.433 1.83377Z" id="Path" fill="#000000" stroke="none" />
        <path d="M21.5915 1.83377L19.3925 1.83377C18.8857 1.83377 18.4756 1.42368 18.4756 0.916884C18.4756 0.410091 18.8857 0 19.3925 0L21.5915 0C22.0983 0 22.5084 0.410091 22.5084 0.916884C22.5084 1.42368 22.0983 1.83377 21.5915 1.83377Z" id="Path" fill="#000000" stroke="none" />
      </g>
    </g>
    <g id="Group" transform="translate(50.05395 0)">
      <g id="Group">
        <path d="M39.1011 11.3549L37.7698 29.7678C37.6866 30.9194 37.1126 31.9797 36.1939 32.679L22.4435 43.1457C21.0032 44.2421 19.008 44.2415 17.5682 43.1444L3.8342 32.679C2.91643 31.9796 2.3431 30.9199 2.25989 29.769L0.928471 11.3539C0.802749 9.61498 1.8113 7.99299 3.42642 7.33655L18.4913 1.21372C19.4622 0.819127 20.5487 0.818942 21.5197 1.21321L36.6019 7.33708C38.2177 7.99316 39.2268 9.61552 39.1011 11.3549Z" id="Path" fill="#9765ff" stroke="none" />
        <path d="M20.0071 44.8803C18.9505 44.8803 17.894 44.5454 17.0129 43.8739L3.27934 33.4085C2.15115 32.5489 1.44737 31.247 1.34529 29.8359L0.0129439 11.4194C-0.141064 9.27763 1.091 7.29702 3.08057 6.48758L18.1465 0.364873C19.3463 -0.122221 20.6643 -0.120431 21.8642 0.363082L36.948 6.48758C38.9393 7.29702 40.1714 9.28121 40.0156 11.4212L38.685 29.8341C38.5812 31.247 37.8756 32.5507 36.7492 33.4085L22.9995 43.8739C22.1184 44.5454 21.0618 44.8803 20.0071 44.8803ZM20.0053 1.83332C19.6095 1.83332 19.2138 1.91032 18.8377 2.06254L3.77181 8.18525C2.52005 8.69384 1.74464 9.94022 1.84313 11.2869L3.17548 29.7034C3.23816 30.5916 3.68227 31.41 4.38963 31.9508L18.1232 42.4162C19.2335 43.2579 20.7789 43.2579 21.8892 42.4162L35.6389 31.9508C36.3463 31.41 36.7904 30.5898 36.8549 29.7016L38.1854 11.2887C38.2839 9.94202 37.5085 8.69563 36.2567 8.18525L21.1747 2.06254C20.7986 1.91032 20.4011 1.83332 20.0053 1.83332Z" id="Shape" fill="#000000" stroke="none" />
      </g>
      <path d="M17.9871 28.6623C17.5259 28.6623 17.0648 28.4863 16.7127 28.1342L11.7699 23.1914C11.0658 22.4873 11.0658 21.3467 11.7699 20.6426C12.474 19.9385 13.6146 19.9385 14.3187 20.6426L17.9871 24.3109L29.3936 12.908C30.0977 12.2039 31.2384 12.2039 31.9425 12.908C32.6466 13.6121 32.6466 14.7527 31.9425 15.4568L19.2616 28.1342C18.9095 28.4863 18.4483 28.6623 17.9871 28.6623L17.9871 28.6623Z" id="Path" fill="#FFFFFF" stroke="none" />
    </g>
  </g>
</svg>