<?xml version="1.0" encoding="utf-8"?>
<svg width="80.666626px" height="58.666748px" viewBox="0 0 80.666626 58.666748" version="1.1" xmlns:xlink="http://www.w3.org/1999/xlink" xmlns="http://www.w3.org/2000/svg">
  <g id="Group">
    <path d="M75.1667 58.6667L5.5 58.6667C2.46243 58.6667 3.71995e-16 56.2042 0 53.1667L0 5.5C-3.71995e-16 2.46243 2.46243 0 5.5 0L75.1667 0C78.2042 0 80.6667 2.46243 80.6667 5.5L80.6667 53.1667C80.6667 56.2042 78.2042 58.6667 75.1667 58.6667ZM5.5 3.66667C4.48748 3.66667 3.66667 4.48748 3.66667 5.5L3.66667 53.1667C3.66667 54.1792 4.48748 55 5.5 55L75.1667 55C76.1792 55 77 54.1792 77 53.1667L77 5.5C77 4.48748 76.1792 3.66667 75.1667 3.66667L5.5 3.66667Z" id="Shape" fill="#FFFFFF" stroke="none" />
    <path d="M11 45.8333C9.98748 45.8333 9.16667 45.0125 9.16667 44L9.16667 33.4217C9.16667 32.4091 9.98748 31.5883 11 31.5883C12.0125 31.5883 12.8333 32.4091 12.8333 33.4217L12.8333 44C12.8333 45.0125 12.0125 45.8333 11 45.8333Z" id="Path" fill="#FFFFFF" stroke="none" />
    <path d="M20.1667 45.8333C19.1541 45.8333 18.3333 45.0125 18.3333 44L18.3333 20.735C18.3333 19.7225 19.1541 18.9017 20.1667 18.9017C21.1792 18.9017 22 19.7225 22 20.735L22 44C22 45.0125 21.1792 45.8333 20.1667 45.8333Z" id="Path" fill="#FFFFFF" stroke="none" />
    <path d="M29.3333 45.8333C28.3208 45.8333 27.5 45.0125 27.5 44L27.5 24.97C27.5 23.9575 28.3208 23.1367 29.3333 23.1367C30.3459 23.1367 31.1667 23.9575 31.1667 24.97L31.1667 44C31.1667 45.0125 30.3459 45.8333 29.3333 45.8333Z" id="Path" fill="#FFFFFF" stroke="none" />
    <path d="M36.6667 28.875C36.6667 38.494 44.4644 46.2917 54.0833 46.2917C62.3268 46.283 69.2301 40.5541 71.0381 32.8605C71.2499 32.5934 71.3902 32.2644 71.4267 31.9C71.4525 31.6416 71.4236 31.3903 71.3495 31.1577C71.448 30.4107 71.4992 29.6488 71.5 28.875C71.5 19.256 63.7023 11.4583 54.0833 11.4583C44.4644 11.4583 36.6667 19.256 36.6667 28.875ZM67.8201 29.4828C67.8289 29.2813 67.8333 29.0787 67.8333 28.875C67.8333 25.2283 66.3847 21.7309 63.8061 19.1523C62.0069 17.3532 59.7606 16.1041 57.3283 15.5134L57.3283 27.335L67.8201 29.4828ZM53.6617 15.1313C46.2628 15.3542 40.3333 21.4221 40.3333 28.875C40.3333 36.4689 46.4894 42.625 54.0833 42.625C60.1795 42.625 65.349 38.6578 67.1511 33.1643L53.6617 30.415L53.6617 15.1313Z" id="Combined-Shape" fill="#866EFF" fill-rule="evenodd" stroke="none" />
  </g>
</svg>