<?xml version="1.0" encoding="utf-8"?>
<svg width="71.53235px" height="76px" viewBox="0 0 71.53235 76" version="1.1" xmlns:xlink="http://www.w3.org/1999/xlink" xmlns="http://www.w3.org/2000/svg">
  <g id="Group">
    <path d="M68.0657 50.2768C68.1185 50.9329 67.629 51.5078 66.9727 51.5604L61.1483 52.0279C61.1164 52.0304 61.0845 52.0316 61.0529 52.0316C60.7381 52.0316 60.4345 51.9069 60.2101 51.6825C59.963 51.4354 59.8367 51.0924 59.8647 50.7441L60.332 44.9197C60.3848 44.2635 60.9589 43.7744 61.6156 43.8267C62.2719 43.8794 62.7613 44.4541 62.7087 45.1103L62.5099 47.5886C66.8006 42.6237 69.1479 36.3403 69.1479 29.7312C69.1479 24.126 67.4627 18.7377 64.2747 14.1487C63.899 13.6079 64.0329 12.8652 64.5736 12.4894C65.1144 12.1137 65.8571 12.2475 66.233 12.7883C69.6999 17.7786 71.5323 23.6374 71.5323 29.7312C71.5323 37.0295 68.8999 43.9627 64.0944 49.3994L66.7822 49.1836C67.4364 49.1316 68.013 49.6205 68.0657 50.2768ZM26.2185 7.25763C30.8075 4.06939 36.1958 2.38444 41.8008 2.38444C48.41 2.38444 54.6935 4.73177 59.6584 9.02245L57.18 8.82366C56.5228 8.76972 55.9489 9.26043 55.8963 9.91671C55.8437 10.573 56.3331 11.1477 56.9894 11.2004L62.8137 11.6677C62.8456 11.6702 62.8774 11.6714 62.9091 11.6714C63.224 11.6714 63.5275 11.5467 63.7521 11.3221C63.999 11.0752 64.1254 10.7321 64.0974 10.3839L63.6299 4.55951C63.5772 3.90323 63.0003 3.41326 62.3463 3.46646C61.69 3.51921 61.2006 4.09398 61.2532 4.7501L61.469 7.43779C56.0322 2.63226 49.099 0 41.8008 0C35.707 0 29.8484 1.83248 24.8581 5.29938C24.3173 5.67506 24.1836 6.41791 24.5591 6.9587C24.9351 7.49949 25.6777 7.63271 26.2185 7.25763ZM17.369 46.6741C17.6007 47.0075 17.9718 47.1863 18.3491 47.1863C18.5838 47.1863 18.8209 47.117 19.0283 46.9731C19.5691 46.5974 19.7028 45.8545 19.3273 45.3137C16.1392 40.7247 14.4541 35.3364 14.4541 29.7314C14.4541 23.1221 16.8014 16.8386 21.0921 11.8738L20.8933 14.3521C20.8405 15.0084 21.3301 15.5831 21.9863 15.6357C22.0188 15.6384 22.051 15.6395 22.0829 15.6395C22.6981 15.6395 23.2199 15.1665 23.27 14.5427L23.7373 8.71831C23.7653 8.37005 23.639 8.02701 23.3919 7.77994C23.1448 7.53302 22.8022 7.40754 22.4537 7.43466L16.6293 7.90213C15.973 7.95489 15.4836 8.52965 15.5362 9.18578C15.589 9.8422 16.1673 10.3317 16.8199 10.2788L19.5077 10.063C14.7022 15.4997 12.0698 22.433 12.0698 29.7314C12.0698 35.8252 13.9023 41.6838 17.369 46.6741L17.369 46.6741ZM60.4286 27.0057C59.5531 27.1448 58.6774 26.9349 57.9613 26.4148L57.4092 26.0137L57.4092 43.0089C57.4092 44.6232 56.096 45.9365 54.4815 45.9365L47.5297 45.9365L36.072 45.9365L29.1203 45.9365C27.506 45.9365 26.1927 44.6232 26.1927 43.0089L26.1927 26.0134L25.6404 26.4147C25.0686 26.8301 24.3949 27.0475 23.7013 27.0477C23.526 27.0477 23.3497 27.0337 23.1734 27.0057C22.2979 26.8665 21.5296 26.3947 21.0095 25.6773C19.9388 24.1994 20.2695 22.1237 21.7464 21.0503L39.8258 7.9151C40.9698 7.05571 42.5802 7.04692 43.7475 7.89453L61.8548 21.0502C63.3319 22.1235 63.6624 24.1991 62.5917 25.677C62.0722 26.3947 61.3039 26.8665 60.4286 27.0057L60.4286 27.0057ZM46.3376 43.5523L46.3376 32.3579C46.3376 31.6506 45.7622 31.0752 45.0548 31.0752L38.5472 31.0752C37.8398 31.0752 37.2643 31.6506 37.2643 32.3579L37.2643 43.5523L46.3376 43.5523ZM55.0249 24.2815L41.801 14.6737L28.5771 24.2813L28.5771 43.0092C28.5771 43.3088 28.8209 43.5525 29.1204 43.5525L34.88 43.5525L34.88 32.3581C34.88 30.3361 36.5252 28.6911 38.5472 28.6911L45.0548 28.6911C47.0768 28.6911 48.7218 30.3361 48.7218 32.3581L48.7218 43.5525L54.4815 43.5525C54.7811 43.5525 55.0249 43.3087 55.0249 43.0092L55.0249 24.2815ZM60.0538 24.651C60.2997 24.6118 60.5154 24.4795 60.6612 24.2782C60.9617 23.8636 60.8686 23.2807 60.4534 22.979L42.3463 9.82358C42.1823 9.70451 41.9882 9.64505 41.7958 9.64505C41.603 9.64505 41.4121 9.70466 41.2545 9.82402C41.2481 9.82879 41.2417 9.83341 41.2353 9.83818L23.1481 22.9792C22.7332 23.2808 22.6399 23.8638 22.9404 24.2785C23.0863 24.4797 23.3019 24.612 23.5478 24.6512C23.7924 24.6899 24.0383 24.6315 24.2389 24.4859L41.1 12.2357C41.5177 11.9322 42.0838 11.9322 42.5014 12.2357L59.3623 24.4861C59.5631 24.6315 59.8088 24.6899 60.0538 24.651L60.0538 24.651Z" id="Shape" fill="#FFFFFF" stroke="none" />
    <path d="M58.8797 51.3281C60.3505 53.8765 59.4744 57.1461 56.9268 58.617L34.8076 71.3871C33.4847 72.1509 32.0494 72.534 30.5211 72.5341C29.7845 72.5341 29.0263 72.445 28.2482 72.2668L19.4031 70.2391C17.0401 69.697 15.0823 70.1348 12.9608 71.6996L13.1391 72.3653C13.2846 72.9073 13.2095 73.4743 12.928 73.962C12.6465 74.4495 12.193 74.7979 11.651 74.9433L7.97671 75.9277C7.7961 75.976 7.6128 76 7.43056 76C7.06576 76 6.70543 75.904 6.38028 75.7164C5.89284 75.4349 5.54428 74.9812 5.39899 74.439L0.0720392 54.5593C-0.22853 53.4385 0.439071 52.2821 1.56013 51.9814L5.23448 50.997C5.77616 50.8518 6.34362 50.9268 6.83106 51.2083C7.31849 51.4899 7.6669 51.9434 7.81234 52.4852L7.81234 52.4854L7.92738 52.9147L11.8784 49.889C14.0715 48.2095 16.3499 47.6264 18.4682 48.2032L33.9102 52.4061C36.197 53.0287 37.7888 54.9494 38.1095 57.1577L51.5909 49.3746C52.8213 48.6644 54.2589 48.4774 55.6387 48.8465C57.0184 49.2164 58.1694 50.0977 58.8797 51.3281ZM55.0214 51.1496C55.7862 51.3545 56.423 51.841 56.8147 52.52C57.6284 53.9297 57.1439 55.7386 55.7345 56.5522L33.6154 69.3225C32.1734 70.1552 30.592 70.3583 28.7811 69.943L19.9362 67.9153C17.15 67.2766 14.7421 67.6884 12.3057 69.2544L8.59528 55.4067L13.3282 51.7822C14.9309 50.5549 16.4499 50.1248 17.842 50.5037L33.284 54.7066C35.0886 55.1978 36.1572 57.0659 35.6661 58.8705C35.4294 59.7397 34.8643 60.4672 34.0749 60.9189C33.2854 61.3706 32.3722 61.4891 31.5024 61.2524L23.2536 59.0073C22.6186 58.8347 21.9633 59.2092 21.7904 59.8445C21.6174 60.4796 21.9922 61.1348 22.6276 61.3077L30.8763 63.5528C31.3773 63.6892 31.8865 63.7567 32.393 63.7567C33.3867 63.7567 34.3696 63.4969 35.2588 62.9883C36.4104 62.3294 37.2807 61.3223 37.7599 60.1126L52.783 51.4394C53.4615 51.0477 54.2564 50.9448 55.0214 51.1496ZM10.7636 72.7125L5.58169 53.3723L2.44754 54.2122L7.62964 73.5524L10.7636 72.7125Z" id="Combined-Shape" fill="#FEDE82" fill-rule="evenodd" stroke="none" />
  </g>
</svg>