<?xml version="1.0" encoding="utf-8"?>
<svg width="76px" height="76px" viewBox="0 0 76 76" version="1.1" xmlns:xlink="http://www.w3.org/1999/xlink" xmlns="http://www.w3.org/2000/svg">
  <g id="Group">
    <path d="M73.1138 23.4504C69.6337 15.0621 63.4123 8.44484 55.7451 4.40093L55.5277 4.28958C54.5556 3.78409 53.5623 3.31749 52.5461 2.8986C52.4471 2.85795 52.3516 2.812 52.2527 2.77312C51.1745 2.33833 50.0769 1.94419 48.9564 1.61014C48.8645 1.58186 48.7708 1.56242 48.6789 1.53591C47.7209 1.25312 46.7488 1.01628 45.7644 0.813023C45.4392 0.744093 45.1104 0.687535 44.7834 0.629209C43.9828 0.484279 43.1751 0.367628 42.3603 0.275721C42.0298 0.238605 41.701 0.192651 41.3687 0.164372C40.2553 0.0653953 39.1347 0 38 0C36.8671 0 35.7465 0.0653953 34.633 0.162605C34.3007 0.192651 33.9702 0.236837 33.6397 0.273953C32.8267 0.367628 32.0225 0.482512 31.2236 0.625674C30.8931 0.685767 30.5626 0.742326 30.2339 0.811256C29.2529 1.01451 28.2826 1.25135 27.3282 1.52884C27.2327 1.55712 27.1373 1.57479 27.0419 1.60484C25.9248 1.93888 24.8326 2.33126 23.758 2.76428C23.6466 2.8067 23.5406 2.85972 23.431 2.90391C22.4271 3.32279 21.4461 3.78233 20.4847 4.28074C20.4051 4.3214 20.3238 4.36381 20.2443 4.40447C12.5913 8.44307 6.3787 15.0498 2.8986 23.4186C2.71126 23.8711 2.92512 24.3872 3.37581 24.5745C3.82474 24.7583 4.34437 24.548 4.53172 24.0973C6.37693 19.6593 9.03516 15.7479 12.2767 12.4764C14.6327 13.2187 17.2202 13.8461 19.988 14.3552C18.6607 17.1336 17.5454 20.2425 16.7094 23.6484C16.5927 24.1238 16.8826 24.601 17.3563 24.7159C17.427 24.7353 17.4977 24.7442 17.5666 24.7442C17.9643 24.7442 18.3248 24.4755 18.4238 24.0708C19.2775 20.5942 20.421 17.4393 21.789 14.6627C26.5399 15.428 31.7344 15.8504 37.1145 15.8928L37.1145 23.8605C37.1145 24.3483 37.5104 24.7442 37.9982 24.7442C38.486 24.7442 38.882 24.3483 38.882 23.8605L38.882 15.8928C44.2621 15.8504 49.4583 15.4262 54.2074 14.6627C55.5631 17.4146 56.6978 20.5359 57.5479 23.9736C57.6646 24.4473 58.1435 24.7336 58.6172 24.6187C59.0909 24.502 59.3807 24.0231 59.2623 23.5494C58.4299 20.1842 57.3217 17.1088 56.0067 14.3587C58.7745 13.8497 61.3656 13.2205 63.7198 12.4799C66.9684 15.7585 69.6319 19.6787 71.4771 24.1291C71.6185 24.4685 71.9473 24.6753 72.2937 24.6753C72.4068 24.6753 72.5217 24.654 72.6313 24.6081C73.0873 24.4172 73.3011 23.8993 73.1138 23.4504ZM13.7578 11.0925C17.86 7.38791 22.6745 4.72437 27.869 3.21498C28.1341 3.13721 28.4063 3.07181 28.675 3.00112C28.85 2.95516 29.0267 2.92158 29.2017 2.87916C25.9955 5.05842 23.1358 8.41833 20.8293 12.7114C18.316 12.2643 15.9335 11.7323 13.7578 11.0925ZM74.2326 51.2558L55.6744 51.2558C55.1866 51.2558 54.7907 50.8599 54.7907 50.3721C54.7907 49.8843 55.1866 49.4884 55.6744 49.4884L74.2326 49.4884L74.2326 28.2791L1.76744 28.2791L1.76744 49.4884L38 49.4884C38.4878 49.4884 38.8837 49.8843 38.8837 50.3721C38.8837 50.8599 38.4878 51.2558 38 51.2558L1.76744 51.2558C0.793581 51.2558 0 50.464 0 49.4884L0 28.2791C0 27.3034 0.793581 26.5116 1.76744 26.5116L74.2326 26.5116C75.2064 26.5116 76 27.3034 76 28.2791L76 49.4884C76 50.464 75.2064 51.2558 74.2326 51.2558ZM65.3953 46.8372C65.3953 47.325 64.9994 47.7209 64.5116 47.7209C64.0238 47.7209 63.6279 47.325 63.6279 46.8372L63.6279 30.9302C63.6279 30.4424 64.0238 30.0465 64.5116 30.0465C64.9994 30.0465 65.3953 30.4424 65.3953 30.9302L65.3953 46.8372ZM71.8766 53.2106C71.4365 53.002 70.908 53.1859 70.6977 53.626C68.9161 57.3464 66.5194 60.6639 63.6809 63.506C62.3447 63.0871 60.922 62.6912 59.409 62.3377C58.9353 62.2263 58.4581 62.5215 58.3486 62.9987C58.2372 63.4741 58.5324 63.9478 59.0096 64.0609C60.1213 64.319 61.1906 64.6018 62.2069 64.8987C62.046 65.0419 61.8887 65.1921 61.7244 65.3335C61.3744 65.6375 61.0139 65.9256 60.6533 66.2154C58.9424 67.5834 57.1237 68.81 55.199 69.8511C55.1619 69.8723 55.1247 69.8935 55.0859 69.9147C54.363 70.3018 53.626 70.6676 52.8766 71.0052C52.8606 71.0123 52.843 71.0193 52.8271 71.0282C50.8953 71.8995 48.8786 72.5835 46.8107 73.1085C47.9047 72.3626 48.967 71.4913 49.9815 70.4679C50.3244 70.1233 50.3226 69.563 49.9762 69.2183C49.6298 68.8772 49.0713 68.8807 48.7266 69.2254C45.7326 72.2442 42.3444 73.9339 38.8837 74.1848L38.8837 53.907C38.8837 53.4192 38.4878 53.0233 38 53.0233C37.5122 53.0233 37.1163 53.4192 37.1163 53.907L37.1163 60.1072C31.7468 60.1478 26.5629 60.572 21.8226 61.332C20.6844 59.0449 19.6946 56.5175 18.9099 53.7603C18.7755 53.2901 18.2824 53.0126 17.8176 53.1523C17.3474 53.2848 17.0753 53.7744 17.2096 54.2428C17.9731 56.9258 18.9099 59.3931 19.9792 61.6431C17.2308 62.1486 14.6609 62.7742 12.3208 63.5095C9.4947 60.6798 7.10688 57.3818 5.32707 53.6825C5.11498 53.2424 4.58651 53.0568 4.14819 53.2707C3.70809 53.481 3.52251 54.0095 3.7346 54.4496C5.4667 58.0499 7.75377 61.2843 10.442 64.1069L10.3873 64.1246L11.4283 65.1444C11.4654 65.1815 11.506 65.2098 11.5432 65.2469C12.2484 65.9291 12.9836 66.5742 13.7383 67.1981C14.1996 67.5834 14.6733 67.944 15.1487 68.3028C15.4492 68.529 15.7514 68.75 16.059 68.9673C18.0367 70.376 20.1294 71.5814 22.3175 72.5765C22.3758 72.603 22.4341 72.6313 22.4925 72.6578C23.2454 72.9953 24.0054 73.3082 24.7778 73.5963C24.9068 73.644 25.0376 73.6864 25.1684 73.7324C26.4639 74.199 27.7842 74.5931 29.1292 74.9148C29.4509 74.9943 29.769 75.0845 30.0925 75.1534C30.6086 75.263 31.1264 75.3478 31.646 75.4362C32.27 75.544 32.8974 75.6341 33.5284 75.7101C33.9331 75.7579 34.3379 75.8091 34.7461 75.8427C35.8278 75.9381 36.9095 76 38 76C39.0923 76 40.174 75.9364 41.2503 75.8427C41.6568 75.8073 42.0598 75.7579 42.4663 75.7101C43.1026 75.6341 43.7336 75.5405 44.3628 75.4344C44.8789 75.3478 45.3914 75.2612 45.9005 75.1552C46.2593 75.0774 46.611 74.9784 46.968 74.8918C48.2688 74.5772 49.5449 74.1937 50.7998 73.7447C50.9501 73.6917 51.1038 73.6405 51.254 73.5839C52.0123 73.3029 52.7581 72.9936 53.4952 72.6631C53.5853 72.6224 53.6737 72.5782 53.7638 72.5376C55.9148 71.5513 57.9721 70.3654 59.9198 68.9797C60.2486 68.7482 60.5738 68.5113 60.8937 68.2692C61.3532 67.921 61.811 67.5711 62.2564 67.2017C63.0075 66.5795 63.7393 65.9362 64.4427 65.2575C64.4834 65.2186 64.5275 65.185 64.5682 65.1461L65.6092 64.1281L65.5544 64.1104C68.2568 61.2737 70.5563 58.0198 72.2919 54.393C72.504 53.9494 72.3184 53.4227 71.8766 53.2106ZM37.1163 61.8746L37.1163 74.1778C31.6178 73.7748 26.448 69.6549 22.694 62.9775C27.1762 62.2917 32.0614 61.9135 37.1163 61.8746ZM29.1186 73.089C26.2536 72.3555 23.4911 71.2968 20.9053 69.9094C20.9018 69.9059 20.8982 69.9041 20.8929 69.9023C18.9258 68.8436 17.0682 67.594 15.3255 66.196C14.9844 65.9203 14.6415 65.6463 14.3074 65.3582C14.1325 65.208 13.9663 65.0489 13.7949 64.8952C15.9512 64.2642 18.3125 63.734 20.801 63.2939C23.0934 67.5905 25.9372 70.9133 29.1186 73.089Z" id="Combined-Shape" fill="#FFFFFF" fill-rule="evenodd" stroke="none" />
    <g id="Group" transform="translate(7.0696054 33.58275)">
      <g id="Group">
        <g id="Group" transform="matrix(1 0 0 1 0 1.7763568E-15)">
          <path d="M39.7676 10.6033C39.6589 10.6033 39.5518 10.583 39.4518 10.5447C39.4475 10.543 39.4432 10.5414 39.4389 10.5397C39.3831 10.5173 39.3309 10.4898 39.2826 10.4581C39.1544 10.3741 39.0468 10.2561 38.9754 10.1109C38.962 10.0838 38.9499 10.0561 38.9394 10.0279L35.4126 1.21111C35.2306 0.758648 35.4515 0.244322 35.9057 0.0640432C36.3547 -0.118003 36.8725 0.101159 37.0546 0.555392L39.7676 7.33795L42.4806 0.555392C42.6194 0.209212 42.9521 -0.000432713 43.3021 0C43.6518 -0.000440222 43.9856 0.209206 44.1243 0.555392L46.8374 7.33795L49.5504 0.555392C49.7324 0.101159 50.2485 -0.118003 50.6992 0.0640432C51.1517 0.24609 51.3726 0.760415 51.1923 1.21111L47.6798 9.99245C47.6015 10.2332 47.4203 10.4388 47.1661 10.5397C47.1619 10.5413 47.1576 10.543 47.1534 10.5446C47.0533 10.583 46.9462 10.6033 46.8374 10.6033C46.7286 10.6033 46.6216 10.583 46.5216 10.5447C46.5172 10.543 46.5129 10.5414 46.5086 10.5397C46.4529 10.5173 46.4007 10.4898 46.3523 10.4581C46.2242 10.3741 46.1166 10.2561 46.0451 10.1109C46.0317 10.0838 46.0197 10.0561 46.0091 10.0279L43.3025 3.26134L40.61 9.99245C40.5317 10.2332 40.3506 10.4388 40.0964 10.5397C40.092 10.5414 40.0877 10.543 40.0834 10.5447C39.9834 10.583 39.8763 10.6033 39.7676 10.6033ZM22.0932 10.6033C21.9844 10.6033 21.8773 10.583 21.7773 10.5446Q21.7708 10.5422 21.7644 10.5397C21.7105 10.518 21.6599 10.4916 21.6129 10.4611C21.4817 10.3763 21.3718 10.2562 21.2994 10.1078C21.2867 10.0818 21.2752 10.0552 21.265 10.028L17.7382 1.21111C17.5562 0.758648 17.7771 0.244322 18.2313 0.0640432C18.6785 -0.118003 19.1981 0.101159 19.3802 0.555392L22.0932 7.33795L24.8062 0.555392C24.9449 0.209329 25.2775 -0.000290962 25.6273 0C25.9766 -0.000293114 26.3112 0.209327 26.4499 0.555392L29.163 7.33795L31.876 0.555392C32.058 0.101159 32.5741 -0.118003 33.0248 0.0640432C33.4773 0.24609 33.6982 0.760415 33.5179 1.21111L30.0054 9.99248C29.9271 10.2332 29.7459 10.4388 29.4917 10.5397C29.4874 10.5414 29.4831 10.543 29.4789 10.5446C29.3788 10.583 29.2717 10.6033 29.163 10.6033C29.0542 10.6033 28.9471 10.583 28.847 10.5446Q28.8406 10.5422 28.8342 10.5397C28.7803 10.518 28.7297 10.4916 28.6826 10.4611C28.5515 10.3763 28.4415 10.2562 28.3692 10.1078C28.3564 10.0818 28.3449 10.0552 28.3347 10.028L25.6281 3.26135L22.9356 9.99248C22.8573 10.2332 22.6762 10.4388 22.4219 10.5397C22.4177 10.5414 22.4134 10.543 22.4091 10.5446C22.309 10.583 22.202 10.6033 22.0932 10.6033ZM4.41877 10.6033C4.30996 10.6033 4.20285 10.583 4.10277 10.5446C4.09852 10.543 4.09427 10.5413 4.09002 10.5397C4.03612 10.518 3.9855 10.4916 3.93845 10.4611C3.80728 10.3764 3.69736 10.2562 3.62501 10.1078C3.61224 10.0818 3.60075 10.0552 3.59057 10.0281L0.06379 1.21111C-0.118256 0.758648 0.102674 0.244322 0.556906 0.0640432C1.00407 -0.118003 1.5237 0.101159 1.70574 0.555392L4.41877 7.33795L7.13179 0.555392C7.26911 0.20941 7.6033 -0.000192529 7.95317 0C8.30234 -0.00019249 8.63685 0.20941 8.77551 0.555392L11.4885 7.33795L14.2016 0.555392C14.3836 0.101159 14.8997 -0.118003 15.3504 0.0640432C15.8029 0.24609 16.0238 0.760415 15.8435 1.21111L12.331 9.99248C12.2526 10.2332 12.0715 10.4388 11.8173 10.5397C11.813 10.5413 11.8088 10.543 11.8045 10.5446C11.7044 10.583 11.5973 10.6033 11.4885 10.6033C11.3797 10.6033 11.2726 10.583 11.1725 10.5446C11.1683 10.543 11.164 10.5413 11.1598 10.5397C11.1059 10.518 11.0553 10.4916 11.0082 10.4611C10.877 10.3764 10.7671 10.2562 10.6948 10.1078C10.682 10.0818 10.6705 10.0552 10.6603 10.0281L7.95365 3.26135L5.26119 9.99249C5.18287 10.2332 5.00173 10.4388 4.74751 10.5397C4.74326 10.5413 4.73901 10.543 4.73475 10.5446C4.63467 10.583 4.52757 10.6033 4.41877 10.6033ZM50.8141 9.71958C50.8141 10.4495 51.408 11.0452 52.1397 11.0452C52.8714 11.0452 53.4653 10.4495 53.4653 9.71958C53.4653 8.98962 52.8714 8.394 52.1397 8.394C51.408 8.394 50.8141 8.98962 50.8141 9.71958Z" id="Combined-Shape" fill="#FFCFDB" fill-rule="evenodd" stroke="none" />
        </g>
        <g id="Group" transform="translate(17.67442 0)" />
        <g id="Group" />
        <g id="Group" transform="translate(50.814117 8.393996)" />
      </g>
    </g>
    <g id="Group" transform="translate(40.90598 45.167118)">
      <path d="M2.26556 17.061C2.6756 17.061 3.06267 16.9231 3.38435 16.6562L5.34974 15.039L8.80509 21.0236C9.11969 21.5697 9.70649 21.9073 10.3357 21.9073C10.6468 21.9073 10.9525 21.8242 11.2194 21.6687L14.2806 19.903C14.6889 19.6662 14.9805 19.2844 15.1043 18.8302C15.2262 18.3742 15.1626 17.8987 14.9275 17.4887L11.4722 11.5041L13.8582 10.6098C14.491 10.373 14.9275 9.80739 14.9964 9.134C15.0654 8.4606 14.7508 7.81902 14.1781 7.45669L2.70565 0.263207C2.01281 -0.175119 1.05486 -0.0531656 0.491044 0.533625C0.156997 0.880044 -0.0179793 1.33781 0.00146259 1.82209L0.498114 15.3554C0.529928 16.3133 1.3076 17.061 2.26556 17.061L2.26556 17.061ZM13.2361 8.95549L9.87439 10.2139C9.63049 10.3058 9.4396 10.4985 9.353 10.7441C9.26639 10.9898 9.28937 11.2602 9.42016 11.4847L13.3969 18.3724L10.3339 20.1399L6.35718 13.2521C6.22639 13.0277 6.00546 12.8704 5.74918 12.8244C5.69793 12.8156 5.6449 12.8103 5.59188 12.8103C5.38863 12.8103 5.1889 12.881 5.02983 13.0118L2.26025 15.2918L1.7636 1.76023L13.2361 8.95549Z" id="Shape" fill="#FFCFDB" stroke="none" />
    </g>
  </g>
</svg>