<?xml version="1.0" encoding="utf-8"?>
<svg width="77.15704px" height="76px" viewBox="0 0 77.15704 76" version="1.1" xmlns:xlink="http://www.w3.org/1999/xlink" xmlns="http://www.w3.org/2000/svg">
  <g id="Group">
    <path d="M56.7322 40.0605L48.3131 40.0605C47.6258 40.0605 47.0686 40.6177 47.0686 41.305L47.0686 74.7555C47.0686 75.4428 47.6258 76 48.3131 76L56.7322 76C57.4195 76 57.9767 75.4428 57.9767 74.7555L57.9767 41.305C57.9767 40.6177 57.4195 40.0605 56.7322 40.0605ZM55.4877 73.5111L49.5575 73.5111L49.5575 42.5495L55.4877 42.5495L55.4877 73.5111ZM72.3646 32.1115L63.9456 32.1115C63.2584 32.1115 62.7011 32.6687 62.7011 33.356L62.7011 74.7555C62.7011 75.4428 63.2584 76 63.9456 76L72.3646 76C73.0519 76 73.6091 75.4428 73.6091 74.7555L73.6091 33.356C73.6091 32.6687 73.0519 32.1115 72.3646 32.1115ZM71.1201 73.5111L65.1901 73.5111L65.1901 34.6004L71.1201 34.6004L71.1201 73.5111ZM9.66345 65.6435L1.24447 65.6435C0.557211 65.6435 0 66.2007 0 66.888L0 74.7555C0 75.4428 0.557211 76 1.24447 76L9.6633 76C10.3506 76 10.9078 75.4428 10.9078 74.7555L10.9078 66.888C10.9079 66.2007 10.3507 65.6435 9.66345 65.6435ZM8.41899 73.5111L2.48894 73.5111L2.48894 68.1325L8.41883 68.1325L8.41883 73.5111L8.41899 73.5111ZM57.0581 18.1339C57.3801 17.8118 57.5007 17.3393 57.3719 16.9022C57.2431 16.4651 56.8857 16.1334 56.4404 16.0375L50.5516 14.7684L53.3379 11.9821C53.8239 11.4961 53.8239 10.7082 53.3379 10.2222C52.8516 9.7361 52.0639 9.73625 51.5779 10.2222L48.7917 13.0084L47.5225 7.1196C47.4265 6.67424 47.0947 6.31692 46.6576 6.18812C46.2211 6.05947 45.7482 6.17972 45.4259 6.50188L36.2554 15.6725C35.9566 15.9714 35.83 16.4015 35.9189 16.8146L37.5265 24.2737L36.4002 25.3999C32.6727 22.0848 27.7667 20.0675 22.3978 20.0675C10.7661 20.0675 1.30296 29.5306 1.30296 41.1623C1.30296 50.4918 7.39121 58.4248 15.803 61.2002L15.803 74.7554C15.803 75.4426 16.3602 75.9998 17.0475 75.9998L25.4665 75.9998C26.1538 75.9998 26.711 75.4426 26.711 74.7554L26.711 61.8131C28.3647 61.468 29.9478 60.9287 31.4357 60.2201L31.4357 74.7555C31.4357 75.4428 31.993 76 32.6802 76L41.0993 76C41.7866 76 42.3438 75.4428 42.3438 74.7555L42.3438 50.1415C42.3438 49.7608 42.1724 49.4206 41.9031 49.1923C42.9264 46.7158 43.4926 44.0041 43.4926 41.1623C43.4926 35.7932 41.4753 30.8874 38.1602 27.1597L39.2863 26.0337L46.7455 27.6412C46.8328 27.66 46.9205 27.6692 47.0078 27.6692C47.3343 27.6692 47.6519 27.5406 47.8878 27.3047L57.0581 18.1339ZM38.4945 16.9529L45.5704 9.87688L46.6968 15.1029L39.6209 22.1789L38.4945 16.9529ZM24.2219 73.5111L18.2918 73.5111L18.2918 61.8547C19.6204 62.118 20.9931 62.2572 22.3978 62.2572C23.0124 62.2572 23.6205 62.2292 24.222 62.1774L24.222 73.5111L24.2219 73.5111ZM39.8549 73.5112L33.9247 73.5112L33.9247 58.8204C36.2646 57.2877 38.2833 55.3037 39.8549 52.992L39.8549 73.5112ZM41.0035 41.1623C41.0035 51.4217 32.657 59.7682 22.3978 59.7682C12.1384 59.7682 3.7919 51.4217 3.7919 41.1623C3.7919 30.903 12.1384 22.5565 22.3978 22.5565C27.0806 22.5565 31.3642 24.2961 34.6381 27.1619L31.3496 30.4506C28.9238 28.4201 25.8013 27.1957 22.3978 27.1957C14.6966 27.1957 8.43112 33.4611 8.43112 41.1623C8.43112 48.8636 14.6966 55.129 22.3978 55.129C30.099 55.129 36.3643 48.8636 36.3643 41.1623C36.3643 37.7589 35.1401 34.6364 33.1094 32.2106L36.3979 28.9219C39.2641 32.196 41.0035 36.4796 41.0035 41.1623ZM26.2948 41.1623C26.2948 43.3112 24.5467 45.0596 22.3978 45.0596C20.2489 45.0596 18.5006 43.3112 18.5006 41.1623C18.5006 39.0135 20.2487 37.2651 22.3978 37.2651C23.0191 37.2651 23.6065 37.412 24.1282 37.6718L21.5178 40.2824C21.0318 40.7683 21.0318 41.5562 21.5178 42.0422C21.7608 42.2852 22.0792 42.4067 22.3978 42.4067C22.7164 42.4067 23.0348 42.2852 23.2778 42.0422L25.8882 39.4318C26.1478 39.9537 26.2948 40.541 26.2948 41.1623L26.2948 41.1623ZM25.945 35.8552C24.9297 35.1743 23.7095 34.7764 22.3978 34.7764C18.8764 34.7764 16.0116 37.6411 16.0116 41.1625C16.0116 44.6839 18.8764 47.5486 22.3978 47.5486C25.919 47.5486 28.7838 44.6839 28.7838 41.1625C28.7838 39.8508 28.3859 38.6306 27.705 37.6153L31.3407 33.9796C32.9246 35.9476 33.8754 38.4455 33.8754 41.1625C33.8754 47.4914 28.7265 52.6402 22.3978 52.6402C16.069 52.6402 10.9201 47.4912 10.9201 41.1625C10.9201 34.8338 16.069 29.6848 22.3978 29.6848C25.1148 29.6848 27.6127 30.6357 29.5807 32.2196L25.945 35.8552ZM46.6071 25.0653L41.3809 23.9391L48.457 16.863L53.6831 17.9893L46.6071 25.0653Z" id="Shape" fill="#FFFFFF" stroke="none" />
    <path d="M69.2684 0.688191L77.0257 16.2111C77.2185 16.5969 77.198 17.0551 76.9711 17.4218C76.7443 17.7884 76.3438 18.0118 75.9126 18.0118L73.6311 18.0118L73.6311 28.9176C73.6311 29.6048 73.0739 30.162 72.3867 30.162L63.924 30.162C63.2367 30.162 62.6795 29.6048 62.6795 28.9176L62.6795 18.0118L60.3978 18.0118C59.9664 18.0118 59.566 17.7886 59.3392 17.4218C59.1124 17.0548 59.0917 16.5969 59.2845 16.2111L67.042 0.688191C67.2528 0.266472 67.6838 0 68.1552 0C68.6265 0 69.0577 0.266472 69.2684 0.688191ZM71.1421 16.7675C71.1421 16.0802 71.6993 15.523 72.3865 15.523L73.8993 15.523L68.155 4.0285L62.4106 15.523L63.9237 15.523C64.6109 15.523 65.1681 16.0802 65.1681 16.7675L65.1681 27.6732L71.1421 27.6732L71.1421 16.7675Z" id="Combined-Shape" fill="#ADF0ED" fill-rule="evenodd" stroke="none" />
  </g>
</svg>