<?xml version="1.0" encoding="utf-8"?>
<svg width="39.703735px" height="40px" viewBox="0 0 39.703735 40" version="1.1" xmlns:xlink="http://www.w3.org/1999/xlink" xmlns="http://www.w3.org/2000/svg">
  <g id="Group">
    <path d="M38.5185 20.7407C36.8889 19.1111 33.9259 19.1111 32.2963 20.7407L22.2222 30.6667C21.7778 31.1111 21.3333 31.7037 21.1852 32.4444L19.2593 38.0741C19.1111 38.6667 19.2593 39.2593 19.5556 39.5556C19.8519 39.8519 20.1481 40 20.5926 40C20.7407 40 20.8889 40 21.037 39.8519L26.6667 37.9259C27.2593 37.7778 27.8519 37.3333 28.4444 36.8889L38.3704 26.963C39.2593 26.0741 39.7037 25.037 39.7037 23.8519C39.7037 22.6667 39.4074 21.4815 38.5185 20.7407ZM36.4444 24.8889L26.5185 34.8148C26.3704 34.963 26.2222 35.1111 25.9259 35.1111L23.1111 36L24 33.1852C24 33.037 24.1481 32.7407 24.2963 32.5926L34.2222 22.6667C34.8148 22.0741 35.7037 22.0741 36.2963 22.6667C36.5926 22.963 36.7407 23.2593 36.7407 23.7037C36.7407 24.1481 36.7407 24.5926 36.4444 24.8889Z" id="Shape" fill="#9765ff" stroke="none" />
    <path d="M16.2963 32.5926L7.40741 32.5926C4.88889 32.5926 2.96296 30.6667 2.96296 28.1481L2.96296 7.40741C2.96296 4.88889 4.88889 2.96296 7.40741 2.96296L23.7037 2.96296C26.2222 2.96296 28.1481 4.88889 28.1481 7.40741L28.1481 17.7778C28.1481 18.6667 28.7407 19.2593 29.6296 19.2593C30.5185 19.2593 31.1111 18.6667 31.1111 17.7778L31.1111 7.40741C31.1111 3.25926 27.8519 0 23.7037 0L7.40741 0C3.25926 0 0 3.25926 0 7.40741L0 28.1481C0 32.2963 3.25926 35.5556 7.40741 35.5556L16.2963 35.5556C17.1852 35.5556 17.7778 34.963 17.7778 34.0741C17.7778 33.1852 17.1852 32.5926 16.2963 32.5926Z" id="Path" fill="#9765ff" stroke="none" />
    <path d="M8.88889 8.88889L22.2222 8.88889C23.1111 8.88889 23.7037 9.48148 23.7037 10.3704C23.7037 11.2593 23.1111 11.8519 22.2222 11.8519L8.88889 11.8519C8 11.8519 7.40741 11.2593 7.40741 10.3704C7.40741 9.48148 8 8.88889 8.88889 8.88889ZM8.88889 16.2963L22.2222 16.2963C23.1111 16.2963 23.7037 16.8889 23.7037 17.7778C23.7037 18.6667 23.1111 19.2593 22.2222 19.2593L8.88889 19.2593C8 19.2593 7.40741 18.6667 7.40741 17.7778C7.40741 16.8889 8 16.2963 8.88889 16.2963ZM8.88889 23.7037L17.7778 23.7037C18.6667 23.7037 19.2593 24.2963 19.2593 25.1852C19.2593 26.0741 18.6667 26.6667 17.7778 26.6667L8.88889 26.6667C8 26.6667 7.40741 26.0741 7.40741 25.1852C7.40741 24.2963 8 23.7037 8.88889 23.7037Z" id="Combined-Shape" fill="#9765ff" fill-opacity="0.4" fill-rule="evenodd" stroke="none" />
  </g>
</svg>