<?xml version="1.0" encoding="utf-8"?>
<svg width="50.00006px" height="50px" viewBox="0 0 50.00006 50" version="1.1" xmlns:xlink="http://www.w3.org/1999/xlink" xmlns="http://www.w3.org/2000/svg">
  <g id="Group">
    <path d="M1.52236 24.7456L5.8822 20.392C6.57946 19.6956 7.70904 19.6956 8.40631 20.392L10.6054 22.5929C11.6662 23.6058 13.3358 23.6058 14.3965 22.5929L27.4999 9.48858C27.8339 9.15313 28.288 8.96485 28.7615 8.96534C29.2357 8.96427 29.6907 9.15294 30.0248 9.48946L34.0087 13.4752C35.07 14.4857 36.7376 14.4857 37.7988 13.4752L46.4014 4.85648C46.7559 4.52142 47.3103 4.52142 47.6648 4.85648L48.9585 6.15198C49.0554 6.24846 49.1997 6.27952 49.3276 6.23147C49.4555 6.18342 49.5437 6.06516 49.5532 5.92874L49.9997 0.178765C50.0028 0.129253 49.9838 0.0809137 49.948 0.0466365C49.9166 0.0146054 49.8731 -0.00228904 49.8284 0.000250012L44.0758 0.446634C43.9371 0.452689 43.8163 0.543021 43.7713 0.67427C43.7198 0.797805 43.7509 0.940382 43.8489 1.0314L45.1463 2.33139C45.4942 2.67992 45.4942 3.24447 45.1463 3.59301L37.1633 11.5805C36.4566 12.2554 35.3441 12.2554 34.6374 11.5805L30.6536 7.58937C29.593 6.576 27.923 6.576 26.8625 7.58937L13.1322 21.3286C12.9647 21.4962 12.7374 21.5904 12.5004 21.5904C12.2634 21.5904 12.0362 21.4961 11.8687 21.3286L9.03921 18.4973C8.53677 17.9944 7.85504 17.7118 7.1441 17.7118C6.43317 17.7118 5.75144 17.9944 5.249 18.4973L0.26787 23.4894C0.0990229 23.6535 0.00371092 23.8789 0.00371092 24.1144C0.00371092 24.3498 0.0990229 24.5753 0.26787 24.7394C0.615427 25.0806 1.17138 25.0833 1.52236 24.7456L1.52236 24.7456Z" id="Path_96_" fill="#9765ff" stroke="none" />
    <path d="M48.214 35.7143L37.4998 35.7143C37.0068 35.7143 36.6069 35.3146 36.6069 34.8215C36.6069 34.3283 37.0068 33.9286 37.4998 33.9286L48.214 33.9286C48.7072 33.9286 49.1069 34.3284 49.1069 34.8215C49.1069 35.3146 48.7071 35.7143 48.214 35.7143ZM48.214 39.2858L37.4998 39.2858C37.0068 39.2858 36.6069 38.8861 36.6069 38.3929C36.6069 37.8998 37.0068 37.5001 37.4998 37.5001L48.214 37.5001C48.7072 37.5001 49.1069 37.8998 49.1069 38.3929C49.1069 38.8861 48.7071 39.2858 48.214 39.2858ZM30.357 42.8572L19.6428 42.8572C19.1496 42.8572 18.7499 42.4575 18.7499 41.9643C18.7499 41.4711 19.1497 41.0714 19.6428 41.0714L30.357 41.0714C30.8501 41.0714 31.2498 41.4712 31.2498 41.9643C31.2498 42.4575 30.85 42.8572 30.357 42.8572ZM48.214 42.8572L37.4998 42.8572C37.0068 42.8572 36.6069 42.4575 36.6069 41.9643C36.6069 41.4711 37.0068 41.0714 37.4998 41.0714L48.214 41.0714C48.7072 41.0714 49.1069 41.4712 49.1069 41.9643C49.1069 42.4575 48.7071 42.8572 48.214 42.8572ZM30.357 46.4285L19.6428 46.4285C19.1496 46.4285 18.7499 46.0288 18.7499 45.5357C18.7499 45.0425 19.1497 44.6428 19.6428 44.6428L30.357 44.6428C30.8501 44.6428 31.2498 45.0426 31.2498 45.5357C31.2498 46.0288 30.85 46.4285 30.357 46.4285ZM48.214 46.4285L37.4998 46.4285C37.0068 46.4285 36.6069 46.0288 36.6069 45.5357C36.6069 45.0425 37.0068 44.6428 37.4998 44.6428L48.214 44.6428C48.7072 44.6428 49.1069 45.0426 49.1069 45.5357C49.1069 46.0288 48.7071 46.4285 48.214 46.4285ZM1.78573 48.2143L12.4999 48.2143C12.993 48.2143 13.3928 48.6141 13.3928 49.1071C13.3928 49.6003 12.993 50 12.4999 50L1.78573 50C1.29257 50 0.892867 49.6002 0.892867 49.1071C0.892867 48.614 1.29267 48.2143 1.78573 48.2143ZM30.357 50L19.6428 50C19.1496 50 18.7499 49.6002 18.7499 49.1071C18.7499 48.614 19.1497 48.2143 19.6428 48.2143L30.357 48.2143C30.8501 48.2143 31.2498 48.6141 31.2498 49.1071C31.2498 49.6003 30.85 50 30.357 50ZM48.214 50L37.4998 50C37.0068 50 36.6069 49.6002 36.6069 49.1071C36.6069 48.614 37.0068 48.2143 37.4998 48.2143L48.214 48.2143C48.7072 48.2143 49.1069 48.6141 49.1069 49.1071C49.1069 49.6003 48.7071 50 48.214 50Z" id="Combined-Shape" fill="#9765ff" fill-opacity="0.4" fill-rule="evenodd" stroke="none" />
    <path d="M24.9999 25.0001C21.055 25.0001 17.857 28.1981 17.857 32.143C17.857 36.0879 21.055 39.2858 24.9999 39.2858C28.9448 39.2858 32.1427 36.0879 32.1427 32.143C32.1383 28.1999 28.9429 25.0045 24.9999 25.0001L24.9999 25.0001ZM25.8927 36.4429L25.8927 36.6072C25.8927 37.1003 25.493 37.5001 24.9999 37.5001C24.5068 37.5001 24.107 37.1004 24.107 36.6072L24.107 36.4286C23.5087 36.2226 23.0026 35.8114 22.6784 35.2678C22.4497 34.8428 22.6001 34.3131 23.018 34.0717C23.4359 33.8303 23.9701 33.9646 24.224 34.3751C24.4405 34.7501 24.8948 34.9156 25.3017 34.7679C25.7088 34.6203 25.9511 34.2018 25.8768 33.7754C25.8025 33.3488 25.4329 33.0371 24.9999 33.0358C23.6969 33.0383 22.5819 32.1006 22.3611 30.8163C22.1403 29.5321 22.8779 28.2759 24.107 27.843L24.107 27.6787C24.107 27.1857 24.5067 26.7859 24.9999 26.7859C25.4929 26.7859 25.8927 27.1856 25.8927 27.6787L25.8927 27.8573C26.4911 28.0633 26.9971 28.4745 27.3213 29.0181C27.4925 29.2948 27.4997 29.6428 27.3398 29.9263C27.1799 30.2098 26.8787 30.3839 26.5533 30.3807C26.2279 30.3774 25.93 30.1976 25.7758 29.9109C25.5592 29.5359 25.105 29.3704 24.698 29.5181C24.291 29.6657 24.0486 30.0842 24.1229 30.5106C24.1972 30.9372 24.5669 31.2489 24.9999 31.2502C26.3029 31.2478 27.4178 32.1854 27.6386 33.4697C27.8594 34.7538 27.1217 36.01 25.8927 36.4429L25.8927 36.4429Z" id="Shape_41_" fill="#9765ff" fill-opacity="0.6" stroke="none" />
    <path d="M42.8569 17.8573C38.912 17.8573 35.7141 21.0552 35.7141 25.0001C35.7141 28.945 38.912 32.143 42.8569 32.143C46.8018 32.143 49.9998 28.9449 49.9998 25.0001C49.9954 21.0571 46.8 17.8617 42.8569 17.8573L42.8569 17.8573ZM43.7498 29.3001L43.7498 29.4644C43.7498 29.9574 43.3501 30.3572 42.8569 30.3572C42.3639 30.3572 41.9641 29.9575 41.9641 29.4644L41.9641 29.2857C41.3654 29.0802 40.8592 28.669 40.5354 28.125C40.3067 27.7 40.4571 27.1702 40.8751 26.9288C41.293 26.6874 41.8271 26.8218 42.081 27.2322C42.2975 27.6072 42.7518 27.7728 43.1588 27.6251C43.5657 27.4775 43.8082 27.059 43.7339 26.6325C43.6595 26.206 43.2899 25.8943 42.8569 25.893C41.5539 25.8954 40.439 24.9577 40.2182 23.6735C39.9974 22.3893 40.735 21.1331 41.9641 20.7001L41.9641 20.5359C41.9641 20.0428 42.3638 19.643 42.8569 19.643C43.35 19.643 43.7498 20.0427 43.7498 20.5359L43.7498 20.7145C44.3484 20.9201 44.8547 21.3313 45.1784 21.8752C45.4071 22.3002 45.2567 22.83 44.8387 23.0714C44.4209 23.3128 43.8867 23.1785 43.6328 22.768C43.4163 22.393 42.962 22.2275 42.5551 22.3751C42.148 22.5228 41.9057 22.9412 41.98 23.3677C42.0543 23.7943 42.4239 24.106 42.8569 24.1073C44.1599 24.1048 45.2749 25.0425 45.4957 26.3268C45.7165 27.611 44.9789 28.8672 43.7498 29.3001L43.7498 29.3001Z" id="Shape_40_" fill="#9765ff" stroke="none" />
    <g id="Group" transform="translate(0.8928666 37.50006)" />
    <path d="M7.14284 46.4285C11.0877 46.4285 14.2857 43.2306 14.2857 39.2857C14.2857 35.3408 11.0877 32.1429 7.14284 32.1429C3.19793 32.1429 0 35.3409 0 39.2858C0.00439451 43.2287 3.19979 46.4241 7.14284 46.4285ZM6.24997 34.9858L6.24997 34.8216C6.24997 34.3285 6.64967 33.9287 7.14284 33.9287C7.636 33.9287 8.0357 34.3284 8.0357 34.8216L8.0357 35.0002C8.63404 35.2061 9.14009 35.6174 9.46431 36.1609C9.6355 36.4377 9.64263 36.7856 9.48277 37.0691C9.3229 37.3526 9.02164 37.5267 8.69625 37.5235C8.37086 37.5203 8.07301 37.3404 7.91871 37.0538C7.70221 36.6788 7.24791 36.5133 6.84098 36.6609C6.43405 36.8086 6.19157 37.227 6.26589 37.6535C6.3402 38.08 6.70983 38.3918 7.14284 38.393C8.44586 38.3906 9.56079 39.3283 9.78159 40.6125C10.0024 41.8967 9.2648 43.153 8.0357 43.5859L8.0357 43.7501C8.0357 44.2432 7.636 44.643 7.14284 44.643C6.64967 44.643 6.24997 44.2431 6.24997 43.75L6.24997 43.5714C5.65163 43.3655 5.14558 42.9542 4.82136 42.4107C4.65017 42.1339 4.64304 41.786 4.80291 41.5025C4.96267 41.219 5.26404 41.0449 5.58943 41.0481C5.91481 41.0513 6.21266 41.2312 6.36696 41.5178C6.58346 41.8928 7.03776 42.0583 7.44469 41.9107C7.85172 41.763 8.0941 41.3446 8.01978 40.9181C7.94547 40.4916 7.57584 40.1798 7.14284 40.1786C5.83981 40.181 4.72488 39.2433 4.50408 37.959C4.28328 36.6748 5.02087 35.4186 6.24997 34.9858L6.24997 34.9858Z" id="Shape_39_" fill="#9765ff" fill-opacity="0.4" stroke="none" />
  </g>
</svg>