<svg width="60" height="60" viewBox="0 0 60 60" xmlns="http://www.w3.org/2000/svg">
    <g fill="#9765ff" fill-rule="nonzero">
        <path d="M29.986 17.135c-8.675 0-15.707 7.032-15.707 15.706 0 8.675 7.032 15.707 15.707 15.707 8.674 0 15.706-7.032 15.706-15.707-.01-8.67-7.036-15.696-15.706-15.706zm0 25.702c-5.52 0-9.996-4.475-9.996-9.996 0-5.52 4.475-9.995 9.996-9.995 5.52 0 9.995 4.475 9.995 9.995-.006 5.518-4.478 9.99-9.995 9.996z"/>
        <path d="M56.64 0a3.332 3.332 0 0 1 3.331 3.332v47.596a3.332 3.332 0 0 1-3.124 3.315 4.265 4.265 0 0 1-7.044 4.474l-4.456-4.457H3.332A3.332 3.332 0 0 1 0 50.928V3.332A3.332 3.332 0 0 1 3.332 0zm.475 14.279H2.855v36.649c0 .263.214.476.477.476H42.49l-2.781-2.782a18.531 18.531 0 0 0 2.337-1.7l9.775 9.776a1.428 1.428 0 0 0 2.02-2.02l-9.776-9.775a18.531 18.531 0 0 0 1.7-2.338l8.84 8.839h2.033a.476.476 0 0 0 .476-.476v-36.65zM56.64 2.856H3.332a.476.476 0 0 0-.476.476v8.091h54.26V3.332a.476.476 0 0 0-.477-.476zM12.851 5.712a1.428 1.428 0 1 1 0 2.855H7.139a1.428 1.428 0 1 1 0-2.855z" opacity=".4"/>
    </g>
</svg>
