<?xml version="1.0" encoding="utf-8"?>
<svg width="50px" height="50px" viewBox="0 0 50 50" version="1.1" xmlns:xlink="http://www.w3.org/1999/xlink" xmlns="http://www.w3.org/2000/svg">
  <g id="007-design">
    <path d="M44.0476 4.7619L20.2381 4.7619C19.5806 4.7619 19.0476 5.2949 19.0476 5.95238L19.0476 29.7619C19.0476 30.4194 19.5806 30.9524 20.2381 30.9524L44.0476 30.9524C44.7051 30.9524 45.2381 30.4194 45.2381 29.7619L45.2381 5.95238C45.2381 5.2949 44.7051 4.7619 44.0476 4.7619ZM26.3968 17.8571C27.2008 16.6413 29.3317 13.8889 32.1429 13.8889C34.9548 13.8889 37.0857 16.6421 37.8889 17.8571C37.0849 19.073 34.9524 21.8254 32.1429 21.8254C29.3333 21.8254 27.2 19.0722 26.3968 17.8571ZM30.5556 17.8571C30.5556 18.7338 31.2662 19.4444 32.1429 19.4444C33.0195 19.4444 33.7302 18.7338 33.7302 17.8571C33.7302 16.9805 33.0195 16.2698 32.1429 16.2698C31.2662 16.2698 30.5556 16.9805 30.5556 17.8571Z" id="Shape" fill="#9765ff" fill-rule="evenodd" stroke="none" />
    <path d="M47.2222 0L2.77778 0C1.24365 0 0 1.24365 0 2.77778L0 32.9365C0 34.4706 1.24365 35.7143 2.77778 35.7143L47.2222 35.7143C48.7563 35.7143 50 34.4706 50 32.9365L50 2.77778C50 1.24365 48.7563 0 47.2222 0ZM47.619 32.9365C47.619 33.1557 47.4414 33.3333 47.2222 33.3333L2.77778 33.3333C2.55862 33.3333 2.38095 33.1557 2.38095 32.9365L2.38095 2.77778C2.38095 2.55862 2.55862 2.38095 2.77778 2.38095L47.2222 2.38095C47.4414 2.38095 47.619 2.55862 47.619 2.77778L47.619 32.9365ZM8.33333 9.92064L13.0952 9.92064C13.7527 9.92064 14.2857 9.38764 14.2857 8.73016C14.2857 8.07268 13.7527 7.53968 13.0952 7.53968L8.33333 7.53968C7.67585 7.53968 7.14286 8.07268 7.14286 8.73016C7.14286 9.38764 7.67585 9.92064 8.33333 9.92064ZM4.7619 18.254C4.7619 14.9666 7.42688 12.3016 10.7143 12.3016C14.0002 12.3051 16.6632 14.968 16.6667 18.254C16.6667 21.5414 14.0017 24.2063 10.7143 24.2063C7.42688 24.2063 4.7619 21.5414 4.7619 18.254ZM7.41472 19.6207C7.9675 20.9552 9.26978 21.8254 10.7143 21.8254C12.6858 21.8232 14.2835 20.2255 14.2857 18.254C14.2857 16.8095 13.4156 15.5072 12.081 14.9544C10.7465 14.4016 9.21033 14.7072 8.1889 15.7286C7.16748 16.75 6.86193 18.2861 7.41472 19.6207ZM7.14286 27.7778C7.14286 27.1203 7.67585 26.5873 8.33333 26.5873L13.0952 26.5873C13.7527 26.5873 14.2857 27.1203 14.2857 27.7778C14.2857 28.4353 13.7527 28.9683 13.0952 28.9683L8.33333 28.9683C7.67585 28.9683 7.14286 28.4353 7.14286 27.7778ZM46.4286 40.4762L45.2381 40.4762L45.2381 39.2857C45.2381 38.6282 44.7051 38.0952 44.0476 38.0952L7.53968 38.0952C7.28358 38.1039 7.03547 38.1866 6.8254 38.3333L0.476191 43.0952C0.176422 43.3201 0 43.6729 0 44.0476C0 44.4223 0.176422 44.7752 0.476191 45L6.8254 49.7619C7.03471 49.9102 7.28328 49.993 7.53968 50L44.0476 50C44.7051 50 45.2381 49.467 45.2381 48.8095L45.2381 47.619L46.4286 47.619C48.401 47.619 50 46.0201 50 44.0476C50 42.0752 48.401 40.4762 46.4286 40.4762ZM8.73016 40.4762L11.1111 40.4762L11.1111 47.619L8.73016 47.619L8.73016 40.4762ZM13.4921 40.4762L38.0952 40.4762L38.0952 47.619L13.4921 47.619L13.4921 40.4762ZM42.8571 47.619L40.4762 47.619L40.4762 40.4762L42.8571 40.4762L42.8571 47.619ZM46.4286 45.2381L45.2381 45.2381L45.2381 42.8571L46.4286 42.8571C47.0861 42.8571 47.619 43.3901 47.619 44.0476C47.619 44.7051 47.0861 45.2381 46.4286 45.2381ZM6.34921 46.4286L3.1746 44.0476L6.34921 41.6667L6.34921 46.4286Z" id="Combined-Shape" fill="#9765ff" fill-rule="evenodd" stroke="none" />
  </g>
</svg>