<?xml version="1.0" encoding="utf-8"?>
<svg width="50px" height="50px" viewBox="0 0 50 50" version="1.1" xmlns:xlink="http://www.w3.org/1999/xlink" xmlns="http://www.w3.org/2000/svg">
  <g id="012-online-store">
    <path d="M49.7619 14.0476L46.8254 9.60318L46.8254 2.77778C46.8254 1.26984 45.5556 0 44.0476 0L5.95238 0C4.44444 0 3.1746 1.26984 3.1746 2.77778L3.1746 9.52381L0.238095 13.9683C0.106845 14.1538 0 14.3651 0 14.6032L0 16.9841C0 19.2064 1.19048 21.1905 3.1746 22.2222L3.1746 47.2222C3.1746 48.7302 4.44444 50 5.95238 50L44.0476 50C45.5556 50 46.8254 48.7302 46.8254 47.2222L46.8254 22.3016C48.8095 21.2698 50 19.2857 50 17.0635L50 14.6825C50 14.4444 49.8812 14.2356 49.7619 14.0476ZM5.55556 2.77778C5.55556 2.53968 5.71429 2.38095 5.95238 2.38095L44.0476 2.38095C44.2857 2.38095 44.4444 2.53968 44.4444 2.77778L44.4444 8.73016L5.55556 8.73016L5.55556 2.77778ZM10.3175 5.55556C10.3175 6.4322 9.6068 7.14286 8.73016 7.14286C7.85352 7.14286 7.14286 6.4322 7.14286 5.55556C7.14286 4.67891 7.85352 3.96825 8.73016 3.96825C9.6068 3.96825 10.3175 4.67891 10.3175 5.55556ZM18.254 5.55556C18.254 6.4322 17.5433 7.14286 16.6667 7.14286C15.79 7.14286 15.0794 6.4322 15.0794 5.55556C15.0794 4.67891 15.79 3.96825 16.6667 3.96825C17.5433 3.96825 18.254 4.67891 18.254 5.55556ZM26.1905 5.55556C26.1905 6.4322 25.4798 7.14286 24.6032 7.14286C23.7265 7.14286 23.0159 6.4322 23.0159 5.55556C23.0159 4.67891 23.7265 3.96825 24.6032 3.96825C25.4798 3.96825 26.1905 4.67891 26.1905 5.55556ZM2.38095 17.0635L2.38095 15.0794L5 11.1111L11.3492 11.1111L9.60317 15.873C9.52381 16.0317 9.52381 16.1111 9.52381 16.2698L9.52381 17.0635C9.52381 19.0476 7.93651 20.6349 5.95238 20.6349C3.96825 20.6349 2.38095 19.0476 2.38095 17.0635ZM47.619 17.0635C47.619 19.0476 46.0317 20.6349 44.0476 20.6349C42.0635 20.6349 40.4762 19.0476 40.4762 17.0635L40.4762 16.2698C40.4762 16.1111 40.4762 16.0317 40.3968 15.873L38.6508 11.1111L45 11.1111L47.619 15.0794L47.619 17.0635ZM44.4444 47.2222C44.4444 47.4603 44.2857 47.619 44.0476 47.619L5.95238 47.619C5.71429 47.619 5.55556 47.4603 5.55556 47.2222L5.55556 23.0159C7.53968 23.1746 9.52381 22.2222 10.7143 20.6349C13.0952 23.8095 17.8571 23.8095 20.2381 20.6349C22.619 23.8095 27.381 23.8095 29.7619 20.6349C32.1429 23.8095 36.9048 23.8095 39.2857 20.6349C40.4762 22.2222 42.4603 23.1746 44.4444 23.0159L44.4444 47.2222Z" id="Combined-Shape" fill="#9765ff" fill-rule="evenodd" stroke="none" />
    <path d="M28.4444 35.1905L29.9524 33.6825C31.0635 32.5714 30.5079 30.746 29 30.3492L21.381 28.4444C20.5079 28.2064 19.7143 29 19.9524 29.873L21.8571 37.4921C22.254 39 24.0794 39.4762 25.1905 38.4444L26.6984 36.9365L29.7937 40.0317C30.2698 40.5079 30.9841 40.5079 31.4603 40.0317C31.9365 39.5556 31.9365 38.8413 31.4603 38.3651L28.4444 35.1905ZM24 36.2222L22.8095 31.1429L27.8095 32.4127L24 36.2222Z" id="Shape" fill="#FFAA47" stroke="none" />
  </g>
</svg>