<?xml version="1.0" encoding="utf-8"?>
<svg width="48.490112px" height="52px" viewBox="0 0 48.490112 52" version="1.1" xmlns:xlink="http://www.w3.org/1999/xlink" xmlns="http://www.w3.org/2000/svg">
  <defs>
    <path d="M0 0L6.88669 0L6.88669 19.1561L0 19.1561L0 0Z" id="path_1" />
    <path d="M0 0L6.90619 0L6.90619 16.3807L0 16.3807L0 0Z" id="path_2" />
    <clipPath id="clip_1">
      <use xlink:href="#path_1" clip-rule="evenodd" fill-rule="evenodd" />
    </clipPath>
    <clipPath id="clip_2">
      <use xlink:href="#path_2" clip-rule="evenodd" fill-rule="evenodd" />
    </clipPath>
  </defs>
  <g id="Group-19">
    <path d="M42.7891 13.7014C43.4748 13.0127 43.9289 12.9245 44.6043 13.6851C45.4934 14.6865 46.4815 15.6002 47.4336 16.5448C47.6121 16.7221 47.7793 17.0219 48.0665 16.9249C48.3701 16.8224 48.2943 16.4852 48.2947 16.2351C48.3002 13.0619 48.2843 9.88863 48.3078 6.71552C48.3137 5.92926 47.9678 5.69506 47.2353 5.70998C45.6983 5.74139 44.1604 5.7194 42.6228 5.71979C41.0199 5.71999 39.4169 5.71528 37.814 5.7249C37.5672 5.72647 37.2358 5.63184 37.1145 5.93182C36.9947 6.22728 37.2896 6.39572 37.4649 6.57241C38.5011 7.618 39.5243 8.67813 40.5968 9.68525C41.1467 10.2016 41.1738 10.5249 40.6005 11.0919C34.8811 16.748 29.1857 22.4285 23.5095 28.1279C22.8678 28.7726 22.4439 28.6311 21.895 28.071C19.3103 25.4324 16.7133 22.8059 14.1094 20.1864C13.1537 19.225 13.1378 19.2372 12.2066 20.1675C8.71196 23.6585 5.20373 27.1359 1.73084 30.6484C-0.187991 32.5896 -0.277708 31.9706 1.78208 34.1033C2.29015 34.6296 2.67553 34.5831 3.17045 34.0825C6.27543 30.9417 9.4189 27.8393 12.4972 24.6729C13.0549 24.0992 13.3166 24.1962 13.7996 24.6858C16.442 27.3632 19.1112 30.0145 21.7717 32.6741C22.7784 33.6806 22.7804 33.681 23.7614 32.7025C30.1084 26.3734 36.4643 20.0531 42.7891 13.7014" id="Combined-Shape" fill="#FFAA47" fill-rule="evenodd" stroke="none" />
    <path d="M17.5242 17.7571C18.313 17.9826 19.1126 18.2748 19.9091 18.2712C21.0768 18.2659 21.6041 18.6364 21.4345 19.8492C21.3567 20.4062 21.6624 20.7042 22.2435 20.6909C22.6031 20.6824 22.9632 20.6826 23.3229 20.6916C23.839 20.7046 24.2024 20.4733 24.116 19.948C23.8936 18.5951 24.6743 18.2969 25.779 18.0154C27.5506 17.5637 28.7966 16.3712 29.1802 14.562C29.5774 12.6865 29.1679 10.9752 27.5088 9.76215C26.7926 9.23856 26.0095 8.83748 25.1857 8.50767C24.0948 8.07046 23.0029 7.63306 21.929 7.1562C21.5344 6.98089 21.2046 6.67463 21.2798 6.16322C21.3606 5.61235 21.8149 5.54697 22.2384 5.50457C23.7997 5.3481 25.3049 5.60116 26.729 6.24901C27.3352 6.52484 27.6984 6.44827 27.9344 5.78844C28.1873 5.08169 28.4809 4.38712 28.7958 3.7053C29.0744 3.10181 28.8481 2.81067 28.2805 2.59472C27.2359 2.19717 26.1805 1.84969 25.0575 1.79825C24.4764 1.77155 24.1068 1.59624 24.1417 0.942888C24.2067 -0.272722 23.3036 0.0535607 22.6424 0.0123337C21.983 -0.0288934 21.341 -0.0202554 21.4195 0.929146C21.472 1.56208 21.1439 1.79943 20.5532 1.84262C20.2316 1.86618 19.9087 1.96316 19.6008 2.06937C17.9292 2.64655 16.5958 3.59222 16.3272 5.48042C16.0467 7.45402 16.4686 9.19753 18.2645 10.3733C18.9491 10.8215 19.6487 11.2314 20.4228 11.5216C21.4627 11.9115 22.4889 12.3404 23.5054 12.7878C23.9984 13.005 24.2736 13.4092 24.1337 13.9779C24.0053 14.4984 23.5669 14.5561 23.1297 14.5798C21.4804 14.6695 19.8839 14.4889 18.3244 13.8709C16.1811 13.0214 16.2693 12.7221 16.2746 15.2196C16.2746 15.4485 16.306 15.6829 16.2691 15.9058C16.1001 16.9292 16.5377 17.4749 17.5242 17.7571" id="Fill-7" fill="#FF7324" fill-rule="evenodd" stroke="none" />
    <path d="M44.2937 18.2488C45.1767 19.1201 46.0486 20.0029 46.9275 20.8787C47.0887 21.0395 47.2448 21.29 47.4344 21.3236C48.4987 21.5119 48.4943 22.2484 48.4895 23.0386C48.4892 23.0852 48.4889 23.1319 48.4888 23.1788C48.4773 31.8388 48.4812 40.4987 48.4769 49.1587L48.4769 49.2421C48.477 49.6387 48.4772 50.0409 48.4089 50.4279C48.2291 51.4476 47.6217 51.9578 46.5853 51.9771C45.5725 51.9957 44.5591 51.99 43.5461 51.9802C42.2359 51.9679 41.5435 51.3406 41.4669 50.038C41.4306 49.4214 41.4363 48.8024 41.4421 48.1834C41.4442 47.9521 41.4463 47.7208 41.4463 47.4896C41.4453 44.4948 41.4454 41.4998 41.4456 38.5049C41.4456 37.4149 41.4457 36.3249 41.4457 35.235C41.4457 33.9247 41.4457 32.6144 41.4457 31.3042L41.4457 31.153C41.4456 27.7425 41.4455 24.332 41.4469 20.9215C41.4473 19.9633 42.6142 18.2443 43.4611 17.9072C43.8216 17.7637 44.0212 17.9692 44.2176 18.1716C44.2429 18.1976 44.2682 18.2236 44.2937 18.2488ZM39.116 22.1544C39.1595 22.1112 39.2029 22.0604 39.2473 22.0085C39.4076 21.821 39.5806 21.6185 39.8178 21.7031C40.1194 21.8105 40.0926 22.0989 40.0677 22.366C40.061 22.4385 40.0544 22.5094 40.0546 22.5747C40.0617 26.2736 40.0613 29.9726 40.0609 33.6715L40.0609 33.6771C40.0608 34.5547 40.0607 35.4324 40.0607 36.31C40.0607 37.5994 40.061 38.8887 40.0613 40.1781C40.0621 43.3691 40.0628 46.56 40.0589 49.7512C40.0569 51.4465 39.5196 51.9765 37.8325 51.9824L37.645 51.9831C36.8573 51.9859 36.0695 51.9887 35.2817 51.9808C33.8483 51.9667 33.1966 51.3294 33.1869 49.8688C33.1741 47.9715 33.1764 46.074 33.1786 44.1765C33.1794 43.425 33.1803 42.6735 33.1803 41.922C33.1802 40.8158 33.1814 39.7095 33.1826 38.6033C33.1859 35.4907 33.1892 32.3782 33.1651 29.2659C33.1591 28.4521 33.3774 27.8447 33.9693 27.2734C35.7096 25.5929 37.399 23.8594 39.116 22.1544ZM8.90433 33.0914C10.1256 31.9113 11.3273 30.7102 12.5125 29.4938C12.9365 29.0588 13.1982 29.0356 13.7096 29.4659C14.7918 30.3761 15.2494 31.3946 15.1814 32.8497C15.0933 34.7339 15.1117 36.623 15.1301 38.5122C15.1377 39.3028 15.1454 40.0934 15.1453 40.8837C15.1453 41.771 15.1458 42.6584 15.1463 43.5458L15.1463 43.5503C15.1475 45.6339 15.1486 47.7175 15.1426 49.8011C15.1377 51.468 14.6257 51.9765 12.9872 51.9822C12.815 51.9828 12.6428 51.9836 12.4707 51.9844C11.7281 51.9878 10.9856 51.9912 10.2434 51.9785C8.975 51.9567 8.28141 51.2611 8.2712 49.9377C8.25625 47.9664 8.25863 45.9951 8.261 44.0237L8.261 44.0237C8.26194 43.2512 8.26287 42.4787 8.26276 41.7063C8.26264 41.0319 8.26379 40.3574 8.26494 39.683L8.26494 39.6827C8.26779 38.0054 8.27064 36.328 8.25412 34.6509C8.24784 34.0143 8.44749 33.5327 8.90433 33.0914ZM30.9529 30.3245C30.9893 30.2883 31.0254 30.2466 31.0623 30.2041C31.2057 30.0386 31.3606 29.8599 31.5847 29.9417C31.864 30.0437 31.8435 30.3056 31.8247 30.5475C31.82 30.6078 31.8154 30.6668 31.8156 30.7219C31.822 33.2243 31.8216 35.7266 31.8212 38.2289C31.8211 38.9313 31.821 39.6338 31.8211 40.3362C31.8211 41.22 31.8215 42.1037 31.822 42.9875L31.822 42.9897C31.823 45.1793 31.8241 47.3688 31.8195 49.5583C31.8159 51.3996 31.2394 51.9797 29.4393 51.9827C29.1942 51.983 28.9491 51.9845 28.7039 51.9861C28.0332 51.9903 27.3624 51.9945 26.6926 51.9736C25.6183 51.9401 24.9628 51.3258 24.9575 50.2552C24.9437 47.4611 24.9447 44.6671 24.9457 41.8731L24.9457 41.8721L24.9457 41.869C24.9463 40.2169 24.9469 38.5648 24.9444 36.9128C24.9438 36.4465 25.1538 36.11 25.467 35.7981C27.2977 33.9755 29.1211 32.1458 30.9529 30.3245ZM21.8819 37.6769C21.9219 37.717 21.9616 37.7586 22.0015 37.8005C22.2367 38.0471 22.4798 38.302 22.8419 38.3C23.33 38.2973 23.3679 38.5916 23.3681 38.9388C23.3683 39.8362 23.3693 40.7335 23.3704 41.6309C23.3738 44.5942 23.3772 47.5575 23.3516 50.5205C23.3441 51.3882 22.7776 51.9226 21.9114 51.9603C20.7032 52.0131 19.4896 52.0123 18.2811 51.9639C17.1485 51.9183 16.5267 51.1022 16.5165 49.6785C16.5033 47.8382 16.5058 45.9977 16.5083 44.1573L16.5083 44.1566C16.5094 43.3471 16.5105 42.5376 16.5103 41.7281C16.5101 41.2405 16.5098 40.7528 16.5095 40.2652C16.5082 38.1027 16.507 35.9403 16.515 33.7778C16.5152 33.7081 16.5082 33.6321 16.501 33.5545L16.501 33.5544C16.476 33.2858 16.4493 32.9976 16.7178 32.8826C17.034 32.7472 17.25 32.9929 17.4492 33.2194C17.4967 33.2734 17.5433 33.3264 17.59 33.3728C19.0269 34.8014 20.4512 36.2426 21.8819 37.6769ZM5.92514 36.0976C5.97787 36.0482 6.02794 35.986 6.0789 35.9228C6.23988 35.7231 6.40987 35.5121 6.70139 35.6547C6.93694 35.7699 6.91485 36.0267 6.89415 36.2674C6.88828 36.3356 6.88253 36.4025 6.88279 36.4645C6.88951 38.2179 6.88874 39.9715 6.88798 41.7248C6.88776 42.2258 6.88754 42.7266 6.8875 43.2275C6.88744 43.8918 6.88829 44.556 6.88914 45.2203L6.88915 45.2213L6.88915 45.2213C6.89106 46.7132 6.89298 48.205 6.88455 49.6966C6.87454 51.4327 6.3166 51.9781 4.59233 51.9824C4.37492 51.9829 4.15748 51.9841 3.94005 51.9854L3.93969 51.9854C3.24229 51.9892 2.54485 51.9931 1.84798 51.9757C0.713842 51.9476 0.0310431 51.3516 0.0216198 50.2353C-0.00534825 47.0888 -0.00111469 43.9419 0.00311895 40.7951C0.00424793 39.9559 0.00537692 39.1167 0.00591422 38.2775C0.00594149 38.247 0.00503673 38.2154 0.00411733 38.1833C-0.00158138 37.9843 -0.00784201 37.7656 0.203804 37.6628C0.406796 37.5643 0.53969 37.698 0.666597 37.8257C0.703786 37.8631 0.740461 37.9 0.778235 37.9304C0.971445 38.0858 1.14719 38.3003 1.3218 38.5133C1.6828 38.9538 2.0389 39.3883 2.53431 39.2825C3.18668 39.1435 3.69181 38.2958 4.25211 37.751C4.81437 37.2044 5.35366 36.6339 5.92514 36.0976Z" id="Combined-Shape" fill="#9765ff" fill-rule="evenodd" stroke="none" />
    <g id="Group-15" transform="translate(16.486036 31.84388)">
      <path d="M0 0L6.88669 0L6.88669 19.1561L0 19.1561L0 0Z" id="Clip-14" fill="none" fill-rule="evenodd" stroke="none" />
    </g>
    <g id="Group-18" transform="translate(5.0066005E-06 34.60799)">
      <path d="M0 0L6.90619 0L6.90619 16.3807L0 16.3807L0 0Z" id="Clip-17" fill="none" fill-rule="evenodd" stroke="none" />
    </g>
  </g>
</svg>