<?xml version="1.0" encoding="utf-8"?>
<svg width="49.976074px" height="50px" viewBox="0 0 49.976074 50" version="1.1" xmlns:xlink="http://www.w3.org/1999/xlink" xmlns="http://www.w3.org/2000/svg">
  <g id="020-survey">
    <path d="M24.988 32.3678C27.7494 32.3678 29.988 30.1292 29.988 27.3678C29.988 24.6064 27.7494 22.3678 24.988 22.3678C22.2266 22.3678 19.988 24.6064 19.988 27.3678C19.988 30.1292 22.2266 32.3678 24.988 32.3678Z" id="Oval" fill="#9765ff" stroke="none" />
    <path d="M24.988 14.2789C17.7592 14.2789 11.8991 20.139 11.8991 27.3678C11.8991 34.5966 17.7592 40.4568 24.988 40.4568C32.2168 40.4568 38.077 34.5966 38.077 27.3678C38.0687 20.1424 32.2134 14.2872 24.988 14.2789L24.988 14.2789ZM24.988 35.6972C20.3878 35.6972 16.6587 31.968 16.6587 27.3678C16.6587 22.7677 20.3878 19.0385 24.988 19.0385C29.5882 19.0385 33.3173 22.7677 33.3173 27.3678C33.3121 31.9658 29.586 35.6919 24.988 35.6972L24.988 35.6972Z" id="Shape" fill="#FFAA47" stroke="none" />
    <path d="M2.77645 0L47.1996 0C48.733 0 49.976 1.24306 49.976 2.77645L49.976 42.4399C49.9713 43.9028 48.8325 45.111 47.3725 45.2021C47.9604 46.7754 47.3666 48.5455 45.9488 49.446C44.5311 50.3465 42.6764 50.1315 41.5023 48.9305L37.789 45.2164L2.77645 45.2164C1.24306 45.2164 0 43.9733 0 42.4399L0 2.77645C0 1.24306 1.24306 0 2.77645 0ZM2.77645 2.37981C2.55739 2.37981 2.37981 2.55739 2.37981 2.77645L2.37981 9.51924L47.5962 9.51924L47.5962 2.77645C47.5962 2.55739 47.4186 2.37981 47.1996 2.37981L2.77645 2.37981ZM5.94953 4.75962L10.7091 4.75962C11.3663 4.75962 11.899 5.29236 11.899 5.94953C11.899 6.60669 11.3663 7.13943 10.7091 7.13943L5.94953 7.13943C5.29236 7.13943 4.75962 6.60669 4.75962 5.94953C4.75962 5.29236 5.29236 4.75962 5.94953 4.75962ZM47.1996 42.8366C47.4186 42.8366 47.5962 42.659 47.5962 42.4399L47.5962 11.8991L2.37981 11.8991L2.37981 42.4399C2.37981 42.659 2.55739 42.8366 2.77645 42.8366L35.4092 42.8366L33.0913 40.5186C33.7766 40.0978 34.428 39.6241 35.0395 39.1019L43.1848 47.248C43.4855 47.5487 43.9238 47.6661 44.3346 47.556C44.7453 47.446 45.0662 47.1251 45.1762 46.7144C45.2863 46.3036 45.1688 45.8653 44.8681 45.5646L36.7221 37.4193C37.2443 36.8078 37.718 36.1564 38.1388 35.4711L45.5043 42.8366L47.1996 42.8366Z" id="Combined-Shape" fill="#9765ff" fill-rule="evenodd" stroke="none" />
  </g>
</svg>