<?xml version="1.0" encoding="utf-8"?>
<svg width="28.275879px" height="26.821533px" viewBox="0 0 28.275879 26.821533" version="1.1" xmlns:xlink="http://www.w3.org/1999/xlink" xmlns="http://www.w3.org/2000/svg">
  <g id="scribble">
    <path d="M10.084 17.4495C10.3962 23.1536 16.8241 25.7547 21.2163 22.2538C21.6072 21.9717 22.1579 22.6108 21.7567 22.9371C19.275 25.0173 15.9572 25.8803 12.9761 24.075C10.4065 22.5043 8.61528 19.5773 8.9997 16.5009C6.64059 16.2356 4.55348 15.1953 3.56107 13.2439C1.04943 8.19571 5.35359 1.649 10.8164 1.3741C11.2447 1.33334 11.2786 1.99282 10.8503 2.03357C6.79143 2.67906 2.82397 7.16248 4.02355 11.4423C4.74057 13.9816 6.85145 15.1206 9.22076 15.3418C10.0369 12.4117 12.2704 9.99501 14.9628 8.61513C17.2303 7.46297 19.9088 8.96573 18.9908 11.7327C17.9571 14.7988 13.8641 16.6001 10.1011 16.5691C10.084 16.8445 10.0568 17.164 10.084 17.4495ZM16.778 9.22038C15.4931 9.34264 14.31 10.2332 13.3785 11.0421C12.0799 12.2318 10.8526 13.7171 10.3221 15.4099C12.4773 15.349 14.7413 14.6149 16.2507 13.5205C16.968 13.0344 17.7703 12.3818 17.9301 11.4878C18.0492 10.7706 18.0187 9.08791 16.778 9.22038ZM20.2646 20.7308C21.5291 20.697 22.8311 20.9044 24.0684 21.1901C24.3335 21.2513 24.5477 21.5335 24.4865 21.7985C24.3028 22.594 24.0853 23.3349 23.7691 24.0998C23.5685 24.5655 23.3542 25.4935 22.7729 25.5921C22.5316 25.6295 22.3106 25.5785 22.2291 25.3269C22.1045 24.9425 22.3449 24.5066 22.5502 24.1343C22.6137 24.0193 22.6738 23.9103 22.7187 23.8108C22.9397 23.2567 23.1267 22.6483 23.3035 22.0841C22.3416 21.8154 21.3354 21.5366 20.3224 21.4889C19.8158 21.465 19.748 20.7512 20.2646 20.7308Z" id="Combined-Shape" fill="#FAE053" fill-rule="evenodd" stroke="none" />
  </g>
</svg>