<?xml version="1.0" encoding="utf-8"?>
<svg width="63.92163px" height="23.757568px" viewBox="0 0 63.92163 23.757568" version="1.1" xmlns:xlink="http://www.w3.org/1999/xlink" xmlns="http://www.w3.org/2000/svg">
  <g id="Group-13">
    <path d="M44.4502 8.7043L59.4981 17.6053C59.9386 17.8659 60.507 17.72 60.7676 17.2795L63.7924 12.1665C64.053 11.726 63.9071 11.1573 63.4663 10.8967L45.9626 0.542828C44.7386 -0.180787 43.2181 -0.181098 41.9945 0.542828L24.4908 10.8967C24.0503 11.1573 23.9044 11.726 24.1647 12.1665L27.1892 17.2795C27.4498 17.72 28.0182 17.8659 28.4587 17.6053L43.5065 8.7043C43.7977 8.5322 44.1594 8.5322 44.4502 8.7043ZM40.9851 23.7575L47.1444 23.7575C47.6564 23.7575 48.0713 23.3425 48.0713 22.8306L48.0713 16.6713C48.0713 16.1594 47.6564 15.7444 47.1444 15.7444L40.9851 15.7444C40.4732 15.7444 40.0582 16.1594 40.0582 16.6713L40.0582 22.8306C40.0582 23.3425 40.4732 23.7575 40.9851 23.7575Z" id="Combined-Shape" fill="#5233ED" fill-opacity="0.4" fill-rule="evenodd" stroke="none" />
    <path d="M20.4146 8.7043L35.4624 17.6053C35.9029 17.8659 36.4713 17.72 36.7319 17.2795L39.7567 12.1665C40.0173 11.726 39.8714 11.1573 39.4306 10.8967L21.927 0.542828C20.703 -0.180787 19.1825 -0.181098 17.9588 0.542828L0.455166 10.8967C0.0146374 11.1573 -0.13127 11.726 0.129056 12.1665L3.15352 17.2795C3.41416 17.72 3.98251 17.8659 4.42304 17.6053L19.4709 8.7043C19.7621 8.5322 20.1237 8.5322 20.4146 8.7043ZM16.9494 23.7575L23.1087 23.7575C23.6207 23.7575 24.0356 23.3425 24.0356 22.8306L24.0356 16.6713C24.0356 16.1594 23.6207 15.7444 23.1087 15.7444L16.9494 15.7444C16.4375 15.7444 16.0225 16.1594 16.0225 16.6713L16.0225 22.8306C16.0225 23.3425 16.4375 23.7575 16.9494 23.7575Z" id="Combined-Shape" fill="#5233ED" fill-rule="evenodd" stroke="none" />
  </g>
</svg>