<?xml version="1.0" encoding="utf-8"?>
<svg width="35.999634px" height="24px" viewBox="0 0 35.999634 24" version="1.1" xmlns:xlink="http://www.w3.org/1999/xlink" xmlns="http://www.w3.org/2000/svg">
  <g id="203-saudi-arabia">
    <path d="M0 0L35.9996 0L35.9996 24L0 24L0 0Z" id="Rectangle" fill="#6DA544" stroke="none" />
    <g id="Group" transform="translate(11.249879 6.78206)">
      <path d="M1.6557 7.5654C1.6557 8.42989 2.3399 9.13061 3.184 9.13061L7.76888 9.13061C7.76888 9.85089 8.33911 10.435 9.04251 10.435L10.5708 10.435C11.2742 10.435 11.8444 9.85096 11.8444 9.13061L11.8444 7.5654L1.6557 7.5654Z" id="Path" fill="#F0F0F0" stroke="none" />
      <path d="M11.9716 0.000210935L11.9716 3.65234C11.9716 4.2277 11.5145 4.69577 10.9527 4.69577L10.9527 6.26098C12.3572 6.26098 13.4998 5.09078 13.4998 3.65234L13.4998 0.000210935L11.9716 0.000210935L11.9716 0.000210935Z" id="Path" fill="#F0F0F0" stroke="none" />
      <path d="M1.01889 3.65241C1.01889 4.22778 0.561861 4.69584 0 4.69584L0 6.26105C1.40455 6.26105 2.54711 5.09085 2.54711 3.65241L2.54711 0.000281247L1.01882 0.000281247L1.01882 3.65241L1.01889 3.65241Z" id="Path" fill="#F0F0F0" stroke="none" />
      <path d="M9.67918 0L11.2075 0L11.2075 3.65213L9.67918 3.65213L9.67918 0Z" id="Rectangle" fill="#F0F0F0" stroke="none" />
      <path d="M7.38674 2.0872C7.38674 2.23106 7.27248 2.34806 7.132 2.34806C6.99152 2.34806 6.87726 2.23106 6.87726 2.0872L6.87726 0.000210935L5.34897 0.000210935L5.34897 2.0872C5.34897 2.23106 5.23471 2.34806 5.09423 2.34806C4.95374 2.34806 4.83949 2.23106 4.83949 2.0872L4.83949 0.000210935L3.31119 0.000210935L3.31119 2.0872C3.31119 3.09407 4.11106 3.91327 5.09416 3.91327C5.47278 3.91327 5.82399 3.79142 6.11304 3.58442C6.40203 3.79142 6.7533 3.91327 7.13193 3.91327C7.20815 3.91327 7.2831 3.90779 7.35693 3.89815C7.24865 4.35511 6.84682 4.69584 6.36778 4.69584L6.36778 6.26105C7.77233 6.26105 8.9149 5.09085 8.9149 3.65241L8.9149 2.0872L8.9149 0.000210935L7.3866 0.000210935L7.38674 2.0872L7.38674 2.0872Z" id="Path" fill="#F0F0F0" stroke="none" />
      <path d="M3.31119 4.69556L5.60342 4.69556L5.60342 6.26077L3.31119 6.26077L3.31119 4.69556Z" id="Rectangle" fill="#F0F0F0" stroke="none" />
    </g>
  </g>
</svg>