<?xml version="1.0" encoding="utf-8"?>
<svg width="74.82898px" height="40px" viewBox="0 0 74.82898 40" version="1.1" xmlns:xlink="http://www.w3.org/1999/xlink" xmlns="http://www.w3.org/2000/svg">
  <g id="logo">
    <path d="M57.8163 7.60516L70.9639 15.3822C71.3488 15.6099 71.8454 15.4824 72.0731 15.0975L74.716 10.6302C74.9437 10.2453 74.8162 9.7484 74.431 9.52067L59.1377 0.474282C58.0683 -0.157958 56.7398 -0.15823 55.6706 0.474282L40.3773 9.52067C39.9924 9.7484 39.8649 10.2453 40.0923 10.6302L42.7349 15.0975C42.9626 15.4824 43.4592 15.6099 43.8441 15.3822L56.9917 7.60516C57.2462 7.45479 57.5621 7.45479 57.8163 7.60516ZM54.7887 20.7575L60.1702 20.7575C60.6175 20.7575 60.9801 20.3949 60.9801 19.9476L60.9801 14.5661C60.9801 14.1188 60.6175 13.7563 60.1702 13.7563L54.7887 13.7563C54.3414 13.7563 53.9789 14.1188 53.9789 14.5661L53.9789 19.9476C53.9789 20.3949 54.3414 20.7575 54.7887 20.7575Z" id="Combined-Shape" fill="#FFFFFF" fill-opacity="0.4" fill-rule="evenodd" stroke="none" />
    <path d="M36.8158 7.60516L49.9634 15.3822C50.3483 15.6099 50.8449 15.4824 51.0726 15.0975L53.7154 10.6302C53.9431 10.2453 53.8157 9.7484 53.4305 9.52067L38.1372 0.474282C37.0677 -0.157958 35.7392 -0.15823 34.6701 0.474282L19.3767 9.52067C18.9918 9.7484 18.8643 10.2453 19.0918 10.6302L21.7344 15.0975C21.9621 15.4824 22.4587 15.6099 22.8436 15.3822L35.9912 7.60516C36.2456 7.45479 36.5616 7.45479 36.8158 7.60516ZM33.7882 20.7575L39.1697 20.7575C39.617 20.7575 39.9795 20.3949 39.9795 19.9476L39.9795 14.5661C39.9795 14.1188 39.617 13.7563 39.1697 13.7563L33.7882 13.7563C33.3409 13.7563 32.9783 14.1188 32.9783 14.5661L32.9783 19.9476C32.9783 20.3949 33.3409 20.7575 33.7882 20.7575Z" id="Combined-Shape" fill="#FFFFFF" fill-rule="evenodd" stroke="none" />
    <path d="M4.43902 39.5772L0 39.5772L0 21.0813L7.13414 21.0813L10.7276 32.126C11.0569 33.07 11.0397 34.2693 11.0244 35.33C11.0213 35.546 11.0183 35.7562 11.0183 35.9573L11.7581 35.9573C11.7581 35.7475 11.7548 35.527 11.7514 35.3C11.7356 34.2406 11.7177 33.0399 12.0224 32.126L15.6158 21.0813L22.7236 21.0813L22.7236 39.5772L18.2845 39.5772L18.2845 26.8417C18.2845 25.6789 18.7602 24.1463 18.9187 22.9837L18.2053 22.8783C18.0467 24.0407 18.0467 25.6263 17.7032 26.7625L14.0833 39.5772L8.66666 39.5772L4.9939 26.7625C4.6504 25.6263 4.67683 24.0671 4.49187 22.8783L3.77845 23.0102C3.96341 24.173 4.43902 25.6789 4.43902 26.8417L4.43902 39.5772ZM33.1604 40C38.075 40 41.1662 37.1728 41.1662 32.998C41.1662 28.8232 38.075 25.9695 33.1604 25.9695C28.219 25.9695 25.1276 28.5328 25.1276 32.998C25.1276 37.4634 28.219 40 33.1604 40ZM74.8285 32.9452C74.855 29.246 71.7635 25.9696 66.7696 25.9696C61.9078 25.9696 58.4729 28.9554 58.4729 32.8924C58.4729 36.8294 61.6436 39.9998 67.4566 39.9998C72.0013 39.9998 74.1415 37.1726 74.5379 35.7989L69.6761 35.7989C69.4119 36.1688 68.5135 36.5651 67.0602 36.5651C64.7879 36.5651 63.6781 35.2437 63.6781 34.0814L74.8285 34.1078L74.8285 32.9452ZM48.8815 32.7601C49.3337 33.8904 49.3321 35.4745 49.3308 36.7404C49.3308 36.8061 49.3307 36.871 49.3307 36.9349L50.0444 36.9349C50.0444 36.8695 50.0443 36.8034 50.0443 36.7364C50.043 35.4504 50.0415 33.8903 50.4933 32.7601L52.9771 26.366L57.6275 26.366L51.8147 39.5772L47.6661 39.5772L41.7477 26.366L46.3981 26.366L48.8815 32.7601ZM63.6781 31.6505C63.6781 30.2498 64.9993 29.0611 66.8753 29.0611C68.7249 29.0611 69.8611 30.1183 69.8611 31.6505L63.6781 31.6505ZM33.1337 29.986C35.8291 29.986 36.6743 31.3333 36.6743 32.998C36.6743 34.6626 35.8291 35.9573 33.1337 35.9573C30.4386 35.9573 29.6197 34.6626 29.6197 32.998C29.6197 31.3333 30.4386 29.986 33.1337 29.986Z" id="Combined-Shape" fill="#FFFFFF" fill-rule="evenodd" stroke="none" />
  </g>
</svg>